<?xml version="1.0" ?>
<!-- Uploaded to: SVG Repo, www.svgrepo.com, Generator: SVG Repo Mixer Tools -->
<svg fill="#000000" width="800px" height="800px" viewBox="0 0 512 512" id="icon" version="1.1" xml:space="preserve" xmlns="http://www.w3.org/2000/svg" xmlns:xlink="http://www.w3.org/1999/xlink">
<g>
<path d="M141.1159973,231.3468933c-13.5942993,0-24.6559982,11.0615082-24.6559982,24.6533203   c0,13.5966797,11.0616989,24.6586914,24.6559982,24.6586914c13.5944061,0,24.6560059-11.0620117,24.6560059-24.6586914   C165.7720032,242.4084015,154.7104034,231.3468933,141.1159973,231.3468933z M141.1159973,270.0627136   c-7.7532043,0-14.0600967-6.3068237-14.0600967-14.0625c0-7.7507172,6.3068924-14.0576172,14.0600967-14.0576172   c7.7528992,0,14.0599976,6.3069,14.0599976,14.0576172C155.1759949,263.7558899,148.8688965,270.0627136,141.1159973,270.0627136z"/>
<path d="M447.4711914,256.0002136c0-33.4287109,14.592804-66.1115112,14.7402039-66.437912   c0.9754028-2.1625977,0.3984985-4.7080994-1.4176941-6.2344055c-1.810791-1.5260925-4.4233093-1.6712036-6.384491-0.3311005   l-55.1470032,37.4239044c-16.5945129-14.4649048-43.084198-26.3052063-75.9456177-33.9776001   c17.9291992-52.2554016,40.6463013-93.6062012,40.883606-94.0302963c0.9082031-1.6406021,0.8796082-3.6425018-0.0725098-5.2568054   c-0.9518738-1.6139984-2.6877747-2.6076965-4.5632935-2.6076965c-94.7279968,0-177.4244995,69.4937057-209.771698,100.7004929   c-60.0997925,12.9333038-100.4743958,39.4919128-100.4743958,70.8647003   c0,31.4265137,40.5101013,58.0227051,100.7783966,70.9319153   c32.4580078,31.2538757,114.9828949,100.4062805,209.4676971,100.4062805c1.8755188,0,3.6114197-0.9933777,4.5632935-2.6074829   c0.9548035-1.614502,0.9807129-3.616394,0.0725098-5.2568054c-0.2348938-0.4241028-22.8808899-41.6207886-40.8139954-93.8200989   c32.8288879-7.6716003,59.2934875-19.5056152,75.8760071-33.9602051l55.1470032,37.4187012   c0.9003906,0.6159973,1.9375,0.915802,2.9723816,0.915802c1.2160034,0,2.4265137-0.4187012,3.407196-1.2419128   c1.815918-1.5209961,2.3980103-4.0661926,1.428009-6.2290039   C462.0693054,322.3445129,447.4711914,289.4335938,447.4711914,256.0002136z M350.6704102,95.3566971   c-7.6455078,14.8828049-24.1582031,48.8091049-37.7947083,88.8398056   c-23.8398132-4.7418976-50.5741882-7.3876953-79.0207062-7.3876953c-22.8338013,0-44.5695953,1.7006989-64.5895996,4.8224945   C205.0007019,149.7366028,273.4437866,99.0493011,350.6704102,95.3566971z M59.9145012,256.1134949   c0-27.2982941,42.8102989-51.4716949,102.7854004-62.4467926C202.7658997,204.919693,228.5569,229.2550964,228.5569,256.1134949   c0,26.7944946-25.8018036,51.1946106-65.822998,62.4544067C102.7405014,307.5952148,59.9145012,283.4179993,59.9145012,256.1134949   z M350.6704102,416.6433105c-77.0276184-3.6853027-145.3230133-54.1328125-181.0940094-85.9954224   c19.9333954,3.0909119,41.5646973,4.770813,64.278595,4.770813c28.4745941,0,55.2341156-2.6499023,79.0919952-7.4009094   C326.5703125,367.9551086,343.0378113,401.7868958,350.6704102,416.6433105z M282.1268921,321.9953918   c15.8948059-19.0517883,18.9234009-35.7969055,19.0632935-36.6235962c0.4814148-2.8761902-1.4562988-5.5926819-4.3302917-6.0843811   c-2.8769836-0.4966125-5.6113892,1.4386902-6.1181946,4.3153992c-0.0332031,0.2030945-3.759491,19.9841003-24.5563965,39.9564819   c-9.3499146,0.7268066-18.9380035,1.1419067-28.6950989,1.2261047   c37.7978821-28.4873047,36.3473816-67.1210938,36.2526855-68.9458008   c-0.1528015-2.9230957-2.7836914-5.2200012-5.5617981-5.0186005c-2.9232788,0.1502075-5.1687012,2.6436005-5.0187988,5.5673981   c0.0202942,0.425293,1.5804138,42.7720032-44.8822937,68.131897c-11.4459991-0.4228821-22.6062012-1.3063965-33.3690948-2.6026001   c33.5139008-14.510498,54.2418976-38.96698,54.2418976-65.8041992c0-26.8900909-20.6970062-51.3076019-54.2169952-65.8065948   c15.5909882-1.8748016,32.0123901-2.9019012,48.9191895-2.9019012c94.2859039,0,173.9404144,31.462204,173.9404144,68.7084961   C407.7954102,286.7742004,353.8052063,313.4966125,282.1268921,321.9953918z M406.8905945,284.1809082   c7.4328918-8.6894226,11.5007019-18.1357117,11.5007019-28.0674133c0-9.9308929-4.0678101-19.3771973-11.5011902-28.066391   l39.6289063-26.8899078c-4.4211121,13.4313965-9.6440125,33.7644043-9.6440125,54.8430176   c0,21.1352844,5.2514954,41.5976868,9.6803894,55.0914001L406.8905945,284.1809082z"/>
</g>
</svg>