<?xml version="1.0" encoding="utf-8"?><!-- Uploaded to: SVG Repo, www.svgrepo.com, Generator: SVG Repo Mixer Tools -->
<svg width="800px" height="800px" viewBox="0 0 400 400" fill="none" xmlns="http://www.w3.org/2000/svg">
<path opacity="0.952148" d="M151.967 160.204C140.965 216.645 130.755 259.942 119.937 322.645" stroke="#000000" stroke-opacity="0.9" stroke-width="12" stroke-linecap="round" stroke-linejoin="round"/>
<path opacity="0.952148" d="M64.9978 139.695C106.477 123.913 118.214 157.29 131.846 156.805C145.647 156.317 149.216 144.993 167.057 153.533C172.04 155.918 182.991 168.386 189.112 169.143C218.254 172.746 220.746 161.374 241.728 174.945" stroke="#000000" stroke-opacity="0.9" stroke-width="16" stroke-linecap="round" stroke-linejoin="round"/>
<path opacity="0.952148" d="M67.3149 128.09C123.204 50.6688 234.301 60.8378 246.915 171.643" stroke="#000000" stroke-opacity="0.9" stroke-width="16" stroke-linecap="round" stroke-linejoin="round"/>
<path opacity="0.496443" d="M119.937 221.977C139.808 243.995 156.368 269.3 173.702 294.045" stroke="#000000" stroke-opacity="0.9" stroke-width="16" stroke-linecap="round" stroke-linejoin="round"/>
<path opacity="0.496443" d="M180.567 290.613C222.264 288.819 263.425 283.75 305.257 283.75" stroke="#000000" stroke-opacity="0.9" stroke-width="16" stroke-linecap="round" stroke-linejoin="round"/>
<path opacity="0.496443" d="M305.257 284.894C316.466 294.716 325.865 307.583 335 320.356" stroke="#000000" stroke-opacity="0.9" stroke-width="16" stroke-linecap="round" stroke-linejoin="round"/>
<path opacity="0.496443" d="M177.134 294.045C170.435 303.049 164.846 313.248 159.975 322.644" stroke="#000000" stroke-opacity="0.9" stroke-width="16" stroke-linecap="round" stroke-linejoin="round"/>
<path d="M151.967 248.288C153.779 249.494 172.866 271.406 180.565 283.75" stroke="#000000" stroke-opacity="0.9" stroke-width="16" stroke-linecap="round" stroke-linejoin="round"/>
<path d="M196.582 259.727C203.557 257.549 209.765 252.022 216.029 247.144" stroke="#000000" stroke-opacity="0.9" stroke-width="16" stroke-linecap="round" stroke-linejoin="round"/>
<path d="M180.567 283.75C209.541 285.741 281.135 284.601 288.098 284.253" stroke="#000000" stroke-opacity="0.9" stroke-width="16" stroke-linecap="round" stroke-linejoin="round"/>
<path d="M169.568 197.523C179.401 195.523 186.972 206.989 184.754 218.685C176.032 264.689 118.814 216.935 165.549 194.522" stroke="#000000" stroke-opacity="0.9" stroke-width="16" stroke-linecap="round" stroke-linejoin="round"/>
<path d="M151.967 247.144C167.34 252.469 180.205 258.244 196.581 259.727" stroke="#000000" stroke-opacity="0.9" stroke-width="16" stroke-linecap="round" stroke-linejoin="round"/>
<path d="M217.017 250.575C214.369 244.688 205.867 241.177 204.719 235.293C204.332 233.323 204.816 234.295 206.036 233.047C208.511 230.511 216.529 217.336 218.773 216.417C220.38 215.758 222.95 217.316 224.485 217.765C225.838 218.161 235.82 220.451 235.466 222.261C234.734 225.998 223.415 245.024 220.969 248.775" stroke="#000000" stroke-opacity="0.9" stroke-width="16" stroke-linecap="round" stroke-linejoin="round"/>
</svg>