<?xml version="1.0" encoding="iso-8859-1"?>
<!-- Uploaded to: SVG Repo, www.svgrepo.com, Generator: SVG Repo Mixer Tools -->
<!DOCTYPE svg PUBLIC "-//W3C//DTD SVG 1.1//EN" "http://www.w3.org/Graphics/SVG/1.1/DTD/svg11.dtd">
<svg fill="#000000" version="1.1" id="Capa_1" xmlns="http://www.w3.org/2000/svg" xmlns:xlink="http://www.w3.org/1999/xlink" 
	 width="800px" height="800px" viewBox="0 0 196.237 196.237"
	 xml:space="preserve">
<g>
	<path d="M152.179,86.42c-5.3-2.849-9.708-1.55-13.263,1.849c-4.054-7.122-8.682-13.648-14.75-18.679
		c0.119-1.28,0.204-2.564,0.265-3.87c0.069-1.483,0.319-2.908,0.194-4.247c2.298-0.1,4.594-0.234,6.872-0.321
		c1.821-0.07,3.47-1.199,3.954-3.011c0.322-1.211,0.108-2.055-0.414-3.16c-0.849-1.792-2.908-2.125-4.631-1.884
		c-5.579,0.778-11.177,1.504-16.731,2.435c-3.542,0.594-2.248,5.461,0.784,5.789c1.386,0.15,2.779,0.227,4.177,0.257
		c-0.101,1.312,0.152,2.703,0.279,4.142c0.011,0.122,0.026,0.24,0.039,0.361c-6.701-2.567-16.682-0.334-22.89,0.251
		c-11.181,1.055-21.482,1.059-32.153,4.091c2.066-12.035,3.336-27.964,18.18-23.183c3.11,1.002,4.36-3.216,2.069-4.907
		c-9.349-6.9-16.465-1.853-20.775,6.02c-8.452-0.074-17.516,0.318-24.311-5.432c-0.82-0.693-2.24-0.735-2.79,0.36
		c-4.322,8.593-5.672,19.873-1.453,28.812c3.503,7.424,13.425,11.89,20.222,6.623c-1.659,4.662-3.719,9.108-6.018,13.425
		c-23.128-21.354-60.438,24.792-45.676,51.283c9.733,17.466,36.378,17.048,50.067,5.562c15.578-13.07,15.153-38.996,0.846-52.387
		c1.737-3.433,3.294-6.916,4.728-10.401c8.26,16.022,19.784,32.809,31.371,46.825c-0.39,1.19-0.644,2.397-0.694,3.555
		c-0.436,10.088,13.221,13.805,20.573,9.062c0.974,0.858,1.957,1.706,2.941,2.542c2.499,2.121,5.872,5.583,9.392,5.451
		c2.111-0.079,3.74-2.438,2.509-4.373c-1.723-2.71-5.411-4.311-7.915-6.263c-0.996-0.777-1.961-1.596-2.932-2.404
		c0.832-2.414,0.77-5.119,0.008-7.688c4.833-1.713,9.758-3.039,14.761-4.052c5.261,17.472,24.682,30.337,42.64,28.039
		C218.049,150.956,191.46,72.309,152.179,86.42z M47.172,142.731c-10.166,9.998-32.313,7.027-37.478-6.939
		c-3.864-10.449,2.165-22.851,9.051-30.53c7.883-8.792,16.955-10.197,26.723-6.7c-4.751,8.197-9.856,16.2-13.725,24.864
		c-0.684,1.532,1.113,3.207,2.435,1.878c5.867-5.897,11.056-12.959,15.545-20.497C58.404,116.436,58.264,131.823,47.172,142.731z
		 M38.422,47.491c1.155,1.105,2.503,1.965,3.921,2.719c-0.525,1.503-0.962,3.019-1.284,4.546c-1.061-0.605-2.094-1.32-3.075-2.223
		c-0.158-0.146-0.326-0.232-0.494-0.304C37.678,50.598,37.949,48.994,38.422,47.491z M37.287,56.077
		c1.011,0.859,2.099,1.566,3.221,2.198c-0.186,1.73-0.257,3.467-0.185,5.207c-0.866-0.411-1.723-0.917-2.57-1.539
		C37.435,60.039,37.3,58.056,37.287,56.077z M44.325,74.549c-3.023-1.301-4.487-4.821-5.412-7.725
		c-0.07-0.219-0.124-0.456-0.19-0.68c0.627,0.379,1.288,0.714,1.968,1.02c0.23,1.577,0.54,3.153,0.981,4.722
		c0.272,0.967,1.882,0.809,1.794-0.243c-0.098-1.179-0.107-2.346-0.137-3.515c1.453,0.427,2.963,0.72,4.489,0.852
		c-0.059,1.532-0.059,3.06,0.067,4.556c0.053,0.629,0.33,1.067,0.698,1.348C47.201,75.169,45.796,75.183,44.325,74.549z
		 M48.209,64.996c-1.648,0.043-3.272-0.109-4.873-0.488c0.052-1.6,0.154-3.196,0.327-4.785c1.709,0.627,3.475,1.088,5.29,1.314
		C48.645,62.348,48.392,63.659,48.209,64.996z M44.144,56.115c0.258-1.552,0.587-3.102,0.954-4.651
		c2.168,0.777,4.481,1.274,6.841,1.469c-0.231,0.159-0.443,0.371-0.594,0.713c-0.491,1.105-0.883,2.28-1.28,3.45
		C48.037,57.047,46.054,56.735,44.144,56.115z M56.716,73.093c-0.409-0.195-0.905-0.278-1.471-0.19
		c-1.352,0.21-2.667,0.712-3.979,1.18c0.067-0.17,0.137-0.339,0.161-0.546c0.178-1.553,0.41-3.085,0.672-4.606
		c2.009-0.207,3.964-0.656,5.734-1.426C57.496,69.377,57.147,71.246,56.716,73.093z M58.574,63.435
		c-1.894,0.376-3.775,0.773-5.636,1.078c0.222-1.096,0.445-2.194,0.67-3.291c1.876-0.103,3.753-0.391,5.588-0.868
		C58.98,61.378,58.764,62.403,58.574,63.435z M60.336,55.811c-1.948,0.462-3.923,0.855-5.891,1.092
		c0.112-0.603,0.236-1.199,0.34-1.806c0.148-0.872-0.355-1.656-1.027-2.087c2.647,0.066,5.295-0.157,7.768-0.685
		c-0.366,0.924-0.711,1.857-1.008,2.802C60.448,55.352,60.404,55.583,60.336,55.811z M101.82,121.311
		c-0.182,0.55-0.402,1.146-0.634,1.765c-0.03,0.004-0.059-0.002-0.09,0.002c-1.291,0.187-2.353,0.767-3.25,1.549
		c-1.015,0.294-1.978,0.825-2.867,1.524c-0.324-0.319-0.645-0.645-0.934-1.042c-7.37-10.131-14.016-20.691-21.579-30.737
		c-0.918-1.219-9.282-11.085-11.359-13.738c0.379-1.039,0.833-2.089,1.183-3.122c0.225-0.663,0.426-1.381,0.615-2.131
		c15.957-2.551,40.294-6.792,55.762,1.226c-4.225,6.611-7.514,18.707-8.52,21.358C107.217,105.691,104.414,113.464,101.82,121.311z
		 M127.593,118.854c-0.019,0.748,0.056,1.479,0.09,2.218c-0.843,0.153-1.679,0.273-2.525,0.439
		c-3.889,0.762-9.167,3.317-14.412,5.148c-0.082-0.089-0.146-0.198-0.229-0.284c-1.285-1.329-2.764-2.284-4.375-2.843
		c2.883-6.493,5.4-13.298,8.059-19.863c2.687-6.635,5.509-13.208,8.439-19.739c0.48-1.069,1.141-2.19,1.796-3.327
		c1.687,1.542,3.223,3.273,4.473,5.347c1.805,2.995,3.469,6.06,5.104,9.134C129.834,103.035,127.729,113.563,127.593,118.854z
		 M136.576,119.699c-0.269-5.272,0.753-10.527,2.259-15.559c2.715,5.036,5.629,9.927,9.018,14.52
		C144.067,118.846,140.32,119.222,136.576,119.699z M173.539,147.204c-13.925,5.305-30.251-6.416-35.377-19.835
		c5.309-0.671,10.693-1.052,16.147-1.175c0.384,0.382,0.707,0.8,1.104,1.172c2.953,2.768,7.137-1.445,4.423-4.424
		c-0.013-0.014-0.023-0.029-0.035-0.044c0.282-2.04-0.853-4.281-3.489-4.382c-5.077-6.777-9.096-14.655-13.178-22.467
		c1.591-1.642,3.5-2.863,5.768-3.921c0.683,1.542,2.279,2.708,4.588,2.353C180.834,90.28,203.622,135.745,173.539,147.204z"/>
</g>
</svg>