<?xml version="1.0" ?>
<!-- Uploaded to: SVG Repo, www.svgrepo.com, Generator: SVG Repo Mixer Tools -->
<svg fill="#000000" width="800px" height="800px" viewBox="0 0 64 64" xmlns="http://www.w3.org/2000/svg">
<title/>
<g data-name="Layer 2" id="Layer_2">
<path d="M64,13v-.245a6.986,6.986,0,0,0-4.041-6.349C41.406-2.1,22.593-2.1,4.041,6.406A6.986,6.986,0,0,0,0,12.755V13a6.994,6.994,0,0,0,3.209,5.876,3.453,3.453,0,0,0,0,5.245,2.914,2.914,0,0,0-.623,1.121A11.045,11.045,0,0,0,2,27.983a3.883,3.883,0,0,0,1.187,2.793,4.962,4.962,0,0,0,.4,6.856,3.447,3.447,0,0,0-1.567,2.511A3.422,3.422,0,0,0,3.552,43.4a4.946,4.946,0,0,0,.227,7.4A7,7,0,0,0,7,64H57a7,7,0,0,0,3.221-13.208,4.942,4.942,0,0,0,.194-7.424,3.454,3.454,0,0,0,1.567-2.511,3.514,3.514,0,0,0-.886-2.7,3.475,3.475,0,0,0-.648-.547,4.967,4.967,0,0,0,.365-6.829A3.883,3.883,0,0,0,62,27.983a11.033,11.033,0,0,0-.582-2.74,2.911,2.911,0,0,0-.623-1.122,3.453,3.453,0,0,0,0-5.245A6.994,6.994,0,0,0,64,13ZM2,13v-.245A4.98,4.98,0,0,1,4.875,8.224,64.63,64.63,0,0,1,32,2.034a64.63,64.63,0,0,1,27.125,6.19A4.98,4.98,0,0,1,62,12.755V13a5.006,5.006,0,0,1-5,5H7A5.006,5.006,0,0,1,2,13ZM58.1,29.883a1.9,1.9,0,0,1-1.78-1.268,1,1,0,0,0-.943-.665h-.355a1,1,0,0,0-.942.665,1.883,1.883,0,0,1-3.56,0,1,1,0,0,0-.942-.665h-.356a1,1,0,0,0-.942.665,1.883,1.883,0,0,1-3.56,0,1,1,0,0,0-.942-.665h-.356a1,1,0,0,0-.942.665,1.883,1.883,0,0,1-3.56,0,1,1,0,0,0-.942-.665h-.355a1,1,0,0,0-.943.665,1.883,1.883,0,0,1-3.56,0,1,1,0,0,0-.942-.665h-.356a1,1,0,0,0-.942.665,1.883,1.883,0,0,1-3.56,0,1,1,0,0,0-.943-.665h-.355a1,1,0,0,0-.942.665,1.883,1.883,0,0,1-3.56,0,1,1,0,0,0-.942-.665h-.356a1,1,0,0,0-.942.665,1.883,1.883,0,0,1-3.56,0,1,1,0,0,0-.942-.665h-.356a1,1,0,0,0-.942.665,1.883,1.883,0,0,1-3.56,0,1,1,0,0,0-.942-.665H8.623a1,1,0,0,0-.943.665A1.893,1.893,0,0,1,4,27.983a10.816,10.816,0,0,1,.5-2.19.937.937,0,0,1,.9-.676H58.6a.937.937,0,0,1,.9.677A10.8,10.8,0,0,1,60,27.983,1.9,1.9,0,0,1,58.1,29.883ZM62,57a5.006,5.006,0,0,1-5,5H7A5,5,0,0,1,7,52H57A5.006,5.006,0,0,1,62,57ZM7,50a3,3,0,0,1,0-6H44.586l3.293,3.293a3,3,0,0,0,4.242,0L55.414,44H57a3,3,0,0,1,0,6ZM58.5,39a1.5,1.5,0,0,1,1.492,1.658A1.594,1.594,0,0,1,58.357,42H55a1,1,0,0,0-.707.293l-3.586,3.586a1,1,0,0,1-1.414,0l-3.586-3.586A1.009,1.009,0,0,0,45,42H5.5a1.5,1.5,0,0,1-1.492-1.659A1.594,1.594,0,0,1,5.643,39H58.5ZM60,34a3,3,0,0,1-3,3H7a3,3,0,0,1-2-5.232,3.808,3.808,0,0,0,3.8-1.191,3.872,3.872,0,0,0,5.8,0,3.871,3.871,0,0,0,5.8,0,3.872,3.872,0,0,0,5.8,0,3.872,3.872,0,0,0,5.8,0,3.872,3.872,0,0,0,5.8,0,3.872,3.872,0,0,0,5.8,0,3.871,3.871,0,0,0,5.8,0,3.872,3.872,0,0,0,5.8,0A3.808,3.808,0,0,0,59,31.768,3,3,0,0,1,60,34ZM58.5,20a1.5,1.5,0,0,1,0,3H5.5a1.5,1.5,0,0,1,0-3h53Z"/>
<path d="M16,10h2a1,1,0,0,0,0-2H16a1,1,0,0,0,0,2Z"/>
<path d="M17,15a1,1,0,0,0,1,1h2a1,1,0,0,0,0-2H18A1,1,0,0,0,17,15Z"/>
<path d="M10,13h2a1,1,0,0,0,0-2H10a1,1,0,0,0,0,2Z"/>
<path d="M30,10h2a1,1,0,0,0,0-2H30a1,1,0,0,0,0,2Z"/>
<path d="M31,15a1,1,0,0,0,1,1h2a1,1,0,0,0,0-2H32A1,1,0,0,0,31,15Z"/>
<path d="M24,13h2a1,1,0,0,0,0-2H24a1,1,0,0,0,0,2Z"/>
<path d="M44,10h2a1,1,0,0,0,0-2H44a1,1,0,0,0,0,2Z"/>
<path d="M45,15a1,1,0,0,0,1,1h2a1,1,0,0,0,0-2H46A1,1,0,0,0,45,15Z"/>
<path d="M38,13h2a1,1,0,0,0,0-2H38a1,1,0,0,0,0,2Z"/>
<path d="M25,6h2a1,1,0,0,0,0-2H25a1,1,0,0,0,0,2Z"/>
<path d="M39,6h2a1,1,0,0,0,0-2H39a1,1,0,0,0,0,2Z"/>
<path d="M52,13h2a1,1,0,0,0,0-2H52a1,1,0,0,0,0,2Z"/>
<path d="M9,60h2a1,1,0,0,0,0-2H9a1,1,0,0,0,0,2Z"/>
<path d="M27,56h2a1,1,0,0,0,0-2H27a1,1,0,0,0,0,2Z"/>
<path d="M51,60h2a1,1,0,0,0,0-2H51a1,1,0,0,0,0,2Z"/>
</g>
</svg>