<?xml version="1.0" encoding="utf-8"?><!-- Uploaded to: SVG Repo, www.svgrepo.com, Generator: SVG Repo Mixer Tools -->
<svg width="800px" height="800px" viewBox="0 0 400 400" fill="none" xmlns="http://www.w3.org/2000/svg">
<path d="M154.43 82.5312C173.459 117.556 205.218 122.311 243.126 118.117" stroke="#000000" stroke-opacity="0.9" stroke-width="16" stroke-linecap="round" stroke-linejoin="round"/>
<path d="M150.09 86.5879C140.296 98.5304 134.136 110.444 129.975 126.872" stroke="#000000" stroke-opacity="0.9" stroke-width="16" stroke-linecap="round" stroke-linejoin="round"/>
<path d="M130.429 131.586C117.525 139.947 135.196 152.018 135.196 152.739C135.196 229.349 250.087 260.198 250.087 161.051" stroke="#000000" stroke-opacity="0.9" stroke-width="16" stroke-linecap="round" stroke-linejoin="round"/>
<path d="M118.367 215.001C87.2977 146.373 97.9899 60.6461 164.799 33.3594" stroke="#000000" stroke-opacity="0.9" stroke-width="16" stroke-linecap="round" stroke-linejoin="round"/>
<path d="M187.835 33C307.054 33.0003 275.092 138.363 282.29 203.481" stroke="#000000" stroke-opacity="0.9" stroke-width="16" stroke-linecap="round" stroke-linejoin="round"/>
<path d="M186.274 144.558C186.274 141.486 186.274 138.409 186.274 135.336" stroke="#000000" stroke-opacity="0.9" stroke-width="16" stroke-linecap="round" stroke-linejoin="round"/>
<path d="M212.424 144.452C212.424 139.561 213.503 138.736 212.424 135.019" stroke="#000000" stroke-opacity="0.9" stroke-width="16" stroke-linecap="round" stroke-linejoin="round"/>
<path d="M144.154 218.021C130.491 255.064 179.516 277.407 185.35 311.852C185.489 312.657 186.432 356.683 188.884 356.683C197.622 356.683 188.825 310.119 192.414 304.557C218.528 264.074 247.734 267.575 247.734 213.848" stroke="#000000" stroke-opacity="0.9" stroke-width="16" stroke-linecap="round" stroke-linejoin="round"/>
<path d="M45 364.747C60.1863 306.064 60.1863 250.394 141.759 217.304" stroke="#000000" stroke-opacity="0.9" stroke-width="16" stroke-linecap="round" stroke-linejoin="round"/>
<path d="M250.039 217.304C306.492 219.949 354.861 302.323 354.861 356.683" stroke="#000000" stroke-opacity="0.9" stroke-width="16" stroke-linecap="round" stroke-linejoin="round"/>
<path d="M247.454 214.385C252.064 225.679 270.412 261.433 272.454 273.673" stroke="#000000" stroke-opacity="0.9" stroke-width="16" stroke-linecap="round" stroke-linejoin="round"/>
<path d="M264.979 274.103C308.843 245.731 308.11 334.174 263.765 302.154C252.367 293.926 265.752 280.95 271.052 272.934" stroke="#000000" stroke-opacity="0.9" stroke-width="16" stroke-linecap="round" stroke-linejoin="round"/>
<path d="M144.572 219.081C125.029 233.198 104.685 262.672 102.722 285.53" stroke="#000000" stroke-opacity="0.9" stroke-width="16" stroke-linecap="round" stroke-linejoin="round"/>
<path d="M69.0321 364.747C41.0835 350.369 78.0741 270.547 109.175 286.469C133.814 299.08 128.247 362.011 101.532 364.747" stroke="#000000" stroke-opacity="0.9" stroke-width="16" stroke-linecap="round" stroke-linejoin="round"/>
<path d="M285.611 332.155C275.829 331.226 266.341 333.888 256.665 335.278" stroke="#000000" stroke-opacity="0.9" stroke-width="16" stroke-linecap="round" stroke-linejoin="round"/>
</svg>