<?xml version="1.0" ?>
<!-- Uploaded to: SVG Repo, www.svgrepo.com, Generator: SVG Repo Mixer Tools -->
<svg fill="#000000" width="800px" height="800px" viewBox="0 0 24 24" xmlns="http://www.w3.org/2000/svg">
<title/>
<g data-name="Layer 2" id="Layer_2">
<path d="M16,10.66a3.51,3.51,0,0,0,1.85-4.21h0A3.42,3.42,0,0,0,16,4.35V2H14V4a3.47,3.47,0,0,0-2,1,3.47,3.47,0,0,0-2-1V2H8V4.35a3.43,3.43,0,0,0-1.85,2.1A3.51,3.51,0,0,0,8,10.66v1.17L4.61,22H19.39L16,11.84ZM13.43,6.45a1.52,1.52,0,0,1,1.51-.39,1.45,1.45,0,0,1,1,1,1.55,1.55,0,0,1-.14,1.25,1.5,1.5,0,0,1-1,.7l-.8.16V11H10V9.13L9.2,9a1.5,1.5,0,0,1-1-.7A1.54,1.54,0,0,1,8.07,7a1.45,1.45,0,0,1,1-1,1.52,1.52,0,0,1,1.51.39A2,2,0,0,0,13.43,6.45ZM7.39,20l2.33-7h4.56l2.33,7Z"/>
</g>
</svg>