<?xml version="1.0" encoding="iso-8859-1"?>
<!-- Uploaded to: SVG Repo, www.svgrepo.com, Generator: SVG Repo Mixer Tools -->
<svg fill="#000000" version="1.1" id="Layer_1" xmlns="http://www.w3.org/2000/svg" xmlns:xlink="http://www.w3.org/1999/xlink" 
	 viewBox="0 0 503.609 503.609" xml:space="preserve">
<g>
	<g>
		<rect x="184.66" y="218.23" width="41.967" height="16.787"/>
	</g>
</g>
<g>
	<g>
		<path d="M243.528,201.449l-0.117,50.243l16.669,0.117c0.059,0,0.117-0.059,0.117-0.117v-8.276v-33.574v-8.284L243.528,201.449z"/>
	</g>
</g>
<g>
	<g>
		<path d="M174.787,37.182c-22.36,4.692-40.524,15.217-40.524,38.358c0,9.72,11.424,23.275,20.556,32.592l8.175-5.842
			c5.901-4.197,12.934-7.092,20.472-8.662L174.787,37.182z"/>
	</g>
</g>
<g>
	<g>
		<path d="M285.378,33.574c-4.633,0-8.393-3.76-8.393-8.393V8.393c0-4.633-3.752-8.393-8.393-8.393h-33.574
			c-4.642,0-8.393,3.76-8.393,8.393V25.18c0,4.633-3.76,8.393-8.393,8.393c-8.544,0-17.76,0.269-26.842,1.141l8.88,57.722
			c3.221,0.186,6.453,0.538,9.667,1.21c16.225,3.357,30.754,12.481,41.867,26.095c11.113-13.614,25.65-22.738,41.875-26.104
			c3.19-0.663,6.387-1.007,9.585-1.2l8.251-57.78C302.66,33.834,293.704,33.574,285.378,33.574z"/>
	</g>
</g>
<g>
	<g>
		<path d="M328.14,37.022l-8.083,56.58c7.571,1.561,14.638,4.457,20.547,8.679l7.579,6.489c9.224-9.325,21.16-23.3,21.16-33.23
			C369.343,52.156,350.819,41.639,328.14,37.022z"/>
	</g>
</g>
<g>
	<g>
		<path d="M330.292,251.806h-53.315c-0.067,9.266-7.613,16.787-16.896,16.787h-16.552c-9.283,0-16.829-7.521-16.896-16.787h-53.315
			c-56.102,65.435-41.086,151.846-21.991,228.646c0.697,2.787,2.77,5.036,5.498,5.934c2.107,0.705,52.14,17.223,94.98,17.223
			c42.84,0,92.873-16.518,94.98-17.223c2.728-0.898,4.801-3.148,5.498-5.934C371.377,403.652,386.393,317.241,330.292,251.806z
			 M352.526,360.921c4.633,0,8.393,3.76,8.393,8.393s-3.76,8.393-8.393,8.393s-8.393-3.76-8.393-8.393
			C344.132,364.681,347.893,360.921,352.526,360.921z M251.805,310.56c4.633,0,8.393,3.76,8.393,8.393s-3.76,8.393-8.393,8.393
			s-8.393-3.76-8.393-8.393C243.411,314.32,247.171,310.56,251.805,310.56z M251.805,360.921c4.633,0,8.393,3.76,8.393,8.393
			s-3.76,8.393-8.393,8.393s-8.393-3.76-8.393-8.393S247.172,360.921,251.805,360.921z M251.805,411.281
			c4.633,0,8.393,3.76,8.393,8.393s-3.76,8.393-8.393,8.393s-8.393-3.76-8.393-8.393
			C243.411,415.041,247.171,411.281,251.805,411.281z M151.083,428.068c-4.633,0-8.393-3.76-8.393-8.393s3.76-8.393,8.393-8.393
			s8.393,3.76,8.393,8.393C159.477,424.308,155.716,428.068,151.083,428.068z M151.083,377.707c-4.633,0-8.393-3.76-8.393-8.393
			s3.76-8.393,8.393-8.393s8.393,3.76,8.393,8.393S155.716,377.707,151.083,377.707z M167.87,453.248
			c-4.633,0-8.393-3.76-8.393-8.393s3.76-8.393,8.393-8.393s8.393,3.76,8.393,8.393S172.503,453.248,167.87,453.248z
			 M167.87,402.888c-4.633,0-8.393-3.76-8.393-8.393s3.76-8.393,8.393-8.393s8.393,3.76,8.393,8.393S172.503,402.888,167.87,402.888
			z M167.87,352.526c-4.633,0-8.393-3.76-8.393-8.393s3.76-8.393,8.393-8.393s8.393,3.76,8.393,8.393
			S172.503,352.526,167.87,352.526z M167.87,302.166c-4.633,0-8.393-3.76-8.393-8.393s3.76-8.393,8.393-8.393
			s8.393,3.76,8.393,8.393S172.503,302.166,167.87,302.166z M184.657,478.429c-4.633,0-8.393-3.76-8.393-8.393
			s3.76-8.393,8.393-8.393c4.633,0,8.393,3.76,8.393,8.393C193.05,474.668,189.29,478.429,184.657,478.429z M184.657,428.067
			c-4.633,0-8.393-3.76-8.393-8.393c0-4.633,3.76-8.393,8.393-8.393s8.393,3.76,8.393,8.393S189.29,428.067,184.657,428.067z
			 M184.657,377.707c-4.633,0-8.393-3.76-8.393-8.393s3.76-8.393,8.393-8.393c4.633,0,8.393,3.76,8.393,8.393
			S189.29,377.707,184.657,377.707z M184.657,327.347c-4.633,0-8.393-3.76-8.393-8.393s3.76-8.393,8.393-8.393
			c4.633,0,8.393,3.76,8.393,8.393S189.29,327.347,184.657,327.347z M184.657,276.985c-4.633,0-8.393-3.76-8.393-8.393
			s3.76-8.393,8.393-8.393s8.393,3.76,8.393,8.393S189.29,276.985,184.657,276.985z M201.444,453.248
			c-4.633,0-8.393-3.76-8.393-8.393s3.76-8.393,8.393-8.393c4.633,0,8.393,3.76,8.393,8.393S206.077,453.248,201.444,453.248z
			 M201.444,402.887c-4.633,0-8.393-3.76-8.393-8.393s3.76-8.393,8.393-8.393s8.393,3.76,8.393,8.393
			S206.077,402.887,201.444,402.887z M201.444,352.526c-4.633,0-8.393-3.76-8.393-8.393s3.76-8.393,8.393-8.393
			s8.393,3.76,8.393,8.393S206.077,352.526,201.444,352.526z M201.444,302.166c-4.633,0-8.393-3.76-8.393-8.393
			s3.76-8.393,8.393-8.393s8.393,3.76,8.393,8.393S206.077,302.166,201.444,302.166z M218.231,478.429
			c-4.633,0-8.393-3.76-8.393-8.393s3.76-8.393,8.393-8.393s8.393,3.76,8.393,8.393
			C226.624,474.668,222.864,478.429,218.231,478.429z M218.231,428.067c-4.633,0-8.393-3.76-8.393-8.393
			c-0.001-4.633,3.76-8.393,8.393-8.393s8.393,3.76,8.393,8.393S222.864,428.067,218.231,428.067z M218.231,377.707
			c-4.633,0-8.393-3.76-8.393-8.393s3.76-8.393,8.393-8.393s8.393,3.76,8.393,8.393S222.864,377.707,218.231,377.707z
			 M218.231,327.347c-4.633,0-8.393-3.76-8.393-8.393s3.76-8.393,8.393-8.393s8.393,3.76,8.393,8.393
			S222.864,327.347,218.231,327.347z M218.231,276.985c-4.633,0-8.393-3.76-8.393-8.393s3.76-8.393,8.393-8.393
			s8.393,3.76,8.393,8.393S222.864,276.985,218.231,276.985z M235.018,453.248c-4.633,0-8.393-3.76-8.393-8.393
			s3.76-8.393,8.393-8.393s8.393,3.76,8.393,8.393S239.651,453.248,235.018,453.248z M235.018,402.887
			c-4.633,0-8.393-3.76-8.393-8.393s3.759-8.393,8.393-8.393c4.633,0,8.393,3.76,8.393,8.393S239.651,402.887,235.018,402.887z
			 M235.018,352.526c-4.633,0-8.393-3.76-8.393-8.393s3.759-8.393,8.393-8.393c4.633,0,8.393,3.76,8.393,8.393
			S239.651,352.526,235.018,352.526z M235.018,302.166c-4.633,0-8.393-3.76-8.393-8.393s3.759-8.393,8.393-8.393
			c4.633,0,8.393,3.76,8.393,8.393S239.651,302.166,235.018,302.166z M251.805,478.429c-4.633,0-8.393-3.76-8.393-8.393
			s3.76-8.393,8.393-8.393s8.393,3.76,8.393,8.393C260.198,474.668,256.438,478.429,251.805,478.429z M268.591,453.248
			c-4.633,0-8.393-3.76-8.393-8.393s3.76-8.393,8.393-8.393s8.393,3.76,8.393,8.393S273.225,453.248,268.591,453.248z
			 M268.591,402.887c-4.633,0-8.393-3.76-8.393-8.393s3.76-8.393,8.393-8.393s8.393,3.76,8.393,8.393
			S273.224,402.887,268.591,402.887z M268.591,352.527c-4.633,0-8.393-3.76-8.393-8.393s3.76-8.393,8.393-8.393
			s8.393,3.76,8.393,8.393S273.224,352.527,268.591,352.527z M268.591,302.166c-4.633,0-8.393-3.76-8.393-8.393
			s3.76-8.393,8.393-8.393s8.393,3.76,8.393,8.393S273.224,302.166,268.591,302.166z M285.378,478.429
			c-4.633,0-8.393-3.76-8.393-8.393s3.76-8.393,8.393-8.393s8.393,3.76,8.393,8.393
			C293.772,474.668,290.011,478.429,285.378,478.429z M285.378,428.067c-4.633,0-8.393-3.76-8.393-8.393
			c0-4.633,3.76-8.393,8.393-8.393s8.393,3.76,8.393,8.393S290.011,428.067,285.378,428.067z M285.378,377.707
			c-4.633,0-8.393-3.76-8.393-8.393s3.76-8.393,8.393-8.393s8.393,3.76,8.393,8.393
			C293.772,373.947,290.011,377.707,285.378,377.707z M285.378,327.347c-4.633,0-8.393-3.76-8.393-8.393s3.76-8.393,8.393-8.393
			s8.393,3.76,8.393,8.393C293.772,323.587,290.011,327.347,285.378,327.347z M285.378,276.985c-4.633,0-8.393-3.76-8.393-8.393
			s3.76-8.393,8.393-8.393s8.393,3.76,8.393,8.393S290.011,276.985,285.378,276.985z M302.165,453.248
			c-4.633,0-8.393-3.76-8.393-8.393s3.76-8.393,8.393-8.393s8.393,3.76,8.393,8.393S306.798,453.248,302.165,453.248z
			 M302.165,402.887c-4.633,0-8.393-3.76-8.393-8.393s3.76-8.393,8.393-8.393s8.393,3.76,8.393,8.393
			S306.798,402.887,302.165,402.887z M302.165,352.526c-4.633,0-8.393-3.76-8.393-8.393s3.76-8.393,8.393-8.393
			s8.393,3.76,8.393,8.393S306.798,352.526,302.165,352.526z M302.165,302.166c-4.633,0-8.393-3.76-8.393-8.393
			s3.76-8.393,8.393-8.393s8.393,3.76,8.393,8.393S306.798,302.166,302.165,302.166z M318.952,478.429
			c-4.633,0-8.393-3.76-8.393-8.393s3.76-8.393,8.393-8.393s8.393,3.76,8.393,8.393
			C327.345,474.668,323.585,478.429,318.952,478.429z M318.952,428.067c-4.633,0-8.393-3.76-8.393-8.393
			c0-4.633,3.76-8.393,8.393-8.393s8.393,3.76,8.393,8.393S323.585,428.067,318.952,428.067z M318.952,377.707
			c-4.633,0-8.393-3.76-8.393-8.393s3.76-8.393,8.393-8.393s8.393,3.76,8.393,8.393S323.585,377.707,318.952,377.707z
			 M318.952,327.346c-4.633,0-8.393-3.759-8.393-8.393c0-4.633,3.76-8.393,8.393-8.393s8.393,3.76,8.393,8.393
			S323.585,327.346,318.952,327.346z M318.952,276.985c-4.633,0-8.393-3.76-8.393-8.393s3.76-8.393,8.393-8.393
			s8.393,3.76,8.393,8.393S323.585,276.985,318.952,276.985z M335.739,453.248c-4.633,0-8.393-3.76-8.393-8.393
			s3.76-8.393,8.393-8.393s8.393,3.76,8.393,8.393S340.372,453.248,335.739,453.248z M335.739,402.887
			c-4.633,0-8.393-3.76-8.393-8.393s3.76-8.393,8.393-8.393s8.393,3.76,8.393,8.393S340.372,402.887,335.739,402.887z
			 M335.739,352.527c-4.633,0-8.393-3.76-8.393-8.393s3.76-8.393,8.393-8.393s8.393,3.76,8.393,8.393
			S340.372,352.527,335.739,352.527z M335.739,302.166c-4.633,0-8.393-3.76-8.393-8.393s3.76-8.393,8.393-8.393
			s8.393,3.76,8.393,8.393S340.372,302.166,335.739,302.166z M352.526,428.068c-4.633,0-8.393-3.76-8.393-8.393
			s3.76-8.393,8.393-8.393s8.393,3.76,8.393,8.393S357.159,428.068,352.526,428.068z"/>
	</g>
</g>
<g>
	<g>
		<path d="M330.28,115.49c-8.192-5.791-20.816-8.016-33.196-5.414c-15.368,3.181-28.899,13.329-38.089,28.555
			c-3.047,5.036-11.331,5.036-14.378,0c-9.191-15.226-22.713-25.365-38.089-28.555c-12.372-2.568-25.021-0.378-33.784,5.875
			l-12.859,9.182c1.922,38.652,10.584,62.758,17.651,76.313h49.102c0.059-9.266,7.604-16.787,16.888-16.787h16.56
			c9.283,0,16.829,7.521,16.888,16.787h49.102c6.949-13.336,15.434-36.938,17.541-74.532L330.28,115.49z"/>
	</g>
</g>
<g>
	<g>
		<rect x="276.98" y="218.23" width="41.967" height="16.787"/>
	</g>
</g>
</svg>