<?xml version="1.0" encoding="iso-8859-1"?>
<!-- Uploaded to: SVG Repo, www.svgrepo.com, Generator: SVG Repo Mixer Tools -->
<svg fill="#000000" version="1.1" id="Layer_1" xmlns="http://www.w3.org/2000/svg" xmlns:xlink="http://www.w3.org/1999/xlink" 
	 viewBox="0 0 503.611 503.611" xml:space="preserve">
<g>
	<g>
		<path d="M318.952,224.299c0-2.04,0.218-4.062,0.537-6.068h-42.504v16.786h43.688C319.642,231.517,318.952,227.941,318.952,224.299
			z"/>
	</g>
</g>
<g>
	<g>
		<path d="M329.995,37.453l-6.094,57.057c-5.296-1.46-10.92-2.216-16.636-2.224l6.136-57.47c-9.468-0.965-19.104-1.242-28.026-1.242
			c-4.625,0-8.393-3.76-8.393-8.393V8.393c0-4.633-3.752-8.393-8.393-8.393h-33.574c-4.633,0-8.393,3.76-8.393,8.393V25.18
			c0,4.633-3.76,8.393-8.393,8.393c-7.571,0-15.671,0.227-23.737,0.881l2.392,57.806c-5.741-0.042-11.373,0.713-16.711,2.132
			l-2.392-57.789c-23.711,4.365-43.512,14.772-43.512,38.937c-0.001,11.525,16.014,28.43,25.264,37.251
			c0.034,3.366,0.117,6.622,0.252,9.795c0.042,0.906,0.076,1.805,0.126,2.703c0.218,4.398,0.52,8.628,0.906,12.649
			c0.042,0.47,0.101,0.923,0.143,1.393c0.445,4.39,0.965,8.603,1.578,12.557c0.008,0.067,0.017,0.134,0.025,0.201
			c0.663,4.314,1.418,8.326,2.233,12.137c0.05,0.227,0.084,0.478,0.134,0.713c0.008,0.025,0.025,0.042,0.034,0.076
			c3.66,16.846,8.519,28.697,12.531,36.428h51.469c2.913-4.986,8.268-8.393,14.445-8.393h16.787c6.186,0,11.541,3.408,14.453,8.393
			h51.477c4.012-7.73,8.863-19.59,12.531-36.436c0-0.025,0.017-0.042,0.025-0.067c0.042-0.21,0.076-0.428,0.118-0.638
			c0.823-3.827,1.586-7.873,2.249-12.221c0.008-0.05,0.017-0.101,0.025-0.151c0.613-3.979,1.133-8.209,1.578-12.632
			c0.042-0.453,0.101-0.89,0.143-1.351c0.386-4.021,0.688-8.259,0.906-12.666c0.05-0.89,0.084-1.788,0.126-2.694
			c0.134-3.164,0.218-6.429,0.252-9.795c9.25-8.822,25.264-25.726,25.264-37.25C369.343,52.813,351.809,42.27,329.995,37.453z
			 M227.922,162.092c-9.686,6.404-21.664,7.655-32.071,3.399c-6.077-2.501-11.348-5.07-15.201-7.437
			c-1.939-9.77-3.223-20.346-3.878-31.568c-0.034-0.588-0.067-1.175-0.101-1.779c-0.176-3.5-0.311-7.059-0.361-10.685
			c0.731-0.392,1.42-0.828,2.183-1.181c0.948-0.436,1.914-0.848,2.921-1.209c1.553-0.554,3.181-0.982,4.843-1.351
			c1.016-0.235,2.014-0.495,3.064-0.655c1.88-0.277,3.819-0.378,5.766-0.428c0.906-0.025,1.788-0.134,2.703-0.109
			c2.896,0.084,5.825,0.386,8.738,0.99c1.88,0.386,3.727,0.89,5.54,1.477c0.646,0.21,1.267,0.495,1.905,0.73
			c1.158,0.428,2.317,0.848,3.441,1.351c0.739,0.336,1.452,0.747,2.182,1.116c0.99,0.495,1.981,0.982,2.938,1.544
			c0.755,0.445,1.477,0.948,2.207,1.427c0.906,0.588,1.813,1.158,2.686,1.805c0.722,0.529,1.41,1.116,2.115,1.679
			c0.839,0.68,1.687,1.351,2.501,2.09c0.68,0.604,1.318,1.267,1.981,1.914c0.789,0.781,1.578,1.553,2.342,2.384
			c0.621,0.68,1.209,1.402,1.813,2.115c0.739,0.881,1.469,1.763,2.174,2.686c0.571,0.747,1.108,1.528,1.645,2.308
			c0.445,0.629,0.865,1.276,1.284,1.93C242.426,146.942,236.928,156.116,227.922,162.092z M326.933,124.734
			c-0.025,0.588-0.059,1.158-0.092,1.737c-0.655,11.23-1.939,21.806-3.878,31.585c-3.853,2.367-9.124,4.935-15.201,7.437
			c-10.399,4.255-22.394,3.005-32.071-3.399c-9.006-5.976-14.504-15.15-15.36-25.457c0.418-0.655,0.846-1.31,1.291-1.947
			c0.537-0.764,1.066-1.536,1.62-2.275c0.722-0.957,1.486-1.863,2.241-2.77c0.579-0.68,1.142-1.368,1.737-2.023
			c0.797-0.873,1.637-1.695,2.468-2.51c0.613-0.604,1.217-1.217,1.847-1.779c0.873-0.797,1.779-1.519,2.694-2.249
			c0.638-0.512,1.259-1.049,1.914-1.528c0.948-0.705,1.939-1.326,2.921-1.956c0.655-0.428,1.301-0.89,1.981-1.284
			c1.032-0.613,2.107-1.141,3.181-1.679c0.655-0.327,1.293-0.688,1.947-0.99c1.192-0.537,2.417-0.982,3.643-1.427
			c0.579-0.21,1.141-0.47,1.721-0.663c1.821-0.596,3.668-1.091,5.548-1.477c2.929-0.604,5.867-0.898,8.771-0.982
			c0.873-0.025,1.729,0.076,2.602,0.101c1.981,0.05,3.953,0.151,5.859,0.436c1.032,0.159,2.014,0.411,3.013,0.638
			c1.67,0.378,3.315,0.806,4.885,1.368c0.999,0.352,1.947,0.764,2.896,1.2c0.772,0.344,1.461,0.789,2.191,1.183
			C327.251,117.658,327.116,121.226,326.933,124.734z"/>
	</g>
</g>
<g>
	<g>
		<path d="M184.096,218.233c0.336,2.09,0.562,4.222,0.562,6.413c0,3.475-0.68,6.95-1.695,10.374h43.663v-16.787H184.096z"/>
	</g>
</g>
<g>
	<g>
		<rect x="243.411" y="209.84" width="16.787" height="33.574"/>
	</g>
</g>
<g>
	<g>
		<path d="M330.1,251.807h-55.447c-2.913,4.994-8.268,8.393-14.453,8.393h-16.787c-6.186,0-11.541-3.399-14.454-8.393H173.52
			c-52.501,61.835-89.583,112.841-89.583,201.443c0,2.896,1.494,5.582,3.945,7.118c2.829,1.771,70.27,43.243,163.924,43.243
			s161.095-41.472,163.924-43.243c2.451-1.536,3.945-4.222,3.945-7.118C419.675,364.648,382.601,313.641,330.1,251.807z
			 M302.167,285.38c4.633,0,8.393,3.76,8.393,8.393s-3.76,8.393-8.393,8.393s-8.393-3.76-8.393-8.393S297.533,285.38,302.167,285.38
			z M302.167,335.741c4.633,0,8.393,3.76,8.393,8.393s-3.76,8.393-8.393,8.393s-8.393-3.76-8.393-8.393
			S297.533,335.741,302.167,335.741z M302.167,386.102c4.633,0,8.393,3.76,8.393,8.393s-3.76,8.393-8.393,8.393
			s-8.393-3.76-8.393-8.393S297.533,386.102,302.167,386.102z M251.806,310.561c4.633,0,8.393,3.76,8.393,8.393
			s-3.76,8.393-8.393,8.393s-8.393-3.76-8.393-8.393S247.173,310.561,251.806,310.561z M167.872,285.38
			c4.633,0,8.393,3.76,8.393,8.393s-3.76,8.393-8.393,8.393c-4.633,0-8.393-3.76-8.393-8.393S163.238,285.38,167.872,285.38z
			 M151.085,310.561c4.633,0,8.393,3.76,8.393,8.393s-3.76,8.393-8.393,8.393c-4.633,0-8.393-3.76-8.393-8.393
			C142.691,314.321,146.451,310.561,151.085,310.561z M100.724,453.249c-4.633,0-8.393-3.76-8.393-8.393s3.76-8.393,8.393-8.393
			s8.393,3.76,8.393,8.393S105.357,453.249,100.724,453.249z M117.511,428.069c-4.633,0-8.393-3.76-8.393-8.393
			s3.76-8.393,8.393-8.393s8.393,3.76,8.393,8.393S122.144,428.069,117.511,428.069z M117.511,377.707
			c-4.633,0-8.393-3.76-8.393-8.393c-0.001-4.632,3.76-8.393,8.393-8.393s8.393,3.76,8.393,8.393S122.144,377.707,117.511,377.707z
			 M134.298,453.249c-4.633,0-8.393-3.76-8.393-8.393s3.76-8.393,8.393-8.393s8.393,3.76,8.393,8.393
			S138.931,453.249,134.298,453.249z M134.298,402.889c-4.633,0-8.393-3.76-8.393-8.393s3.76-8.393,8.393-8.393
			s8.393,3.76,8.393,8.393S138.931,402.889,134.298,402.889z M134.298,352.527c-4.633,0-8.393-3.76-8.393-8.393
			s3.76-8.393,8.393-8.393s8.393,3.76,8.393,8.393S138.931,352.527,134.298,352.527z M151.085,478.43
			c-4.633,0-8.393-3.76-8.393-8.393s3.76-8.393,8.393-8.393c4.633,0,8.393,3.76,8.393,8.393
			C159.478,474.669,155.717,478.43,151.085,478.43z M151.085,428.068c-4.633,0-8.393-3.76-8.393-8.393
			c-0.001-4.633,3.759-8.393,8.393-8.393c4.633,0,8.393,3.76,8.393,8.393S155.718,428.068,151.085,428.068z M151.085,377.708
			c-4.633,0-8.393-3.76-8.393-8.393s3.76-8.393,8.393-8.393c4.633,0,8.393,3.76,8.393,8.393S155.717,377.708,151.085,377.708z
			 M167.871,335.741c4.633,0,8.393,3.76,8.393,8.393s-3.76,8.393-8.393,8.393c-4.633,0-8.393-3.759-8.393-8.393
			C159.478,339.501,163.238,335.741,167.871,335.741z M176.265,394.495c0,4.633-3.76,8.393-8.393,8.393
			c-4.633,0-8.393-3.76-8.393-8.393s3.759-8.393,8.393-8.393C172.505,386.102,176.265,389.862,176.265,394.495z M167.872,453.249
			c-4.633,0-8.393-3.76-8.393-8.393s3.76-8.393,8.393-8.393c4.633,0,8.393,3.76,8.393,8.393S172.505,453.249,167.872,453.249z
			 M184.658,478.43c-4.633,0-8.393-3.76-8.393-8.393s3.76-8.393,8.393-8.393c4.633,0,8.393,3.76,8.393,8.393
			C193.052,474.669,189.292,478.43,184.658,478.43z M184.658,428.068c-4.633,0-8.393-3.76-8.393-8.393
			c0-4.633,3.76-8.393,8.393-8.393s8.393,3.76,8.393,8.393S189.291,428.068,184.658,428.068z M184.658,377.708
			c-4.633,0-8.393-3.76-8.393-8.393s3.76-8.393,8.393-8.393c4.633,0,8.393,3.76,8.393,8.393
			C193.052,373.948,189.292,377.708,184.658,377.708z M184.658,327.348c-4.633,0-8.393-3.76-8.393-8.393s3.76-8.393,8.393-8.393
			c4.633,0,8.393,3.76,8.393,8.393C193.052,323.587,189.292,327.348,184.658,327.348z M184.658,276.986
			c-4.633,0-8.393-3.76-8.393-8.393s3.76-8.393,8.393-8.393s8.393,3.76,8.393,8.393S189.291,276.986,184.658,276.986z
			 M201.445,453.249c-4.633,0-8.393-3.76-8.393-8.393s3.76-8.393,8.393-8.393c4.633,0,8.393,3.76,8.393,8.393
			S206.078,453.249,201.445,453.249z M201.445,402.888c-4.633,0-8.393-3.76-8.393-8.393s3.76-8.393,8.393-8.393
			s8.393,3.76,8.393,8.393S206.078,402.888,201.445,402.888z M201.445,352.527c-4.633,0-8.393-3.76-8.393-8.393
			s3.76-8.393,8.393-8.393s8.393,3.76,8.393,8.393S206.078,352.527,201.445,352.527z M201.445,302.166
			c-4.633,0-8.393-3.76-8.393-8.393s3.76-8.393,8.393-8.393s8.393,3.76,8.393,8.393S206.078,302.166,201.445,302.166z
			 M218.232,478.43c-4.633,0-8.393-3.76-8.393-8.393s3.76-8.393,8.393-8.393s8.393,3.76,8.393,8.393
			C226.626,474.669,222.865,478.43,218.232,478.43z M218.232,428.068c-4.633,0-8.393-3.76-8.393-8.393s3.76-8.393,8.393-8.393
			s8.393,3.76,8.393,8.393S222.865,428.068,218.232,428.068z M218.232,377.708c-4.633,0-8.393-3.76-8.393-8.393
			s3.76-8.393,8.393-8.393s8.393,3.76,8.393,8.393C226.626,373.948,222.865,377.708,218.232,377.708z M218.232,327.348
			c-4.633,0-8.393-3.76-8.393-8.393s3.76-8.393,8.393-8.393s8.393,3.76,8.393,8.393
			C226.626,323.587,222.865,327.348,218.232,327.348z M218.232,276.986c-4.633,0-8.393-3.76-8.393-8.393s3.76-8.393,8.393-8.393
			s8.393,3.76,8.393,8.393S222.865,276.986,218.232,276.986z M235.019,453.249c-4.633,0-8.393-3.76-8.393-8.393
			s3.76-8.393,8.393-8.393s8.393,3.76,8.393,8.393S239.652,453.249,235.019,453.249z M235.019,402.888
			c-4.633,0-8.393-3.76-8.393-8.393s3.76-8.393,8.393-8.393s8.393,3.76,8.393,8.393S239.652,402.888,235.019,402.888z
			 M235.019,352.527c-4.633,0-8.393-3.76-8.393-8.393s3.76-8.393,8.393-8.393s8.393,3.76,8.393,8.393
			S239.652,352.527,235.019,352.527z M235.019,302.166c-4.633,0-8.393-3.76-8.393-8.393s3.76-8.393,8.393-8.393
			s8.393,3.76,8.393,8.393S239.652,302.166,235.019,302.166z M251.806,478.43c-4.633,0-8.393-3.76-8.393-8.393
			s3.76-8.393,8.393-8.393s8.393,3.76,8.393,8.393C260.199,474.669,256.439,478.43,251.806,478.43z M251.806,428.068
			c-4.633,0-8.393-3.76-8.393-8.393s3.76-8.393,8.393-8.393s8.393,3.76,8.393,8.393S256.439,428.068,251.806,428.068z
			 M251.806,377.708c-4.633,0-8.393-3.76-8.393-8.393s3.76-8.393,8.393-8.393s8.393,3.76,8.393,8.393
			S256.439,377.708,251.806,377.708z M268.592,335.741c4.633,0,8.393,3.76,8.393,8.393s-3.76,8.393-8.393,8.393
			s-8.393-3.759-8.393-8.393C260.199,339.501,263.959,335.741,268.592,335.741z M268.593,453.249c-4.633,0-8.393-3.76-8.393-8.393
			s3.76-8.393,8.393-8.393s8.393,3.76,8.393,8.393S273.226,453.249,268.593,453.249z M268.593,402.888
			c-4.633,0-8.393-3.76-8.393-8.393s3.76-8.393,8.393-8.393s8.393,3.76,8.393,8.393S273.226,402.888,268.593,402.888z
			 M268.593,302.166c-4.633,0-8.393-3.76-8.393-8.393s3.76-8.393,8.393-8.393s8.393,3.76,8.393,8.393
			S273.226,302.166,268.593,302.166z M285.38,478.43c-4.633,0-8.393-3.76-8.393-8.393s3.76-8.393,8.393-8.393
			s8.393,3.76,8.393,8.393C293.773,474.669,290.013,478.43,285.38,478.43z M285.38,428.068c-4.633,0-8.393-3.76-8.393-8.393
			c-0.001-4.633,3.76-8.393,8.393-8.393s8.393,3.76,8.393,8.393S290.013,428.068,285.38,428.068z M285.38,377.708
			c-4.633,0-8.393-3.76-8.393-8.393s3.76-8.393,8.393-8.393s8.393,3.76,8.393,8.393S290.013,377.708,285.38,377.708z
			 M285.38,327.348c-4.633,0-8.393-3.76-8.393-8.393s3.76-8.393,8.393-8.393s8.393,3.76,8.393,8.393
			C293.773,323.587,290.013,327.348,285.38,327.348z M285.38,276.986c-4.633,0-8.393-3.76-8.393-8.393s3.76-8.393,8.393-8.393
			s8.393,3.76,8.393,8.393S290.013,276.986,285.38,276.986z M302.167,453.249c-4.633,0-8.393-3.76-8.393-8.393
			s3.76-8.393,8.393-8.393s8.393,3.76,8.393,8.393S306.8,453.249,302.167,453.249z M318.953,478.43c-4.633,0-8.393-3.76-8.393-8.393
			s3.76-8.393,8.393-8.393s8.393,3.76,8.393,8.393C327.347,474.669,323.587,478.43,318.953,478.43z M318.953,428.068
			c-4.633,0-8.393-3.76-8.393-8.393s3.76-8.393,8.393-8.393s8.393,3.76,8.393,8.393S323.586,428.068,318.953,428.068z
			 M318.953,377.708c-4.633,0-8.393-3.76-8.393-8.393s3.76-8.393,8.393-8.393s8.393,3.76,8.393,8.393
			C327.347,373.948,323.587,377.708,318.953,377.708z M318.953,327.348c-4.633,0-8.393-3.76-8.393-8.393s3.76-8.393,8.393-8.393
			s8.393,3.76,8.393,8.393C327.347,323.587,323.587,327.348,318.953,327.348z M318.953,276.986c-4.633,0-8.393-3.76-8.393-8.393
			s3.76-8.393,8.393-8.393s8.393,3.76,8.393,8.393S323.586,276.986,318.953,276.986z M335.74,453.249
			c-4.633,0-8.393-3.76-8.393-8.393s3.76-8.393,8.393-8.393s8.393,3.76,8.393,8.393S340.374,453.249,335.74,453.249z
			 M335.74,402.888c-4.633,0-8.393-3.76-8.393-8.393s3.76-8.393,8.393-8.393s8.393,3.76,8.393,8.393S340.373,402.888,335.74,402.888
			z M335.74,352.527c-4.633,0-8.393-3.76-8.393-8.393s3.76-8.393,8.393-8.393s8.393,3.76,8.393,8.393
			S340.373,352.527,335.74,352.527z M335.74,302.166c-4.633,0-8.393-3.76-8.393-8.393s3.76-8.393,8.393-8.393
			s8.393,3.76,8.393,8.393S340.373,302.166,335.74,302.166z M352.527,478.43c-4.633,0-8.393-3.76-8.393-8.393
			s3.76-8.393,8.393-8.393s8.393,3.76,8.393,8.393C360.921,474.669,357.16,478.43,352.527,478.43z M352.527,428.068
			c-4.633,0-8.393-3.76-8.393-8.393s3.76-8.393,8.393-8.393s8.393,3.76,8.393,8.393S357.16,428.068,352.527,428.068z
			 M352.527,377.708c-4.633,0-8.393-3.76-8.393-8.393s3.76-8.393,8.393-8.393s8.393,3.76,8.393,8.393
			C360.921,373.948,357.16,377.708,352.527,377.708z M352.527,327.347c-4.633,0-8.393-3.76-8.393-8.393s3.76-8.393,8.393-8.393
			s8.393,3.76,8.393,8.393S357.16,327.347,352.527,327.347z M369.314,453.249c-4.633,0-8.393-3.76-8.393-8.393
			s3.76-8.393,8.393-8.393s8.393,3.76,8.393,8.393S373.947,453.249,369.314,453.249z M369.314,402.888
			c-4.633,0-8.393-3.76-8.393-8.393s3.76-8.393,8.393-8.393s8.393,3.76,8.393,8.393S373.947,402.888,369.314,402.888z
			 M369.314,352.527c-4.633,0-8.393-3.76-8.393-8.393s3.76-8.393,8.393-8.393s8.393,3.76,8.393,8.393
			S373.947,352.527,369.314,352.527z M386.101,428.069c-4.633,0-8.393-3.76-8.393-8.393s3.76-8.393,8.393-8.393
			s8.393,3.76,8.393,8.393S390.734,428.069,386.101,428.069z M386.101,377.707c-4.633,0-8.393-3.76-8.393-8.393
			c0-4.632,3.76-8.393,8.393-8.393s8.393,3.76,8.393,8.393S390.734,377.707,386.101,377.707z M402.888,453.249
			c-4.633,0-8.393-3.76-8.393-8.393s3.76-8.393,8.393-8.393s8.393,3.76,8.393,8.393S407.521,453.249,402.888,453.249z"/>
	</g>
</g>
</svg>