<?xml version="1.0" encoding="iso-8859-1"?>
<!-- Uploaded to: SVG Repo, www.svgrepo.com, Generator: SVG Repo Mixer Tools -->
<svg fill="#000000" height="800px" width="800px" version="1.1" id="Layer_1" xmlns="http://www.w3.org/2000/svg" xmlns:xlink="http://www.w3.org/1999/xlink" 
	 viewBox="0 0 512.005 512.005" xml:space="preserve">
<g transform="translate(0 -1)">
	<g>
		<g>
			<path d="M144.71,233.368l-0.947,2.219c-22.605,53.026-63.898,150.059-66.688,211.251l5.811-1.741
				c1.502-0.401,22.007-5.854,44.988-8.081c0.358-8.303,1.28-17.562,2.731-27.631c0.666-4.651,5.026-7.962,9.66-7.228
				c4.668,0.674,7.902,5.001,7.228,9.66c-1.28,8.875-2.091,16.99-2.466,24.311c8.277-0.051,16.367,0.538,23.492,2.21
				c3.866,0.913,7.851,2.005,11.87,3.157c2.611-23.893,12.186-54.485,22.306-86.673l4.702-15.019
				c1.399-4.497,6.161-7.006,10.684-5.615c4.506,1.4,7.014,6.178,5.615,10.684l-4.719,15.07
				c-10.385,33.058-20.173,64.35-21.914,86.664c2.825,0.913,5.649,1.835,8.457,2.756c18.68,6.11,37.999,12.442,50.492,12.442
				c12.484,0,31.804-6.332,50.492-12.442c2.833-0.93,5.692-1.869,8.559-2.79c-1.237-26.044-9.139-63.326-16.171-93.79
				c-1.058-4.591,1.809-9.173,6.4-10.232c4.574-1.067,9.165,1.809,10.232,6.4c9.719,42.095,14.891,71.33,16.367,92.467
				c3.925-1.126,7.825-2.193,11.614-3.081c7.091-1.664,15.147-2.253,23.398-2.21c-1.621-21.478-8.823-52.079-21.47-91.187
				c-1.451-4.48,1.007-9.293,5.495-10.735c4.506-1.451,9.293,1.007,10.735,5.487c13.44,41.549,20.915,74.172,22.357,97.314
				c22.997,2.21,43.52,7.654,44.868,8.021l6.042,1.809c-2.867-62.199-46.02-163.652-67.183-213.333l-0.06-0.128v-0.009
				c-6.033-14.14-9.088-29.124-9.088-44.535v-2.944c0-13.474,3.49-27.529,10.684-42.965c11.204-24.055,7.799-59.042-17.297-75.955
				c-5.461-3.661-12.194-5.436-19.533-5.948c4.463-14.831,9.737-23.296,18.688-37.453c1.843-2.927,3.831-6.067,5.982-9.532
				c2.483-4.011,1.254-9.267-2.748-11.75c-4.011-2.492-9.267-1.237-11.75,2.748c-2.125,3.43-4.087,6.528-5.905,9.412
				c-10.249,16.196-16.751,26.633-22.238,47.497c-22.528,3.55-46.447,14.669-58.283,22.426
				c-11.913-7.799-36.045-19.038-58.692-22.519c-5.478-20.796-11.981-31.232-22.204-47.403c-1.826-2.884-3.789-5.982-5.914-9.412
				c-2.483-3.985-7.74-5.239-11.75-2.748c-4.002,2.483-5.231,7.74-2.748,11.75c2.15,3.465,4.139,6.605,5.982,9.532
				c8.96,14.157,14.234,22.622,18.688,37.461c-7.185,0.555-13.781,2.33-19.157,5.948c-25.097,16.905-28.501,51.891-17.297,75.947
				c7.194,15.445,10.692,29.508,10.692,42.965v2.944C153.798,204.227,150.743,219.211,144.71,233.368z M312.543,232.028
				c4.369-1.775,9.335,0.333,11.102,4.71c9.907,24.474,18.756,47.556,26.274,68.599c1.596,4.437-0.725,9.327-5.154,10.906
				c-0.947,0.341-1.929,0.503-2.876,0.503c-3.499,0-6.784-2.176-8.03-5.658c-7.45-20.83-16.213-43.691-26.027-67.951
				C306.067,238.769,308.174,233.794,312.543,232.028z M217.465,305.918c8.832-31.838,12.945-55.518,12.945-74.513
				c0-4.719,3.814-8.533,8.533-8.533c4.71,0,8.533,3.814,8.533,8.533c0,20.582-4.309,45.705-13.56,79.078
				c-1.05,3.78-4.489,6.255-8.218,6.255c-0.759,0-1.527-0.102-2.295-0.307C218.865,315.168,216.202,310.458,217.465,305.918z
				 M162.673,288.177c1.63-4.42,6.554-6.69,10.957-5.043c4.429,1.638,6.682,6.545,5.043,10.957
				c-10.24,27.708-19.217,58.146-25.267,85.692c-0.87,3.985-4.403,6.707-8.32,6.707c-0.614,0-1.229-0.068-1.843-0.205
				c-4.599-1.007-7.509-5.555-6.502-10.163C142.952,347.834,152.159,316.602,162.673,288.177z"/>
			<path d="M347.415,454.953c-6.016,1.417-12.399,3.251-18.876,5.257c-1.365,0.922-2.918,1.596-4.693,1.596
				c-0.077,0-0.145-0.043-0.222-0.051c-3.942,1.263-7.902,2.543-11.819,3.823c-20.864,6.835-40.585,13.295-55.799,13.295
				c-15.215,0-34.935-6.46-55.799-13.295c-3.917-1.28-7.868-2.56-11.819-3.823c-0.077,0.009-0.145,0.051-0.222,0.051
				c-1.775,0-3.328-0.674-4.693-1.596c-6.477-2.005-12.86-3.84-18.867-5.257c-27.853-6.562-76.561,6.426-77.047,6.562l-8.337,2.5
				c14.848,32.205,96.265,48.99,176.785,48.99s161.929-16.785,176.785-48.99l-8.567-2.569
				C423.967,461.387,375.148,448.425,347.415,454.953z"/>
		</g>
	</g>
</g>
</svg>