<?xml version="1.0" encoding="iso-8859-1"?>
<!-- Uploaded to: SVG Repo, www.svgrepo.com, Generator: SVG Repo Mixer Tools -->
<svg fill="#000000" height="800px" width="800px" version="1.1" id="Layer_1" xmlns="http://www.w3.org/2000/svg" xmlns:xlink="http://www.w3.org/1999/xlink" 
	 viewBox="0 0 512 512" xml:space="preserve">
<g transform="translate(-1 -1)">
	<g>
		<g>
			<path d="M149.418,84.883c18.56,32.077,18.85,72.149,0.759,104.602c-1.365,2.458-2.842,5.146-4.292,7.782h222.174
				c-1.451-2.637-2.918-5.325-4.292-7.791c-18.091-32.444-17.8-72.516,0.768-104.593c1.425-2.475,2.842-4.804,4.215-7.006
				c8.576-13.696,9.967-30.72,3.721-45.534c-6.28-14.891-18.952-25.404-34.782-28.843C326.297,1.026,317.098,1,316.706,1
				c-33.545,0-50.987,10.556-59.733,19.439C248.234,11.556,230.784,1,197.239,1c-0.384,0-9.583,0.026-20.975,2.5
				c-15.829,3.439-28.51,13.952-34.79,28.843c-6.238,14.814-4.847,31.838,3.729,45.542
				C146.577,80.078,147.993,82.408,149.418,84.883z M257.049,60.733c4.71,0,8.533,3.823,8.533,8.533s-3.823,8.533-8.533,8.533
				c-4.71,0-8.533-3.823-8.533-8.533S252.339,60.733,257.049,60.733z M257.049,94.867c4.71,0,8.533,3.823,8.533,8.533
				c0,4.71-3.823,8.533-8.533,8.533c-4.71,0-8.533-3.823-8.533-8.533C248.516,98.69,252.339,94.867,257.049,94.867z M257.049,129
				c4.71,0,8.533,3.823,8.533,8.533c0,4.71-3.823,8.533-8.533,8.533c-4.71,0-8.533-3.823-8.533-8.533
				C248.516,132.823,252.339,129,257.049,129z M257.049,163.133c4.71,0,8.533,3.823,8.533,8.533c0,4.71-3.823,8.533-8.533,8.533
				c-4.71,0-8.533-3.823-8.533-8.533C248.516,166.956,252.339,163.133,257.049,163.133z"/>
			<path d="M461.797,444.384c-0.171-59.426-44.425-155.358-84.437-230.05H265.949c3.831,109.56,80.486,203.725,189.363,230.647
				l6.468,1.946C461.84,445.877,461.84,444.972,461.797,444.384z"/>
			<path d="M265.582,298.472v120.661c0,4.719-3.823,8.533-8.533,8.533c-4.71,0-8.533-3.814-8.533-8.533V298.318
				C218.341,377.67,150.271,439.929,62.83,461.553l-5.043,1.51c1.135,1.801,2.406,3.644,4.036,5.555
				C78.139,487.75,122.264,510.986,239.837,513h0.222c9.207,0,11.785-9.702,16.435-27.196c0.162-0.631,0.341-1.297,0.529-1.997
				c0.188,0.708,0.367,1.382,0.538,2.005c4.668,17.485,7.262,27.187,16.461,27.187h0.239
				c117.513-2.031,161.613-25.259,177.92-44.382c1.621-1.911,2.901-3.755,4.028-5.555l-5.393-1.621
				C363.724,439.912,295.764,377.738,265.582,298.472z"/>
			<path d="M248.096,214.333H136.634c-39.953,74.564-84.258,170.581-84.437,230.05c-0.034,0.589-0.034,1.493,0.017,2.543
				l6.118-1.835C167.601,418.058,244.273,323.893,248.096,214.333z"/>
		</g>
	</g>
</g>
</svg>