<?xml version="1.0" encoding="utf-8"?>

<!DOCTYPE svg PUBLIC "-//W3C//DTD SVG 1.1//EN" "http://www.w3.org/Graphics/SVG/1.1/DTD/svg11.dtd">
<!-- Uploaded to: SVG Repo, www.svgrepo.com, Generator: SVG Repo Mixer Tools -->
<svg height="800px" width="800px" version="1.1" id="_x32_" xmlns="http://www.w3.org/2000/svg" xmlns:xlink="http://www.w3.org/1999/xlink" 
	 viewBox="0 0 512 512"  xml:space="preserve">
<style type="text/css">
	.st0{fill:#000000;}
</style>
<g>
	<path class="st0" d="M244.582,172.163h22.838c2.371,20.538,19.62,36.525,40.798,36.534c22.786-0.009,41.265-18.47,41.265-41.274
		c0-22.796-18.479-41.265-41.265-41.265c-19.932,0-36.56,14.109-40.418,32.891h-23.6c-3.876-18.782-20.486-32.891-40.418-32.891
		c-22.804,0-41.265,18.469-41.265,41.265c0,22.804,18.462,41.265,41.265,41.274C224.961,208.688,242.193,192.701,244.582,172.163z
		 M308.218,139.272c15.537,0.035,28.116,12.614,28.15,28.151c-0.034,15.546-12.613,28.124-28.15,28.159
		c-15.555-0.035-28.133-12.613-28.168-28.159C280.085,151.886,292.664,139.306,308.218,139.272z M175.633,167.423
		c0.034-15.537,12.613-28.116,28.15-28.151c15.555,0.035,28.133,12.614,28.15,28.151c-0.017,15.546-12.595,28.124-28.15,28.159
		C188.246,195.547,175.668,182.969,175.633,167.423z"/>
	<path class="st0" d="M454.887,392.989c-11.229-20.598-28.86-33.22-46.023-41.637c-17.182-8.418-34.362-13.028-45.539-17.233
		c-11.039-4.084-21.852-5.277-28.636-7.137c-3.373-0.848-5.519-1.93-5.951-2.353l-0.087-0.078l-0.034-0.441c0-1.964,0-2.872,0-3.313
		v-0.381c0-0.537,0-1.808,0-4.42c11.748-13.072,28.531-33.367,35.538-65.341c2.353-1.082,4.672-2.302,6.938-3.876
		c5.849-4.048,10.832-9.931,15.001-17.847c4.204-7.95,7.907-18.072,11.852-31.879c2.006-7.042,2.941-13.175,2.958-18.66
		c0-6.324-1.297-11.861-3.72-16.359c-3.633-6.844-9.516-10.658-14.274-12.38c-0.346-0.13-0.657-0.19-0.986-0.303
		c0-7.604,0-19.344,0-30.14c-0.052-16.437-3.634-45.47-21.489-71.544c-8.945-12.976-21.576-25.071-38.791-33.739
		C304.446,5.234,282.784,0,256,0C229.2,0,207.555,5.234,190.34,13.928c-25.866,13.02-41.196,33.679-49.657,53.602
		c-8.529,19.984-10.589,39.31-10.606,51.681c0,10.796,0,22.553,0,30.158c-1.904,0.64-3.893,1.454-6.004,2.742
		c-3.408,2.102-6.868,5.406-9.256,9.923c-2.422,4.498-3.72,10.035-3.72,16.359c0,5.484,0.951,11.618,2.959,18.66
		c5.277,18.392,10.053,30.304,16.281,39.12c3.132,4.386,6.696,7.916,10.571,10.606c2.249,1.574,4.585,2.794,6.938,3.876
		c6.99,31.974,23.79,52.269,35.539,65.341c0,2.621,0,3.901,0,4.429v0.182v0.19c0,0.432,0,1.34,0,3.313l-0.034,0.354
		c-0.036,0.087-0.813,0.813-2.734,1.592c-2.873,1.229-7.838,2.336-13.462,3.435c-5.657,1.142-12.007,2.353-18.306,4.558
		c-7.561,2.674-17.786,5.624-28.825,9.75c-16.523,6.212-35.122,15.122-49.881,30.927c-14.81,15.762-25.036,38.575-24.932,69.528
		c0,4.274,0.19,8.712,0.571,13.314c0.276,3.088,1.436,5.554,2.768,7.535c2.526,3.711,5.744,6.324,9.706,8.997
		c6.92,4.585,16.367,8.98,28.444,13.306C122.776,500.27,182.277,511.983,256,512c59.899,0,110.473-7.768,146.617-17.552
		c18.098-4.905,32.562-10.278,43.099-15.693c5.295-2.734,9.602-5.442,13.098-8.486c1.73-1.54,3.304-3.166,4.637-5.165
		c1.315-1.981,2.491-4.447,2.768-7.535c0.381-4.594,0.57-9.014,0.57-13.27C466.808,423.656,462.361,406.674,454.887,392.989z
		 M165.806,241.89l-0.986-5.58l-5.33-1.903c-3.097-1.108-5.433-2.224-7.457-3.634c-2.976-2.102-5.692-4.965-8.911-10.986
		c-3.2-5.978-6.609-14.984-10.329-28.081c-1.626-5.693-2.214-10.088-2.197-13.314c0-3.755,0.71-5.874,1.402-7.172
		c1.038-1.886,2.249-2.647,3.91-3.313c1.349-0.528,2.785-0.666,3.339-0.684l10.312,1.176v-10.917c0,0,0-20.502,0-38.272
		c-0.052-13.634,3.374-39.336,18.064-60.48c7.336-10.623,17.353-20.252,31.506-27.406c14.154-7.137,32.58-11.826,56.872-11.834
		c24.292,0.008,42.719,4.697,56.872,11.834c21.16,10.71,33.306,27.07,40.522,43.869c7.18,16.732,9.066,33.835,9.031,44.017
		c0,17.77,0,38.272,0,38.272v10.312l10.07-0.572c0.277-0.051,3.322,0.208,5.121,1.427c0.934,0.606,1.679,1.272,2.388,2.57
		c0.674,1.298,1.402,3.417,1.402,7.172c0,3.226-0.572,7.621-2.198,13.314c-4.965,17.483-9.412,27.605-13.408,33.142
		c-2.008,2.794-3.824,4.516-5.848,5.926c-2.008,1.41-4.343,2.526-7.44,3.634l-5.347,1.903l-0.986,5.58
		c-5.727,32.121-22.25,50.15-34.552,63.853l-2.491,2.777v3.746c0,5.312,0,7.405,0,8.149c0,0.086,0,0.138,0,0.138
		c0,0.173,0,0.243,0,0.243v0.329c0,0.545,0,1.462,0,2.984c-0.018,3.019,0.588,6.116,1.921,8.875c2.353,4.923,6.47,8.02,10.277,9.854
		c1.004,0.484,2.024,0.848,3.028,1.238c-1.643,9.403-5.934,18.937-13.824,26.74c-10.434,10.321-27.389,18.133-54.536,18.167
		c-27.146-0.034-44.12-7.846-54.553-18.167c-7.837-7.768-12.146-17.242-13.807-26.61c2.596-1.038,5.157-2.344,7.613-4.273
		c2.128-1.696,4.153-3.962,5.537-6.739c1.401-2.768,2.093-5.961,2.076-9.084c0-1.973,0-2.881,0-3.313c0-0.234,0-0.372,0-0.372
		c0-0.744,0-2.83,0-8.158v-3.746l-2.509-2.777C188.056,292.04,171.549,274.011,165.806,241.89z M446.842,454.756
		c-0.588,0.632-1.868,1.808-3.823,3.071c-4.776,3.201-13.115,7.25-24.172,11.186c-33.271,11.939-91.199,23.522-162.846,23.504
		c-58.186,0-107.272-7.604-141.53-16.886c-17.112-4.62-30.556-9.706-39.276-14.205c-4.344-2.224-7.51-4.344-9.153-5.805
		c-0.399-0.338-0.675-0.632-0.9-0.857c-0.26-3.642-0.45-7.18-0.45-10.511c0.018-17.916,3.737-31.412,9.516-42.087
		c8.652-15.969,22.337-26.169,37.425-33.618c15.07-7.422,31.126-11.714,43.687-16.117c5.692-2.05,13.045-3.244,20.382-4.827
		c2.214,11.212,7.508,22.588,17.008,32.018c13.098,13.02,33.808,21.8,63.29,21.766c29.483,0.035,50.176-8.746,63.274-21.766
		c9.585-9.499,14.897-20.988,17.077-32.286c0.918,0.19,1.834,0.381,2.752,0.572c6.021,1.211,12.077,2.456,17.388,4.464
		c8.426,3.14,18.322,6.074,28.513,9.932c15.312,5.778,31.005,13.573,42.563,25.935c11.506,12.406,19.638,29.189,19.724,56.059
		C447.292,447.602,447.118,451.132,446.842,454.756z"/>
	<path class="st0" d="M232.712,233.213c1.661-2.231,0.329-4.93-2.993-6.047c-3.322-1.116-7.353-0.216-9.014,2.016l-26.628,35.745
		c-1.661,2.232-0.312,4.932,2.993,6.047c3.322,1.116,7.354,0.216,9.015-2.007L232.712,233.213z"/>
</g>
</svg>