<?xml version="1.0" encoding="iso-8859-1"?>
<!-- Uploaded to: SVG Repo, www.svgrepo.com, Generator: SVG Repo Mixer Tools -->
<svg fill="#000000" height="800px" width="800px" version="1.1" id="Layer_1" xmlns="http://www.w3.org/2000/svg" xmlns:xlink="http://www.w3.org/1999/xlink" 
	 viewBox="0 0 480 480" xml:space="preserve">
<g>
	<g>
		<path d="M472,304h-88c-13.232,0-24,10.768-24,24h-9.76c-11.864-20.256-29.192-36.76-50.528-47.832
			c-3.928-2.04-8.768-0.504-10.792,3.416c-2.032,3.92-0.504,8.752,3.416,10.792c15.704,8.152,28.92,19.664,38.888,33.632H320
			c-3.648,0-6.592,2.48-7.56,5.816l-64.216-15.016c-4.896-1.144-9.904-0.744-14.552,1.152l-62.64,25.608
			c-8.088,3.312-14.008,10.008-16.416,18.088l-22.128-6.688c8.712-27.264,28.44-50.248,55.072-63.48
			c3.952-1.968,5.568-6.768,3.6-10.728c-1.968-3.952-6.752-5.568-10.728-3.6c-30.584,15.2-53.256,41.704-63.24,73.184L32.384,326.72
			c-7.376-2.216-15.816-0.864-21.976,3.696C4.248,334.992,0,342.016,0,349.688v17.88c0,8.04,4.704,15.504,11.4,19.968l89.232,59.248
			c0.8,0.528,1.856,0.912,2.784,1.136l132.416,31.136c1.8,0.424,3.704,0.632,5.552,0.632c1.848,0,3.736-0.208,5.536-0.632
			l69.016-16.312c1.208,0.728,2.552,1.256,4.064,1.256h41.472c3.312,9.288,12.112,16,22.528,16h88c4.424,0,8-3.576,8-8V312
			C480,307.576,476.424,304,472,304z M312,447.232l-68.736,16.24c-1.2,0.296-2.472,0.28-3.672,0l-130.928-30.8L20.28,374.224
			c-2.24-1.48-4.28-3.976-4.28-6.656v-17.88c0-2.552,1.896-4.896,3.952-6.424c2.048-1.528,5-1.968,7.44-1.232l127.2,38.376
			c3.664,11.352,14.56,19.592,27.16,19.592h59.68c4.424,0,8-3.576,8-8s-3.576-8-8-8h-59.68c-6.8,0-12.32-5.472-12.32-12.216
			c0-5.024,3.008-9.504,7.664-11.408l62.624-25.608c1.544-0.624,3.208-0.768,4.856-0.384L312,350.144V447.232z M360,448h-31.08
			l0.512-103.832c0-0.064-0.024-0.112-0.032-0.168H360V448z M464,464h-80c-4.416,0-8-3.584-8-8V336v-8c0-4.416,3.584-8,8-8h80V464z"
			/>
	</g>
</g>
<g>
	<g>
		<path d="M433.432,432h-24c-4.424,0-8,3.576-8,8s3.576,8,8,8h24c4.424,0,8-3.576,8-8S437.856,432,433.432,432z"/>
	</g>
</g>
<g>
	<g>
		<path d="M344,103.336C343.632,46.656,297.048,0,240.008,0c-0.224,0-0.456,0-0.672,0c-27.768,0-53.808,11.872-73.32,31.472
			C146.488,51.088,135.824,77.48,136,105.064c0.352,54.016,42.72,98.312,96.08,102.336c-0.008,0.144-0.08,0.456-0.08,0.6v24.768
			c-13.56-10.816-30.72-11.904-40.832-1.792c-11.104,11.104-8.848,30.752,5.128,44.728c8.008,8.016,17.88,12.168,26.944,12.168
			c3.056,0,5.992-0.544,8.76-1.496V296c0,4.424,3.576,8,8,8s8-3.576,8-8v-10.304c3.184,1.352,6.704,2.112,10.44,2.112
			c1.536,0,3.12-0.128,4.712-0.368c7.984-1.224,15.864-5.392,22.208-11.736c13.976-13.976,16.224-33.624,5.128-44.728
			c-5.528-5.544-13.704-7.952-22.504-6.608c-7.096,1.088-14.048,4.608-19.976,9.808V208c0-0.144-0.072-0.256-0.08-0.4
			c25.024-1.864,48.264-12.792,66.064-30.672C333.52,157.312,344.176,130.912,344,103.336z M229.712,269.512
			c-4.016,4-14.088,2.896-22.104-5.128c-8.024-8.024-9.144-18.088-5.128-22.104c1.48-1.48,3.768-2.256,6.48-2.256
			c4.664,0,10.544,2.312,15.624,7.384C232.6,255.44,233.72,265.504,229.712,269.512z M257.08,247.416
			c3.896-3.888,8.752-6.528,13.32-7.232c0.648-0.096,1.456-0.184,2.352-0.184c2.08,0,4.592,0.464,6.424,2.288
			c4.016,4.016,2.896,14.08-5.128,22.104c-3.896,3.888-8.752,6.528-13.32,7.232c-2.16,0.32-6.168,0.496-8.776-2.112
			C247.936,265.504,249.056,255.44,257.08,247.416z M240.568,192c-0.192,0-0.384,0-0.576,0c-48.256,0-87.68-38.752-87.992-86.64
			c-0.152-23.272,8.848-46.024,25.352-62.6C193.864,26.168,215.912,16,239.432,16c0.192,0,0.384,0,0.576,0
			c48.256,0,87.68,39.552,87.992,87.44c0.16,23.272-8.848,45.624-25.352,62.2C286.136,182.232,264.088,191.848,240.568,192z"/>
	</g>
</g>
<g>
	<g>
		<path d="M272.352,119.784C272.28,106.584,261.52,96,248.36,96c-0.056,0-0.104,0-0.16,0h-15.992c-0.024,0-0.04,0-0.056,0
			c-4.392,0-7.976-3.608-8-8l-0.056-8.016c-0.032-4.416,3.536-8.04,7.944-8.064l7.32-0.056c0.256,0.016,0.48,0.136,0.744,0.136
			c0.016,0,0.032,0,0.048,0c0.272,0,0.496-0.128,0.752-0.16l23.144-0.144c4.424-0.032,7.984-3.48,7.952-7.896
			c-0.032-4.408-3.6-7.8-8-7.8c-0.016,0-0.032,0-0.048,0l-15.904-0.048L248,48.024c-0.032-4.4-3.6-8.024-8-8.024
			c-0.016,0-0.032,0-0.056,0c-4.416,0.032-7.976,3.68-7.944,8.104L232.048,56h-0.096c-13.232,0-23.928,10.864-23.848,24.104
			l0.056,7.968c0.08,13.24,10.568,23.944,24.16,23.944L248.304,112c0.024,0,0.04,0,0.056,0c2.12,0,4.112,0.72,5.624,2.2
			c1.512,1.504,2.36,3.456,2.376,5.592l0.048,7.984c0.016,2.144-0.808,4.136-2.304,5.656c-1.504,1.512-3.504,2.352-5.648,2.368
			l-31.984,0.2c-4.424,0.032-7.984,3.632-7.952,8.056c0.032,4.4,3.6,7.944,8,7.944c0.016,0,0.032,0,0.056,0l15.48-0.096l0.048,8.152
			c0.032,4.4,3.6,7.944,8,7.944c0.016,0,0.032,0,0.048,0c4.424-0.032,7.984-3.536,7.952-7.952L248.048,152h0.504
			c6.416,0,12.432-2.68,16.936-7.24c4.496-4.56,6.96-10.656,6.912-17.056L272.352,119.784z"/>
	</g>
</g>
<g>
	<g>
		<path d="M440,48h-16V32c0-4.424-3.576-8-8-8s-8,3.576-8,8v16h-16c-4.424,0-8,3.576-8,8s3.576,8,8,8h16v16c0,4.424,3.576,8,8,8
			s8-3.576,8-8V64h16c4.424,0,8-3.576,8-8S444.424,48,440,48z"/>
	</g>
</g>
<g>
	<g>
		<path d="M401.432,216h-32c-4.424,0-8,3.576-8,8s3.576,8,8,8h32c4.424,0,8-3.576,8-8S405.856,216,401.432,216z"/>
	</g>
</g>
<g>
	<g>
		<path d="M449.432,216h-16c-4.424,0-8,3.576-8,8s3.576,8,8,8h16c4.424,0,8-3.576,8-8S453.856,216,449.432,216z"/>
	</g>
</g>
<g>
	<g>
		<path d="M52,24c-15.44,0-28,12.56-28,28s12.56,28,28,28s28-12.56,28-28S67.44,24,52,24z M52,64c-6.616,0-12-5.384-12-12
			c0-6.616,5.384-12,12-12s12,5.384,12,12C64,58.616,58.616,64,52,64z"/>
	</g>
</g>
<g>
	<g>
		<circle cx="184" cy="112" r="8"/>
	</g>
</g>
<g>
	<g>
		<circle cx="296" cy="112" r="8"/>
	</g>
</g>
</svg>