<?xml version="1.0" encoding="iso-8859-1"?>
<!-- Uploaded to: SVG Repo, www.svgrepo.com, Generator: SVG Repo Mixer Tools -->
<svg fill="#000000" height="800px" width="800px" version="1.1" id="Layer_1" xmlns="http://www.w3.org/2000/svg" xmlns:xlink="http://www.w3.org/1999/xlink" 
	 viewBox="0 0 376.307 376.307" xml:space="preserve">
<g>
	<g>
		<path d="M188.121,88.566c-6.012,0-10.99-4.978-10.99-10.99c0-6.141,4.978-10.99,10.99-10.99c6.012,0,10.99,4.978,10.99,10.99
			c0,5.818,4.719,10.408,10.408,10.408s10.408-4.719,10.408-10.408c0-13.899-8.986-25.729-21.398-30.061v-3.426
			c0-5.818-4.719-10.408-10.408-10.408c-5.818,0-10.408,4.719-10.408,10.408v3.426c-12.412,4.331-21.398,16.162-21.398,30.061
			c0,17.519,14.287,31.935,31.935,31.935c6.012,0,10.99,4.913,10.99,10.99c0,6.012-4.913,10.99-10.99,10.99
			c-6.012,0-10.99-4.913-10.99-10.99c0-5.818-4.719-10.408-10.408-10.408s-10.408,4.719-10.408,10.408
			c0,13.899,8.986,25.729,21.398,30.061v3.426c0,5.818,4.719,10.408,10.408,10.408c5.818,0,10.408-4.719,10.408-10.408v-3.426
			c12.412-4.331,21.398-16.162,21.398-30.061C220.057,102.982,205.77,88.566,188.121,88.566z"/>
	</g>
</g>
<g>
	<g>
		<path d="M338.618,158.125c-59.992,0-112.42,32.97-140.089,81.842v-42.667c49.713-5.236,88.501-47.386,88.501-98.392
			C287.03,44.347,242.683,0,188.121,0C133.56,0,89.212,44.347,89.212,98.909c0,51.006,38.788,93.091,88.501,98.263v42.731
			c-27.669-48.679-80.097-81.778-140.089-81.778c-5.818,0-10.408,4.719-10.408,10.408c0,85.204,66.586,155.216,150.497,160.582
			v36.784c0,5.818,4.719,10.408,10.408,10.408c5.818,0,10.408-4.719,10.408-10.408V329.18
			c83.911-5.366,150.562-75.313,150.562-160.517C349.091,162.844,344.436,158.125,338.618,158.125z M48.485,179.459
			c68.59,5.236,123.475,60.186,128.84,128.84C108.671,302.998,53.721,248.048,48.485,179.459z M188.121,176.873
			c-43.055,0-77.964-34.974-77.964-77.964c0-43.055,34.974-77.964,77.964-77.964c43.055,0,77.964,34.974,77.964,77.964
			C266.085,141.964,231.176,176.873,188.121,176.873z M199.046,308.299c5.236-68.59,60.186-123.475,128.84-128.84
			C322.521,248.048,267.572,302.998,199.046,308.299z"/>
	</g>
</g>
</svg>