<?xml version="1.0" encoding="iso-8859-1"?>
<!-- Uploaded to: SVG Repo, www.svgrepo.com, Generator: SVG Repo Mixer Tools -->
<svg fill="#000000" version="1.1" id="Layer_1" xmlns="http://www.w3.org/2000/svg" xmlns:xlink="http://www.w3.org/1999/xlink" 
	 viewBox="0 0 496 496" xml:space="preserve">
<g>
	<g>
		<g>
			<path d="M480,296v-8h-40c-9.04,0-17.296,3.128-24,8.208V240h24c22.056,0,40-17.944,40-40v-8h-40c-9.04,0-17.296,3.128-24,8.208
				V144h24c22.056,0,40-17.944,40-40v-8h-40c-9.04,0-17.296,3.128-24,8.208V60.28l11.16-7.44c8.04-5.36,12.84-14.336,12.84-24
				C440,12.936,427.064,0,411.16,0h-6.312C388.936,0,376,12.936,376,28.84c0,9.664,4.8,18.632,12.84,24L400,60.28v43.928
				C393.296,99.128,385.04,96,376,96h-40v8c0,22.056,17.944,40,40,40h24v56.208c-6.704-5.08-14.96-8.208-24-8.208h-40v8
				c0,22.056,17.944,40,40,40h24v56.208c-6.704-5.08-14.96-8.208-24-8.208h-40v8c0,22.056,17.944,40,40,40h24v144H256v-96h24
				c22.056,0,40-17.944,40-40v-8h-40c-9.04,0-17.296,3.128-24,8.208V288h24c22.056,0,40-17.944,40-40v-8h-40
				c-9.04,0-17.296,3.128-24,8.208V192h24c22.056,0,40-17.944,40-40v-8h-40c-13.128,0-24.704,6.448-32,16.248
				c-7.296-9.8-18.872-16.248-32-16.248h-40v8c0,22.056,17.944,40,40,40h24v56.208c-6.704-5.08-14.96-8.208-24-8.208h-40v8
				c0,22.056,17.944,40,40,40h24v56.208c-6.704-5.08-14.96-8.208-24-8.208h-40v8c0,22.056,17.944,40,40,40h24v96H96v-48h24
				c22.056,0,40-17.944,40-40v-8h-40c-9.04,0-17.296,3.128-24,8.208V336h24c22.056,0,40-17.944,40-40v-8h-40
				c-13.128,0-24.704,6.448-32,16.248C80.704,294.448,69.128,288,56,288H16v8c0,22.056,17.944,40,40,40h24v56.208
				C73.296,387.128,65.04,384,56,384H16v8c0,22.056,17.944,40,40,40h24v48H0v16h464v-16h-48V336h24C462.056,336,480,318.056,480,296
				z M440,208h22.632c-3.304,9.312-12.2,16-22.632,16h-22.632C420.672,214.688,429.568,208,440,208z M440,112h22.632
				c-3.304,9.312-12.2,16-22.632,16h-22.632C420.672,118.688,429.568,112,440,112z M376,128c-10.432,0-19.328-6.688-22.632-16H376
				c10.432,0,19.328,6.688,22.632,16H376z M376,224c-10.432,0-19.328-6.688-22.632-16H376c10.432,0,19.328,6.688,22.632,16H376z
				 M376,320c-10.432,0-19.328-6.688-22.632-16H376c10.432,0,19.328,6.688,22.632,16H376z M280,352h22.632
				c-3.304,9.312-12.2,16-22.632,16h-22.632C260.672,358.688,269.568,352,280,352z M280,256h22.632c-3.304,9.312-12.2,16-22.632,16
				h-22.632C260.672,262.688,269.568,256,280,256z M280,160h22.632c-3.304,9.312-12.2,16-22.632,16h-22.632
				C260.672,166.688,269.568,160,280,160z M216,176c-10.432,0-19.328-6.688-22.632-16H216c10.432,0,19.328,6.688,22.632,16H216z
				 M216,272c-10.432,0-19.328-6.688-22.632-16H216c10.432,0,19.328,6.688,22.632,16H216z M216,368
				c-10.432,0-19.328-6.688-22.632-16H216c10.432,0,19.328,6.688,22.632,16H216z M120,400h22.632c-3.304,9.312-12.2,16-22.632,16
				H97.368C100.672,406.688,109.568,400,120,400z M120,304h22.632c-3.304,9.312-12.2,16-22.632,16H97.368
				C100.672,310.688,109.568,304,120,304z M56,320c-10.432,0-19.328-6.688-22.632-16H56c10.432,0,19.328,6.688,22.632,16H56z
				 M56,416c-10.432,0-19.328-6.688-22.632-16H56c10.432,0,19.328,6.688,22.632,16H56z M408,46.384l-10.28-6.856
				c-3.584-2.384-5.72-6.376-5.72-10.688c0-7.08,5.76-12.84,12.84-12.84h6.312C418.24,16,424,21.76,424,28.84
				c0,4.304-2.136,8.304-5.72,10.688L408,46.384z M440,320h-22.632c3.304-9.312,12.2-16,22.632-16h22.632
				C459.328,313.312,450.432,320,440,320z"/>
			<rect x="480" y="480" width="16" height="16"/>
			<rect x="48" y="448" width="16" height="16"/>
			<rect x="112" y="448" width="16" height="16"/>
			<rect x="208" y="448" width="16" height="16"/>
			<rect x="272" y="448" width="16" height="16"/>
			<rect x="368" y="448" width="16" height="16"/>
			<rect x="432" y="448" width="16" height="16"/>
		</g>
	</g>
</g>
</svg>