<?xml version="1.0" encoding="utf-8"?><!-- Uploaded to: SVG Repo, www.svgrepo.com, Generator: SVG Repo Mixer Tools -->
<svg fill="#000000" width="800px" height="800px" viewBox="0 0 1024 1024" xmlns="http://www.w3.org/2000/svg"><path d="M538.767 54.355c-16.892-8.287-36.633-8.287-53.346-.094L66.969 264.053H957.03L538.767 54.354zM890.99 307.2h-82.14c.073.694.11 1.396.11 2.106V880.64h81.92V309.306c0-.71.037-1.413.11-2.106zm50.98 0c.073.694.11 1.396.11 2.106V880.64h46.199c19.725 0 35.721 16.05 35.721 35.84v71.68c0 19.79-15.996 35.84-35.721 35.84H35.721C15.996 1024 0 1007.95 0 988.16v-71.68c0-19.79 15.996-35.84 35.721-35.84H81.92V309.306c0-.71.037-1.413.11-2.106H38.822c-41.08 0-53.924-55.896-17.084-74.089L464.925 10.919c29.722-14.574 64.44-14.574 94.336.094l442.887 222.044c36.97 18.132 24.167 74.144-16.961 74.144H941.97zm-399.36 0c.073.694.11 1.396.11 2.106V880.64h81.92V309.306c0-.71.037-1.413.11-2.106h-82.14zm-50.98 0h-85.553c.073.694.11 1.396.11 2.106V880.64h85.333V309.306c0-.71.037-1.413.11-2.106zm184.1 0c.073.694.11 1.396.11 2.106V880.64h81.92V309.306c0-.71.037-1.413.11-2.106h-82.14zm-406.187 0c.073.694.11 1.396.11 2.106V880.64h85.333V309.306c0-.71.037-1.413.11-2.106h-85.553zm-50.98 0H133.01c.073.694.11 1.396.11 2.106V880.64h85.333V309.306c0-.71.037-1.413.11-2.106zM512 225.28c33.932 0 61.44-27.508 61.44-61.44S545.932 102.4 512 102.4s-61.44 27.508-61.44 61.44 27.508 61.44 61.44 61.44zm0-40.96c-11.311 0-20.48-9.169-20.48-20.48s9.169-20.48 20.48-20.48 20.48 9.169 20.48 20.48-9.169 20.48-20.48 20.48zm464.372 791.893v-47.787H47.628v47.787h928.744z"/></svg>