<?xml version="1.0" encoding="iso-8859-1"?>
<!-- Uploaded to: SVG Repo, www.svgrepo.com, Generator: SVG Repo Mixer Tools -->
<svg fill="#000000" height="800px" width="800px" version="1.1" id="Layer_1" xmlns="http://www.w3.org/2000/svg" xmlns:xlink="http://www.w3.org/1999/xlink" 
	 viewBox="0 0 512 512" xml:space="preserve">
<g>
	<g>
		<path d="M344.069,386.751l-65.962-17.989l-10.423-15.635c-2.515-3.772-6.519-6.374-10.987-7.14
			c-0.409-0.071-0.821-0.107-1.231-0.145v-20.538l4.365-3.638c7.842-6.535,13.049-15.685,14.662-25.765l2.367-14.791h4.794
			c13.851,0,25.119-11.268,25.119-25.119v-17.102c0-11.829-8.222-21.769-19.25-24.42l1.586-9.914
			c4.764-29.773-3.724-60.008-23.289-82.95c-19.564-22.943-48.078-36.101-78.229-36.101c-30.151,0-58.665,13.158-78.229,36.101
			c-19.564,22.943-28.052,53.177-23.289,82.95l1.586,9.914c-11.028,2.651-19.25,12.591-19.25,24.42v17.102
			c0,13.851,11.268,25.119,25.119,25.119h4.794l2.367,14.791c1.613,10.08,6.82,19.229,14.662,25.765l4.365,3.638v20.538
			c-0.411,0.039-0.823,0.076-1.231,0.145c-4.468,0.765-8.473,3.368-10.987,7.14l-10.423,15.635l-65.962,17.99
			C12.794,391.747,0,408.497,0,427.485v59.387c0,13.851,11.268,25.119,25.119,25.119h324.944c13.851,0,25.119-11.268,25.119-25.119
			v-59.387C375.182,408.497,362.388,391.747,344.069,386.751z M284.967,230.437c3.374,1.328,5.772,4.611,5.772,8.451v17.102
			c0,5.01-4.076,9.086-9.086,9.086h-2.229L284.967,230.437z M93.528,265.075c-5.01,0-9.086-4.076-9.086-9.086v-17.102
			c0-3.839,2.398-7.123,5.772-8.451l5.542,34.639H93.528z M116.52,293.367l-14.615-91.347c-4.021-25.13,3.144-50.65,19.657-70.014
			c16.513-19.365,40.579-30.471,66.029-30.471s49.516,11.107,66.029,30.471c16.512,19.365,23.677,44.884,19.657,70.014
			l-14.615,91.348c-1,6.252-4.231,11.928-9.094,15.981l-34.32,28.599c-3.163,2.636-7.172,4.087-11.291,4.087h-32.732
			c-4.118,0-8.128-1.452-11.291-4.089l-34.32-28.599C120.751,305.295,117.521,299.619,116.52,293.367z M239.432,338.665v13.793
			l-51.841,38.881l-51.841-38.881v-13.793l13.92,11.601c6.038,5.032,13.694,7.805,21.555,7.805h32.732
			c7.862,0,15.517-2.772,21.555-7.805L239.432,338.665z M59.858,495.956H25.119c-5.01,0-9.086-4.076-9.086-9.086v-59.387
			c0-4.741,1.303-9.246,3.581-13.152l33.898,28.249c4.033,3.362,6.346,8.299,6.346,13.549V495.956z M163.411,495.957h-87.52v-39.826
			c0-10.023-4.416-19.451-12.115-25.866l-32.086-26.738c1.169-0.515,2.38-0.962,3.641-1.306l63.47-17.311l34.261,47.967
			c2.634,3.687,6.718,6.158,11.204,6.78c0.75,0.105,1.504,0.156,2.255,0.156c3.741,0,7.426-1.272,10.371-3.629l6.15-4.92
			c1.092,4.106,3.717,7.582,7.231,9.785L163.411,495.957z M146.879,423.664c-0.048,0.04-0.18,0.144-0.407,0.112
			c-0.228-0.032-0.326-0.168-0.361-0.219l-34.291-48.007l9.019-13.529c0.034-0.052,0.127-0.191,0.354-0.23
			c0.229-0.041,0.361,0.061,0.412,0.099l52.898,39.675L146.879,423.664z M179.57,495.956l6.547-52.376h2.949l6.547,52.376H179.57z
			 M196.676,427.014c0,0.295-0.239,0.534-0.534,0.534H179.04c-0.295,0-0.534-0.239-0.534-0.534v-8.119l9.086-7.268l9.086,7.268
			V427.014z M253.578,361.89c0.051-0.037,0.184-0.14,0.411-0.099c0.227,0.04,0.32,0.179,0.355,0.23l9.018,13.528l-34.29,48.007
			c-0.036,0.051-0.134,0.187-0.362,0.219c-0.224,0.031-0.358-0.073-0.407-0.112l-27.623-22.098L253.578,361.89z M299.29,456.131
			v39.826h-87.52l-6.863-54.909c3.515-2.203,6.139-5.679,7.231-9.785l6.15,4.92c2.946,2.357,6.63,3.629,10.371,3.629
			c0.751,0,1.505-0.051,2.255-0.156c4.487-0.622,8.571-3.093,11.205-6.78l34.261-47.967l63.471,17.31
			c1.259,0.345,2.469,0.792,3.64,1.307l-32.086,26.738C303.706,436.68,299.29,446.108,299.29,456.131z M359.148,486.871
			c0,5.01-4.076,9.086-9.086,9.086h-34.739v-39.826c0-5.25,2.313-10.188,6.346-13.548l33.898-28.249
			c2.278,3.906,3.581,8.411,3.581,13.152V486.871z"/>
	</g>
</g>
<g>
	<g>
		<path d="M401.37,34.194c-42.141,0-76.426,34.285-76.426,76.426s34.285,76.426,76.426,76.426s76.426-34.285,76.426-76.426
			S443.511,34.194,401.37,34.194z M401.37,171.013c-33.3,0-60.392-27.092-60.392-60.393s27.092-60.392,60.392-60.392
			s60.393,27.092,60.393,60.392S434.67,171.013,401.37,171.013z"/>
	</g>
</g>
<g>
	<g>
		<path d="M403.515,102.896c-16.545-4.596-19.782-7.702-19.782-11.516c0-2.122,6.664-6.948,17.637-6.948
			c9.667,0,16.39,3.764,17.528,6.482c1.709,4.084,6.405,6.009,10.489,4.301c4.084-1.709,6.01-6.405,4.301-10.489
			c-3.346-7.997-12.665-13.839-24.302-15.696v-1.166c0-4.427-3.589-8.017-8.017-8.017s-8.017,3.589-8.017,8.017v1.143
			c-15.067,2.33-25.653,11.171-25.653,22.373c0,18.208,18.971,23.477,31.525,26.965c16.545,4.596,19.782,7.702,19.782,11.515
			c0,2.122-6.664,6.948-17.637,6.948c-9.667,0-16.39-3.764-17.528-6.482c-1.709-4.084-6.405-6.01-10.489-4.301
			s-6.01,6.405-4.301,10.489c3.346,7.997,12.665,13.839,24.302,15.696v1.166c0,4.427,3.589,8.017,8.017,8.017
			c4.427,0,8.017-3.589,8.017-8.017v-1.143c15.067-2.33,25.653-11.171,25.653-22.373
			C435.04,111.654,416.069,106.383,403.515,102.896z"/>
	</g>
</g>
<g>
	<g>
		<path d="M475.151,28.185C451.753,7.231,420.283-2.791,388.799,0.687c-50.97,5.632-91.936,46.738-97.405,97.74
			c-4.622,43.09,15.752,84.242,52.236,106.559l-9.905,40.551c-0.65,2.663,0.105,5.472,2.001,7.45
			c1.527,1.593,3.625,2.469,5.787,2.469c0.523,0,1.05-0.051,1.572-0.156c36.368-7.274,55.608-26.221,62.258-34.119
			C464.511,219.083,512,170.293,512,110.62C512,79.204,498.569,49.158,475.151,28.185z M401.37,205.217
			c-2.681,0-5.183,1.339-6.67,3.57c-0.135,0.202-12.343,18.053-42.227,27.566l8.162-33.415c0.867-3.548-0.774-7.233-3.99-8.963
			c-34.1-18.339-53.455-55.173-49.308-93.84c4.674-43.579,39.675-78.702,83.224-83.514c27.351-3.025,53.593,5.325,73.894,23.506
			c20.026,17.936,31.512,43.63,31.512,70.492C495.967,162.782,453.53,205.217,401.37,205.217z"/>
	</g>
</g>
</svg>