<?xml version="1.0" encoding="iso-8859-1"?>
<!-- Uploaded to: SVG Repo, www.svgrepo.com, Generator: SVG Repo Mixer Tools -->
<svg fill="#000000" height="800px" width="800px" version="1.1" id="Layer_1" xmlns="http://www.w3.org/2000/svg" xmlns:xlink="http://www.w3.org/1999/xlink" 
	 viewBox="0 0 511.999 511.999" xml:space="preserve">
<g>
	<g>
		<path d="M165.038,370.926h-16.34c-4.513,0-8.17,3.657-8.17,8.17s3.657,8.17,8.17,8.17h16.34c4.513,0,8.17-3.657,8.17-8.17
			S169.552,370.926,165.038,370.926z"/>
	</g>
</g>
<g>
	<g>
		<path d="M412.867,468.968h-16.34c-4.513,0-8.17,3.657-8.17,8.17s3.657,8.17,8.17,8.17h16.34c4.513,0,8.17-3.657,8.17-8.17
			S417.38,468.968,412.867,468.968z"/>
	</g>
</g>
<g>
	<g>
		<path d="M462.432,436.287h-16.34c-4.513,0-8.17,3.657-8.17,8.17c0,4.513,3.657,8.17,8.17,8.17h16.34c4.513,0,8.17-3.657,8.17-8.17
			C470.602,439.944,466.945,436.287,462.432,436.287z"/>
	</g>
</g>
<g>
	<g>
		<path d="M363.301,403.607h-16.34c-4.513,0-8.17,3.657-8.17,8.17c0,4.513,3.657,8.17,8.17,8.17h16.34c4.513,0,8.17-3.657,8.17-8.17
			C371.471,407.264,367.814,403.607,363.301,403.607z"/>
	</g>
</g>
<g>
	<g>
		<path d="M65.907,403.607h-16.34c-4.513,0-8.17,3.657-8.17,8.17c0,4.513,3.657,8.17,8.17,8.17h16.34c4.513,0,8.17-3.657,8.17-8.17
			C74.077,407.264,70.42,403.607,65.907,403.607z"/>
	</g>
</g>
<g>
	<g>
		<path d="M380.295,265.466c-28.963-34.825-71.881-56.419-116.125-58.803V92.874c18.624,3.795,32.681,20.3,32.681,40.028
			c0,4.513,3.657,8.17,8.17,8.17c4.513,0,8.17-3.657,8.17-8.17c0-23.967-14.826-44.524-35.782-53.018
			c4.211-1.442,8.674-2.202,13.254-2.202c10.904,0,21.164,4.253,28.886,11.976c1.596,1.595,3.688,2.392,5.778,2.392
			s4.182-0.797,5.778-2.392c3.191-3.192,3.191-8.364,0-11.555c-10.81-10.81-25.172-16.762-40.441-16.762
			c-7.78,0-15.321,1.552-22.281,4.498c6.674-13.499,20.587-22.809,36.638-22.809c4.513,0,8.17-3.657,8.17-8.17
			s-3.657-8.17-8.17-8.17c-20.777,0-39.004,11.14-49.021,27.758c-10.017-16.619-28.244-27.758-49.021-27.758
			c-4.513,0-8.17,3.657-8.17,8.17s3.657,8.17,8.17,8.17c16.052,0,29.964,9.31,36.638,22.809c-6.959-2.946-14.5-4.498-22.281-4.498
			c-15.27,0-29.632,5.952-40.441,16.762c-3.191,3.192-3.191,8.364,0,11.555c3.192,3.19,8.364,3.19,11.555,0
			c7.722-7.724,17.982-11.976,28.886-11.976c4.58,0,9.042,0.759,13.254,2.202c-20.956,8.494-35.782,29.051-35.782,53.018
			c0,4.513,3.657,8.17,8.17,8.17s8.17-3.657,8.17-8.17c0-19.728,14.057-36.233,32.681-40.028v113.789
			c-44.244,2.385-87.161,23.981-116.125,58.805c-2.886,3.47-2.412,8.622,1.057,11.507c1.526,1.269,3.379,1.888,5.22,1.888
			c2.343,0,4.67-1.003,6.287-2.946c27.674-33.276,69.443-53.142,111.731-53.142s84.057,19.865,111.731,53.141
			c2.886,3.47,8.037,3.942,11.507,1.058C382.707,274.087,383.179,268.935,380.295,265.466z"/>
	</g>
</g>
<g>
	<g>
		<path d="M507.398,275.34c-4.062-1.973-8.947-0.278-10.918,3.78c-7.922,16.313-24.099,26.445-42.217,26.445
			c-18.118,0-34.294-10.133-42.217-26.445c-1.366-2.814-4.22-4.601-7.349-4.601c-3.129,0-5.983,1.788-7.349,4.601
			c-7.922,16.313-24.099,26.445-42.217,26.445c-18.118,0-34.294-10.133-42.217-26.445c-1.366-2.814-4.22-4.601-7.349-4.601
			c-3.129,0-5.983,1.788-7.349,4.601c-7.922,16.313-24.099,26.445-42.217,26.445s-34.294-10.133-42.217-26.445
			c-1.366-2.814-4.22-4.601-7.349-4.601c-3.129,0-5.983,1.788-7.349,4.601c-7.922,16.313-24.099,26.445-42.217,26.445
			s-34.294-10.133-42.217-26.445c-1.366-2.814-4.22-4.601-7.349-4.601c-3.129,0-5.983,1.788-7.349,4.601
			c-7.922,16.313-24.099,26.445-42.217,26.445c-18.118,0-34.295-10.132-42.218-26.445c-1.971-4.059-6.857-5.753-10.917-3.78
			c-4.059,1.971-5.751,6.859-3.78,10.918c10.516,21.655,32.856,35.648,56.914,35.648c19.409,0,37.698-9.106,49.566-23.996
			c11.867,14.89,30.157,23.996,49.566,23.996c19.409,0,37.698-9.106,49.566-23.996c11.867,14.89,30.157,23.996,49.566,23.996
			c19.409,0,37.698-9.106,49.566-23.996c11.867,14.89,30.157,23.996,49.566,23.996c19.409,0,37.698-9.106,49.566-23.996
			c11.867,14.89,30.157,23.996,49.566,23.996c24.058,0,46.399-13.993,56.914-35.648C513.148,282.198,511.455,277.31,507.398,275.34z
			"/>
	</g>
</g>
</svg>