<?xml version="1.0" encoding="iso-8859-1"?>
<!-- Uploaded to: SVG Repo, www.svgrepo.com, Generator: SVG Repo Mixer Tools -->
<svg fill="#000000" height="800px" width="800px" version="1.1" id="Layer_1" xmlns="http://www.w3.org/2000/svg" xmlns:xlink="http://www.w3.org/1999/xlink" 
	 viewBox="0 0 511.995 511.995" xml:space="preserve">
<g>
	<g>
		<g>
			<path d="M143.632,409.045c5.634,0,11.268-2.145,15.557-6.434l241.995-241.995c8.578-8.578,8.578-22.535,0-31.113L279.54,7.859
				c-8.578-8.574-22.534-8.575-31.112,0.001L6.434,249.855c-8.578,8.578-8.578,22.535,0,31.113l121.642,121.643
				C132.364,406.9,137.997,409.045,143.632,409.045z M20.005,265.412c0-0.385,0.099-0.942,0.571-1.414L262.569,22.004
				c0.384-0.384,0.9-0.576,1.415-0.576c0.516,0,1.031,0.191,1.414,0.574l121.643,121.643c0.473,0.472,0.571,1.029,0.571,1.414
				s-0.099,0.942-0.571,1.414L145.046,388.468c-0.472,0.473-1.029,0.571-1.414,0.571s-0.942-0.099-1.414-0.571L20.575,266.826
				C20.103,266.354,20.005,265.797,20.005,265.412z"/>
			<path d="M118.588,227.889c2.56,0,5.118-0.977,7.071-2.929L274.371,76.249c3.905-3.905,3.905-10.237,0-14.143
				c-3.906-3.904-10.236-3.904-14.143,0L111.517,210.818c-3.905,3.905-3.905,10.237,0,14.143
				C113.47,226.913,116.028,227.889,118.588,227.889z"/>
			<path d="M277.51,139.099c1.953,1.952,4.512,2.929,7.071,2.929c2.559,0,5.118-0.977,7.071-2.929l22.785-22.784
				c3.905-3.905,3.905-10.237,0-14.143c-3.904-3.902-10.234-3.904-14.143,0l-22.785,22.784
				C273.604,128.862,273.604,135.194,277.51,139.099z"/>
			<path d="M244.643,157.824l-93.061,93.061c-3.905,3.905-3.905,10.237,0,14.143c1.953,1.952,4.512,2.929,7.071,2.929
				c2.559,0,5.118-0.977,7.071-2.929l93.061-93.061c3.905-3.905,3.905-10.237,0-14.143
				C254.88,153.92,248.549,153.92,244.643,157.824z"/>
			<path d="M509.066,247.127c-28.612-28.612-75.17-28.614-103.784,0L318.609,333.8c-31.838-9.803-66.745-1.316-90.536,22.475
				c-26.106,26.107-32.856,64.333-20.292,96.729c-0.685,0.014-1.368,0.042-2.055,0.042c-28.559,0-55.636-12.424-74.288-34.086
				c-3.605-4.186-9.917-4.657-14.104-1.053c-4.185,3.604-4.656,9.918-1.053,14.104c22.456,26.078,55.057,41.035,89.444,41.035
				c4.198,0,8.354-0.24,12.466-0.667c2.916,4.121,6.194,8.062,9.882,11.75c17.625,17.624,40.776,26.437,63.928,26.437
				c23.152,0,46.303-8.813,63.928-26.437c24.216-24.217,32.544-59.616,22.09-91.812l131.047-131.048
				C512.971,257.364,512.971,251.032,509.066,247.127z M359.367,382.683c-2.848,2.848-3.709,7.125-2.187,10.853
				c10.757,26.333,4.714,56.341-15.395,76.45c-27.452,27.452-72.12,27.45-99.57,0c-0.669-0.669-1.308-1.356-1.945-2.046
				c9.124-2.782,17.88-6.679,26.13-11.655c1.286,0.337,2.629,0.536,4.02,0.536c8.75,0,15.869-7.119,15.869-15.869
				s-7.119-15.869-15.869-15.869c-8.43,0-15.326,6.613-15.821,14.921c-8.212,4.754-17.001,8.245-26.186,10.409
				c-12.391-26.144-7.798-58.397,13.802-79.996c13.448-13.449,31.458-20.615,49.808-20.615c8.602,0,17.28,1.575,25.595,4.817
				c3.693,1.441,7.896,0.56,10.703-2.246l91.104-91.104c18.398-18.399,46.998-20.533,67.764-6.407L359.367,382.683z"/>
			<path d="M108.754,277.846c-4.319,4.319-5.613,10.525-3.903,15.985c-3.415,5.616-6.363,11.504-8.795,17.614
				c-2.041,5.133,0.463,10.948,5.593,12.99c1.214,0.483,2.465,0.712,3.695,0.712c3.975,0,7.734-2.387,9.294-6.305
				c1.929-4.846,4.255-9.521,6.931-13.996c3.517-0.352,6.94-1.869,9.628-4.558c6.188-6.188,6.188-16.255,0-22.442
				C125.009,271.659,114.941,271.658,108.754,277.846z"/>
		</g>
	</g>
</g>
</svg>