<?xml version="1.0" encoding="iso-8859-1"?>
<!-- Uploaded to: SVG Repo, www.svgrepo.com, Generator: SVG Repo Mixer Tools -->
<!DOCTYPE svg PUBLIC "-//W3C//DTD SVG 1.1//EN" "http://www.w3.org/Graphics/SVG/1.1/DTD/svg11.dtd">
<svg fill="#000000" version="1.1" id="Capa_1" xmlns="http://www.w3.org/2000/svg" xmlns:xlink="http://www.w3.org/1999/xlink" 
	 width="800px" height="800px" viewBox="0 0 49.925 49.925"
	 xml:space="preserve">
<g>
	<g>
		<path d="M18.023,42.167l-1.402-0.32l0.572-2.502l-0.027-0.007c0.125-0.547,0.217-0.952,0.247-1.079
			c0.062-0.274,0.241-0.476,0.422-0.701l0.129,0.03c0.221,0.05,0.44-0.087,0.491-0.308c0.041-0.184-0.051-0.361-0.21-0.446
			c0.003-0.006,0.004-0.014,0.006-0.021l-2.088-0.478c0,0.007-0.001,0.013-0.002,0.021c-0.181,0.007-0.344,0.127-0.386,0.312
			c-0.05,0.222,0.087,0.44,0.308,0.491l0.216,0.049c0.077,0.273,0.144,0.547,0.083,0.814c-0.031,0.136-0.123,0.539-0.246,1.08
			l-0.01-0.002l-0.571,2.502l-1.512-0.346l0.06-0.261l-0.761-0.174l-0.325,1.425l0.76,0.174l0.06-0.261l1.512,0.347l-0.217,0.947
			L13.62,43.11l0.06-0.261l-0.761-0.174l-0.325,1.424l0.761,0.174l0.06-0.26l1.512,0.346l-0.129,0.568l-0.378-0.088l-0.23,1.008
			l2.008,0.459l0.23-1.006l-0.563-0.13l0.13-0.569l1.402,0.319l-0.059,0.263l0.761,0.174l0.325-1.426l-0.761-0.174l-0.06,0.262
			l-1.402-0.32l0.217-0.949l1.402,0.32l-0.059,0.261l0.761,0.173l0.325-1.424l-0.761-0.175L18.023,42.167z"/>
		<path d="M25.551,41.118c0.051-0.674,0.6-0.802,0.725-1.774l-2.103-0.158c-0.02,0.982,0.505,1.19,0.455,1.863
			c-0.053,0.707-0.248,3.33-0.248,3.33l0.013,0.001l-0.105,1.414l0.907,0.067l0.012-0.157l2.268,0.17l0.183-2.442l-2.265-0.168
			C25.451,42.472,25.521,41.507,25.551,41.118z M26.826,43.788l0.197,0.015l-0.119,1.608l-0.199-0.013L26.826,43.788z"/>
		<path d="M47.805,35.362c0.229,0.149,0.478,0.227,0.725,0.218l1.396-0.049l-0.003-0.893l-1.344,0.047l0.695-0.502l0,0l0.02-0.016
			l-0.518-0.716l-0.715,0.517l0.467-1.261l-0.846-0.284l-0.486,1.309c-0.1,0.27-0.088,0.57,0.011,0.854l-0.313,0.225l-3.142-4.354
			c0.165-0.349,0.144-0.771-0.099-1.106c-0.241-0.334-0.637-0.487-1.02-0.441l-0.287-0.398c0.582-0.635,0.672-1.593,0.166-2.297
			c-0.107-0.146-0.232-0.271-0.371-0.376c0.226-0.084,0.443-0.196,0.649-0.346c1.194-0.86,1.487-2.503,0.653-3.658
			c-0.834-1.157-2.484-1.396-3.678-0.534c-0.162,0.117-0.306,0.247-0.433,0.39c-0.056-0.191-0.142-0.375-0.263-0.544
			c-0.194-0.27-0.454-0.461-0.742-0.583c0.322-1.148,0.501-2.359,0.501-3.611C38.83,9.598,32.85,3.619,25.5,3.619
			c-7.35,0-13.33,5.979-13.33,13.329c0,1.207,0.164,2.375,0.465,3.485c-0.041-0.01-0.082-0.02-0.121-0.029
			c-0.089-0.187-0.198-0.366-0.333-0.535c-0.928-1.166-2.599-1.385-3.725-0.489c-1.124,0.896-1.284,2.574-0.356,3.739
			c0.157,0.198,0.336,0.364,0.529,0.507c0,0.005,0,0.009,0,0.014c-0.133,0.413-0.575,1.693-1.058,2.232l-0.2-0.252
			c-0.157-0.197-0.444-0.229-0.641-0.072c-0.197,0.157-0.23,0.444-0.073,0.641l0.211,0.265c-0.044,0.036-0.089,0.072-0.138,0.11
			l-0.211-0.268c-0.157-0.197-0.444-0.229-0.641-0.072c-0.198,0.158-0.23,0.444-0.073,0.643l0.212,0.266
			c-0.064,0.051-0.131,0.104-0.197,0.156l-0.211-0.266c-0.157-0.196-0.444-0.229-0.642-0.073c-0.197,0.157-0.229,0.444-0.072,0.642
			l0.212,0.267c-0.05,0.04-0.102,0.081-0.152,0.12l-0.212-0.267C4.586,27.515,4.3,27.483,4.102,27.64
			c-0.198,0.156-0.23,0.443-0.073,0.642l0.212,0.267C2.218,30.155,0,31.921,0,31.921l0.791,0.993l1.123-0.894l0.693,0.871
			l-1.123,0.894l2.043,2.563l0.583-0.463l-0.612-0.77l0.606-0.482l0.612,0.771l1.06-0.845l-0.612-0.769l0.606-0.483l0.613,0.77
			l0.583-0.465l-2.042-2.564l-1.048,0.834l-0.693-0.871c0,0,0.843-0.67,1.849-1.472l0.257,0.323c0.157,0.195,0.444,0.23,0.641,0.072
			c0.197-0.156,0.229-0.443,0.073-0.641L5.745,28.97c0.05-0.041,0.101-0.08,0.152-0.121l0.258,0.324
			c0.156,0.196,0.443,0.229,0.641,0.072c0.197-0.156,0.23-0.443,0.073-0.641l-0.257-0.323c0.066-0.054,0.131-0.104,0.197-0.157
			l0.257,0.323c0.157,0.196,0.444,0.229,0.641,0.073c0.197-0.157,0.23-0.444,0.073-0.642l-0.258-0.323
			c0.047-0.039,0.094-0.074,0.138-0.109l0.258,0.322C8.075,27.966,8.362,28,8.559,27.843c0.197-0.158,0.229-0.445,0.073-0.643
			l-0.253-0.312c0.339-0.213,0.775-0.338,1.182-0.408c0.262,0.628,0.723,1.178,1.359,1.537c0.302,0.174,0.627,0.287,0.962,0.353
			c-0.315,0.38-0.657,0.886-0.393,1.036c0.108,0.062,0.249,0.143,0.407,0.23l-0.968,0.996l0.498,0.281l-2.79,4.919l-1.288,2.271
			l-0.745,1.312l1.62,0.919l0.319-0.563l0.934,0.531l-0.319,0.562l1.62,0.918l0.722-1.273l-0.543-0.308l0.53-0.935l0.543,0.309
			l0.78-1.375l-1.62-0.919l-0.381,0.672l-0.934-0.528l0.38-0.674l-0.83-0.47l2.79-4.92l0.51,0.29l0.358-1.344
			c0.119,0.067,0.231,0.133,0.324,0.184c0.291,0.166,0.547-0.391,0.712-0.893c0.12,0.144,0.253,0.275,0.397,0.397
			c0.139,0.44,0.286,0.875,0.404,1.283c0.07,0.237,0.233,0.364,0.418,0.399c0.009,0.002,0.016,0.006,0.024,0.008
			c0.534,0.123,1.067,0.244,1.601,0.365c0.18,0.219,0.405,0.396,0.664,0.527c-0.181,0.791-0.364,1.592-0.441,1.932
			c-0.096,0.422-0.349,0.739-0.582,1.031l-0.142-0.031c-0.221-0.052-0.44,0.086-0.491,0.308c-0.042,0.181,0.049,0.354,0.203,0.442
			c0,0-0.001,0.004-0.001,0.006l2.102,0.479c0-0.002,0-0.003,0-0.005c0.177-0.011,0.334-0.13,0.375-0.312
			c0.051-0.222-0.087-0.439-0.308-0.49l-0.062-0.016c-0.059-0.394-0.159-0.766-0.074-1.139c0.065-0.285,0.262-1.148,0.457-2
			c0.25-0.02,0.49-0.079,0.712-0.184c0.427,0.099,0.854,0.195,1.281,0.293c0.342,0.078,0.764-0.209,1.18-0.612
			c0.726,1.002,1.903,1.741,3.299,1.978c-0.014,0.192-0.03,0.416-0.048,0.648l-0.219-0.018c-0.325-0.023-0.608,0.221-0.632,0.545
			c-0.024,0.326,0.219,0.61,0.545,0.635l0.218,0.016c-0.024,0.329-0.046,0.612-0.059,0.782c-0.042,0.563-0.65,1.03-0.754,2.101
			l2.113,0.156c0.056-1.072-0.478-1.623-0.435-2.188c0.013-0.17,0.033-0.452,0.058-0.781l0.093,0.007
			c0.325,0.024,0.609-0.22,0.633-0.546c0.024-0.324-0.22-0.607-0.545-0.633l-0.094-0.008c0.018-0.229,0.034-0.448,0.049-0.642
			c0.516,0.002,1.014-0.069,1.482-0.2c0.396,0.178,0.809,0.355,1.232,0.537c0.623,0.266,1.263,0.543,1.875,0.826l0.02,0.072
			l-0.42,0.105l0.096,0.385l0.42-0.105l0.051,0.206l-0.42,0.104l0.096,0.385l0.421-0.104l0.739,2.964l0.207-0.053l1.404,5.629
			l1.231-0.308l-0.132-0.528l0.582-0.145l-0.166-0.657l1.146-0.286L36.13,44l0.634-0.158l-0.902-3.617l-0.633,0.158l0.222,0.887
			l-1.144,0.287l-0.164-0.658l-0.582,0.145l-0.472-1.892l0.194-0.048l-0.739-2.965l0.419-0.104l-0.096-0.387l-0.419,0.104
			l-0.052-0.204l0.42-0.104l-0.096-0.386l-0.42,0.104l-0.035-0.142c0.394-0.514,0.793-1.016,1.184-1.5
			c0.402-0.5,0.791-0.981,1.145-1.45c0.262-0.017,0.525-0.041,0.791-0.088c0.006,0.024,0.006,0.052,0.016,0.075
			c0.082,0.256,0.345,0.416,0.666,0.444l0.062,0.195l-0.182,0.06c-0.221,0.069-0.342,0.307-0.271,0.525
			c0.071,0.223,0.307,0.344,0.528,0.273l0.183-0.059l0.094,0.295l-0.182,0.059c-0.221,0.069-0.342,0.308-0.271,0.527
			c0.072,0.221,0.308,0.344,0.529,0.272l0.182-0.058l1.863,5.812l0.226,0.701l0.332,1.033c0.09,0.28,0.39,0.436,0.669,0.345
			c0.281-0.091,0.434-0.39,0.344-0.669l-0.248-0.774c0.108,0.101,0.262,0.146,0.41,0.097c0.209-0.065,0.322-0.279,0.275-0.49
			l0.009-0.002l-0.651-2.03l0.85-0.274c0.002,0.012,0,0.021,0.004,0.031l0.767,2.391c0.065,0.205,0.285,0.316,0.489,0.252
			c0.206-0.066,0.318-0.285,0.253-0.489l-0.767-2.392c-0.002-0.007-0.008-0.012-0.01-0.019l-0.003-0.009l0.882-0.283l0.646,2.012
			c0.071,0.221,0.308,0.344,0.528,0.271c0.215-0.067,0.332-0.291,0.274-0.506l0.004-0.002l-0.007-0.021L43.051,37l-0.125-0.387
			l-0.334,0.107c-0.023,0.004-0.046,0-0.068,0.008c-0.024,0.008-0.041,0.023-0.062,0.033l-3.551,1.14l-1.164-3.632l0.18-0.059
			c0.221-0.07,0.344-0.309,0.271-0.529c-0.07-0.221-0.307-0.342-0.527-0.271l-0.182,0.058l-0.094-0.295l0.181-0.057
			c0.221-0.072,0.343-0.309,0.272-0.529c-0.072-0.22-0.309-0.343-0.529-0.271l-0.18,0.059l-0.072-0.223
			c0.205-0.205,0.3-0.463,0.225-0.699c-0.008-0.025-0.021-0.047-0.033-0.07c1.227-0.588,2.188-1.482,2.773-2.508
			c0.462,0.266,1.031,0.318,1.554,0.131l0.271,0.375c-0.246,0.37-0.256,0.867,0.021,1.25s0.751,0.53,1.181,0.412l3.101,4.299
			l-0.25,0.18l-0.892,0.646l0.517,0.716l0.892-0.644l0,0l0.25-0.181l0.436,0.604l0.74-0.533l-0.437-0.604l0.315-0.229
			C47.753,35.319,47.777,35.343,47.805,35.362z M3.522,32.163l0.606,0.763l0.736-0.586l0.447,0.562l-0.737,0.587l0.566,0.711
			l-0.56,0.445l-0.566-0.711l-0.737,0.586l-0.446-0.561l0.736-0.587L2.96,32.61L3.522,32.163z M40.143,21.819
			c0.896-0.646,2.135-0.466,2.762,0.4c0.625,0.868,0.406,2.1-0.491,2.748c-0.625,0.45-1.414,0.492-2.048,0.187
			c-0.232-0.572-0.592-1.069-1.049-1.481C39.238,22.983,39.527,22.265,40.143,21.819z M36.191,29.195l0.008,0.005
			c0.005,0.004,0.013,0.01,0.018,0.017l0.01,0.008c0.006,0.006,0.012,0.014,0.017,0.021c0.002,0.003,0.005,0.007,0.007,0.01
			c0.008,0.014,0.016,0.026,0.021,0.043c0.019,0.047,0.013,0.109-0.021,0.12c-0.012,0.005-0.021,0.003-0.029,0.002
			c-0.013-0.003-0.021-0.007-0.029-0.016l-0.002-0.003c-0.002-0.004-0.006-0.01-0.01-0.016c-0.022-0.051,0.012-0.048,0.025-0.062
			c0.004-0.005,0.007-0.011,0.003-0.022c-0.008-0.024-0.026-0.024-0.043-0.021c0.007-0.03,0.017-0.062,0.022-0.09
			C36.188,29.194,36.189,29.194,36.191,29.195z M11.426,26.484c-0.729-0.914-0.577-2.245,0.337-2.972
			c0.567-0.452,1.295-0.564,1.94-0.367c0.389,0.738,0.846,1.435,1.361,2.082l0.019,0.17l0.084-0.038
			c0.005,0.007,0.01,0.014,0.016,0.021c-0.01,0.097-0.033,0.191-0.056,0.287c-0.613,0.335-0.925,0.808-1.044,1.358
			C13.2,27.502,12.074,27.3,11.426,26.484z M10.588,26c-0.179-0.047-0.38-0.068-0.583-0.084c-0.152-0.57-0.107-1.192,0.161-1.759
			c0.147,0.003,0.295-0.004,0.441-0.024C10.38,24.72,10.372,25.384,10.588,26z M10.553,23.562c0.344-0.393,0.794-0.662,1.281-0.789
			c-0.104,0.135-0.219,0.264-0.359,0.376C11.198,23.37,10.88,23.5,10.553,23.562z M16.238,25.309
			c-0.078-0.086-0.153-0.177-0.229-0.265c0.607-0.128,1.249-0.035,1.796,0.275c0.075,0.043,0.146,0.088,0.215,0.137
			C17.306,25.335,16.675,25.276,16.238,25.309z M14.39,22.389c-0.024,0.036-0.044,0.078-0.061,0.124
			c-0.242-0.483-0.453-0.985-0.631-1.502c0.295,0.057,0.565,0.103,0.771,0.135C14.44,21.431,14.402,21.893,14.39,22.389z
			 M18.801,28.765c-0.964-0.133-1.879,0.437-2.191,1.354c-0.267,0.008-0.537-0.024-0.801-0.104
			c-0.053-0.185-0.107-0.369-0.161-0.554c-0.2-0.69-0.893-2.069-0.114-2.669c0.166-0.128,0.445-0.207,0.718-0.258
			c0.798,0.77,1.691,1.439,2.661,1.994C18.88,28.609,18.842,28.687,18.801,28.765z M17.523,26.542
			c0.364,0.072,0.896,0.186,1.49,0.329c0.07,0.255,0.1,0.522,0.088,0.791C18.547,27.33,18.019,26.956,17.523,26.542z M19.667,27.039
			c0.729,0.196,1.485,0.436,2.096,0.707c-0.204,0.294-0.369,0.611-0.487,0.949c-0.551-0.199-1.083-0.438-1.596-0.708
			C19.723,27.669,19.718,27.351,19.667,27.039z M36.878,21.292c0.122-0.087,0.254-0.146,0.39-0.185
			c-0.162,0.459-0.351,0.906-0.563,1.339c-0.104-0.018-0.213-0.033-0.32-0.048C36.338,21.987,36.51,21.557,36.878,21.292z
			 M37.997,24.399C37.999,24.407,38,24.411,38,24.411c-0.074-0.063-0.117-0.173-0.198-0.273c-0.007-0.011-0.016-0.021-0.024-0.032
			c0.062,0.009,0.123,0.03,0.186,0.046C37.958,24.265,37.988,24.37,37.997,24.399z M34.343,30.16
			c-0.007-0.008-0.013-0.014-0.018-0.021c-0.009-0.013-0.017-0.027-0.022-0.041c-0.003-0.006-0.007-0.017-0.01-0.021
			c-0.008-0.023-0.014-0.049-0.016-0.077c0-0.01,0-0.019,0-0.026c0-0.018,0-0.037,0.002-0.052c0-0.013,0.003-0.021,0.005-0.03
			c0.003-0.017,0.006-0.03,0.011-0.043c0.008-0.022,0.018-0.039,0.028-0.055l0.002-0.003c0.021-0.028,0.044-0.041,0.058-0.048
			l0.004-0.001c0.002-0.001,0.004-0.002,0.006-0.002l0.004-0.002c-0.051-0.031-0.11-0.044-0.164-0.052
			c-0.098-0.012-0.189,0.035-0.223,0.16c-0.007,0.026-0.012,0.06-0.012,0.096c-0.003,0.21,0.166,0.359,0.166,0.359
			c-0.084-0.016-0.163-0.078-0.256-0.141c-0.092-0.07-0.2-0.13-0.352-0.146c-0.218-0.035-0.339,0.168-0.339,0.168
			c-0.038-0.008-0.073,0.004-0.106,0.021l-0.018-0.004c-0.003-0.006-0.006-0.013-0.01-0.019c-0.018-0.027-0.041-0.049-0.07-0.061
			c0,0,0-0.061-0.023-0.125c-0.027-0.064-0.071-0.146-0.17-0.193c-0.139-0.06-0.252-0.072-0.364-0.064
			c-0.113,0.009-0.208,0.012-0.284-0.024c0,0,0.004,0,0.01-0.001c0.047-0.006,0.221-0.046,0.322-0.199
			c0.105-0.164,0.066-0.285-0.023-0.338c-0.045-0.021-0.094-0.037-0.146-0.039c0,0,0.001,0,0.001,0.002
			c0.002,0,0.002,0.002,0.004,0.006h0.001c0.006,0.014,0.014,0.037,0.012,0.072c0,0.018-0.004,0.037-0.013,0.061
			c-0.002,0.01-0.007,0.019-0.011,0.029c0,0-0.001,0.002-0.002,0.004c-0.006,0.012-0.01,0.021-0.016,0.033
			c-0.004,0.006-0.008,0.012-0.014,0.02c-0.01,0.014-0.02,0.027-0.033,0.046c-0.012,0.013-0.025,0.022-0.037,0.035l-0.004,0.002
			c-0.031,0.026-0.063,0.048-0.098,0.056c-0.082,0.023-0.176,0.001-0.266-0.049l-0.002-0.002c-0.027-0.014-0.047-0.034-0.069-0.055
			c-0.022-0.022-0.044-0.047-0.063-0.072c-0.08-0.086-0.113-0.233-0.115-0.36c-0.002-0.067,0.015-0.132,0.039-0.19
			c0.065-0.033,0.133-0.065,0.199-0.102c-0.043,0.025-0.093,0.081-0.088,0.139c0.002,0.008,0.006,0.016,0.01,0.021
			c0.035,0.057,0.125,0.068,0.231-0.006c0.009-0.007,0.021-0.014,0.031-0.021c0.01-0.011,0.021-0.02,0.03-0.027l0.002-0.002
			c0.006-0.006,0.014-0.014,0.021-0.021l0.003-0.002c0.006-0.01,0.014-0.018,0.021-0.027l0.007-0.011
			c0.005-0.006,0.008-0.013,0.014-0.02l0.007-0.013l0.008-0.02l0.004-0.012c0.002-0.008,0.004-0.014,0.004-0.021
			c0-0.004,0.002-0.007,0.002-0.012c0-0.007,0-0.016,0-0.021c0-0.004-0.002-0.007-0.002-0.009c-0.002-0.013-0.008-0.021-0.012-0.032
			c-0.004-0.015-0.011-0.025-0.02-0.035h-0.002c-0.001-0.002-0.003-0.002-0.004-0.004c0.744-0.428,1.441-0.924,2.087-1.481
			c0.362,0.315,0.637,0.739,0.763,1.241c0.125,0.505-0.136,1.162-0.602,1.912C34.357,30.175,34.35,30.167,34.343,30.16z
			 M30.866,29.724c-0.013-0.119-0.031-0.237-0.054-0.354c0.035,0.019,0.07,0.037,0.107,0.056c0.15,0.078,0.288,0.186,0.398,0.274
			c0.029,0.026,0.058,0.056,0.082,0.086c0.025,0.026,0.045,0.058,0.07,0.082l0.004,0.004c0.08,0.091,0.133,0.19,0.145,0.292
			c0.005,0.042,0,0.082-0.014,0.122v0.004c-0.006,0.015-0.01,0.031-0.02,0.047c-0.003,0.005-0.006,0.009-0.01,0.013
			C31.415,30.06,31.164,29.843,30.866,29.724z M25.596,28.494c0.139,0.107,0.266,0.236,0.359,0.393l0.088,0.147L26.15,28.9
			c0.293-0.372,0.75-0.577,1.225-0.547c0.494,0.033,0.913,0.312,1.146,0.705c-0.967,0.244-1.979,0.373-3.021,0.373
			c-0.154,0-0.309-0.006-0.462-0.013C25.15,29.073,25.342,28.757,25.596,28.494z M32.053,28.603c0.002,0.01,0.006,0.019,0.008,0.025
			l0.002,0.004c0,0.01,0.002,0.02,0,0.027s-0.004,0.016-0.008,0.021l-0.005,0.008c-0.003,0.007-0.007,0.013-0.012,0.02l-0.007,0.01
			c-0.006,0.008-0.012,0.015-0.02,0.02l-0.01,0.009c-0.01,0.011-0.023,0.021-0.038,0.028c-0.042,0.027-0.103,0.037-0.118,0.011
			c-0.006-0.008-0.007-0.017-0.006-0.024c0-0.009,0.006-0.021,0.014-0.025l0.002-0.002c0.004-0.006,0.008-0.01,0.015-0.012
			c0.046-0.03,0.044,0,0.06,0.006c0.006,0.004,0.012,0.002,0.021-0.002c0.037-0.021,0.016-0.043,0.01-0.058
			c-0.013-0.034-0.062-0.032-0.109-0.003c0.055-0.029,0.107-0.062,0.162-0.094C32.027,28.582,32.046,28.586,32.053,28.603z
			 M30.423,27.876c-0.028,0.059-0.058,0.113-0.087,0.164L30.352,28c0.045-0.121,0.103-0.234,0.164-0.345
			C30.49,27.728,30.46,27.804,30.423,27.876z M31.549,27.859c-0.002-0.027,0.053-0.057,0.104-0.059c0.002,0,0.002,0,0.005,0
			c-0.036,0.021-0.071,0.041-0.107,0.062L31.549,27.859z M31.751,27.746l-0.015-0.002l-0.002,0.001
			c-0.014-0.003-0.027-0.004-0.041-0.005s-0.027-0.001-0.039-0.001c-0.018,0-0.035,0.001-0.051,0.004l-0.015,0.003
			c-0.01,0.002-0.021,0.006-0.03,0.009c-0.004,0.001-0.009,0.003-0.013,0.005c-0.01,0.002-0.019,0.006-0.024,0.012
			c-0.004,0.002-0.006,0.004-0.01,0.006c-0.021,0.015-0.033,0.031-0.041,0.053l-0.003,0.007c-0.004,0.011-0.006,0.022-0.005,0.034
			c0.002,0.014,0.01,0.023,0.018,0.033c-0.037,0.02-0.076,0.039-0.112,0.059c-0.04-0.029-0.08-0.062-0.111-0.105
			c-0.071-0.104-0.131-0.243-0.116-0.36c0.002-0.056,0.01-0.112,0.026-0.165l0.011-0.021c0.008-0.017,0.016-0.031,0.025-0.047
			l0.018-0.023c0.008-0.014,0.016-0.023,0.026-0.035c0.006-0.009,0.013-0.016,0.021-0.021c0.01-0.01,0.021-0.02,0.03-0.027
			c0.009-0.005,0.015-0.012,0.022-0.016c0.013-0.008,0.025-0.014,0.037-0.018c0.009-0.004,0.017-0.007,0.025-0.01
			c0.016-0.004,0.029-0.006,0.045-0.008c0.008,0,0.018,0,0.025,0c0.025,0,0.051,0.003,0.079,0.012
			c0.01,0.001,0.017,0.006,0.026,0.008c0.017,0.005,0.034,0.01,0.047,0.016c0.012,0.006,0.02,0.011,0.026,0.017
			c0.015,0.008,0.027,0.015,0.038,0.022c0.018,0.014,0.032,0.026,0.042,0.039l0.002,0.002c0.021,0.027,0.029,0.051,0.031,0.064
			v0.002c0,0.002,0.001,0.005,0.001,0.005c0,0.002,0,0.004,0,0.004c0.04-0.032,0.07-0.073,0.094-0.118
			c0.037-0.078,0.018-0.172-0.089-0.242c-0.022-0.017-0.052-0.03-0.085-0.045c-0.102-0.037-0.193-0.032-0.268-0.016
			c-0.072,0.018-0.121,0.044-0.121,0.044c0.043-0.071,0.121-0.126,0.218-0.183c0.024-0.018,0.048-0.039,0.071-0.059
			c0.146-0.069,0.3-0.129,0.461-0.17c0.484-0.121,0.971-0.086,1.408,0.072C32.909,27.013,32.346,27.402,31.751,27.746z
			 M34.438,25.651c-0.166-0.095-0.34-0.179-0.52-0.246c0.008-0.012,0.016-0.022,0.021-0.036l0.006-0.018
			c0.005-0.011,0.012-0.021,0.015-0.032l0,0c0.004-0.016,0.008-0.031,0.011-0.045c0-0.004,0-0.006,0.002-0.01
			c0.004-0.035,0.004-0.07,0.002-0.104c0-0.003,0-0.008,0-0.011c0-0.009-0.002-0.017-0.002-0.024l0.008,0.006
			c0.002,0.004,0.002,0.008,0.004,0.012l0.006,0.01c0.008,0.018,0.019,0.033,0.029,0.052l0.004,0.009
			c0.013,0.016,0.024,0.033,0.039,0.053c0.002,0.002,0.002,0.003,0.002,0.005c0.016,0.017,0.031,0.035,0.047,0.054l0.008,0.009
			c0.018,0.018,0.033,0.034,0.05,0.053v0.001c0.017,0.017,0.034,0.033,0.05,0.047l0.006,0.005c0.014,0.014,0.03,0.026,0.045,0.038
			l0.006,0.006c0.025,0.022,0.051,0.035,0.068,0.042c0.002,0.001,0.004,0.002,0.006,0.002c0.008,0.001,0.016,0.002,0.021,0
			c0.051-0.009,0.112-0.303,0.096-0.492l0.011-0.039c0.008,0.013,0.016,0.026,0.025,0.037l0.001,0.005
			c0.009,0.01,0.019,0.021,0.026,0.032l0.004,0.004c0.01,0.01,0.021,0.021,0.031,0.029l0.012,0.01l0.023,0.017
			c0.006,0.003,0.01,0.006,0.016,0.01l0.025,0.013l0.016,0.008l0.025,0.009l0.018,0.005c0.009,0.002,0.019,0.001,0.029,0.001
			l0.016,0.001c0.015,0,0.029-0.003,0.046-0.008c0.017-0.004,0.03-0.012,0.042-0.019c0.005-0.002,0.008-0.006,0.011-0.008
			c0.009-0.006,0.017-0.011,0.022-0.017c0.003-0.004,0.007-0.008,0.011-0.011c0.005-0.007,0.011-0.013,0.017-0.021
			c0.002-0.004,0.004-0.007,0.006-0.012c0.004-0.006,0.009-0.014,0.013-0.021l0.006-0.014c0.001-0.008,0.004-0.017,0.008-0.024
			l0.003-0.012c0.002-0.012,0.002-0.024,0.004-0.034l0.002-0.006v-0.029v-0.002c0-0.013-0.002-0.028-0.002-0.041
			c-0.002-0.014-0.006-0.026-0.007-0.038c-0.005-0.019-0.01-0.033-0.016-0.051l-0.007-0.013c-0.004-0.012-0.01-0.02-0.016-0.027
			c-0.002-0.005-0.005-0.009-0.008-0.012c-0.006-0.009-0.012-0.016-0.02-0.021l-0.008-0.008c-0.021-0.016-0.043-0.025-0.067-0.027
			l-0.007-0.001c-0.014-0.001-0.027,0.001-0.041,0.004c-0.075,0.022-0.094,0.114-0.084,0.169c0.011,0.056,0.048,0.096,0.095,0.082
			l0.001-0.001c0.005-0.002,0.012-0.004,0.02-0.006c0.002-0.001,0.006-0.003,0.008-0.004l0.007-0.004
			c0.003-0.002,0.007-0.007,0.008-0.01c0.001-0.001,0.002-0.002,0.002-0.002c0.002-0.008,0.002-0.016,0-0.025
			c-0.002-0.004-0.004-0.008-0.007-0.011c-0.018-0.017-0.053,0.023-0.064-0.041c0-0.008-0.002-0.018,0-0.024
			c0.002-0.008,0.006-0.015,0.01-0.021l0.002-0.005c0.008-0.006,0.015-0.012,0.025-0.014c0.034-0.011,0.076,0.036,0.086,0.085
			c0.004,0.015,0.006,0.029,0.008,0.041c0.002,0.021,0,0.039-0.002,0.056v0.007c-0.002,0.015-0.009,0.026-0.016,0.038l-0.003,0.006
			c-0.008,0.009-0.017,0.019-0.028,0.026c0,0-0.002,0-0.004,0.001c-0.011,0.008-0.023,0.014-0.037,0.018
			c-0.082,0.025-0.175-0.018-0.212-0.125c-0.012-0.034-0.021-0.079-0.015-0.131c0.003-0.052,0.025-0.106,0.058-0.162l0.44-0.331
			c0.014-0.004,0.029-0.01,0.044-0.013c0.058-0.009,0.118-0.02,0.175-0.012l0.025,0.004c0.019,0.002,0.037,0.006,0.054,0.01
			c0.011,0.003,0.021,0.006,0.028,0.01c0.017,0.004,0.031,0.009,0.045,0.014c0.01,0.005,0.02,0.01,0.027,0.015
			c0.01,0.005,0.019,0.009,0.026,0.014c-0.168,0.189-0.308,0.399-0.415,0.621C34.854,25.208,34.648,25.433,34.438,25.651z
			 M38.268,24.284v-0.003c0.002-0.007,0.006-0.016,0.008-0.023c0.301,0.133,0.572,0.334,0.774,0.615
			c0.019,0.026,0.03,0.056,0.048,0.083c0.008,0.034,0.021,0.067,0.045,0.096c0.008,0.01,0.016,0.018,0.022,0.024
			c0.037,0.066,0.073,0.134,0.101,0.203c-0.095-0.021-0.203-0.076-0.314-0.136c-0.151-0.078-0.287-0.183-0.398-0.273
			c-0.029-0.028-0.057-0.057-0.082-0.086c-0.025-0.027-0.045-0.058-0.07-0.083l-0.002-0.003c-0.08-0.091-0.135-0.191-0.146-0.293
			C38.25,24.363,38.254,24.324,38.268,24.284z M37.186,23.355c0.051-0.094,0.1-0.188,0.147-0.283
			c0.219,0.069,0.431,0.15,0.632,0.246C37.71,23.418,37.436,23.43,37.186,23.355z M35.797,22.809
			c0.055,0.18,0.131,0.356,0.247,0.516c0.033,0.045,0.069,0.087,0.106,0.127c-0.032,0.054-0.067,0.104-0.101,0.157
			c-0.007,0.002-0.014,0.004-0.021,0.006c-0.121,0.048-0.215,0.107-0.311,0.114c0,0,0.202-0.134,0.237-0.342
			c0.005-0.037,0.005-0.068,0-0.098c-0.022-0.127-0.153-0.182-0.296-0.182c-0.08-0.002-0.161,0.023-0.23,0.059
			c0,0,0.002,0.001,0.004,0.001s0.006,0.001,0.01,0.001l0.002,0.001c0.021,0.005,0.055,0.016,0.084,0.043l0.004,0.002
			c0.014,0.013,0.025,0.029,0.037,0.052c0.007,0.011,0.012,0.026,0.016,0.041c0.003,0.011,0.007,0.019,0.007,0.031
			c0.003,0.016,0.001,0.033,0.001,0.052c0,0.01,0.002,0.017,0,0.028c-0.002,0.026-0.009,0.051-0.019,0.075
			c-0.003,0.01-0.009,0.017-0.013,0.023c-0.006,0.016-0.015,0.03-0.025,0.044c-0.006,0.006-0.014,0.014-0.02,0.022
			c-0.012,0.011-0.021,0.022-0.035,0.032l-0.025,0.019c-0.014,0.01-0.027,0.019-0.042,0.026c-0.009,0.005-0.021,0.009-0.031,0.015
			c-0.015,0.007-0.03,0.014-0.048,0.02c-0.01,0.005-0.021,0.008-0.031,0.012c-0.021,0.005-0.041,0.008-0.061,0.013l-0.029,0.006
			c-0.062,0.008-0.127,0.022-0.193,0.024c-0.27,0-0.666-0.105-0.799-0.283c-0.017-0.023-0.029-0.044-0.037-0.064
			c-0.009-0.021-0.014-0.04-0.016-0.059c-0.014-0.114,0.091-0.193,0.211-0.21c0.021-0.002,0.042-0.003,0.061-0.002h0.006
			c0.017,0.002,0.033,0.006,0.049,0.012l0.007,0.003c0.013,0.008,0.024,0.017,0.037,0.028l0.003,0.007
			c0.01,0.013,0.02,0.029,0.023,0.049c0.004,0.013,0.006,0.027,0.008,0.042c0.002,0.051-0.029,0.112-0.074,0.117
			c-0.016,0.003-0.025,0-0.037-0.002l-0.006-0.003c-0.01-0.003-0.018-0.009-0.021-0.016c-0.006-0.007-0.011-0.013-0.013-0.022
			c-0.014-0.064,0.048-0.041,0.063-0.065c0.002-0.004,0.005-0.009,0.004-0.013c0-0.011-0.004-0.018-0.008-0.022l-0.006-0.002
			c-0.004-0.004-0.009-0.005-0.015-0.007h-0.009h-0.016c-0.01,0.001-0.02,0.003-0.026,0.005c-0.068,0.009-0.099,0.06-0.083,0.117
			c0.015,0.053,0.078,0.128,0.176,0.115c0.018-0.002,0.033-0.006,0.048-0.012l0.011-0.005c0.025-0.013,0.051-0.032,0.069-0.056
			l0.007-0.01c0.006-0.01,0.01-0.018,0.016-0.028c0.002-0.005,0.004-0.009,0.006-0.014c0.004-0.011,0.007-0.021,0.009-0.031
			l0.003-0.016c0.003-0.017,0.004-0.034,0.003-0.053c-0.002-0.012-0.003-0.025-0.005-0.038c-0.002-0.013-0.007-0.026-0.012-0.038
			v-0.003c-0.006-0.009-0.008-0.02-0.014-0.028l-0.002-0.006c-0.007-0.011-0.013-0.021-0.021-0.029l-0.009-0.01
			c-0.006-0.007-0.012-0.013-0.021-0.019l-0.012-0.01c-0.009-0.006-0.017-0.011-0.024-0.016c-0.005-0.002-0.011-0.005-0.017-0.007
			c-0.009-0.005-0.019-0.009-0.03-0.012l-0.01-0.002c-0.014-0.002-0.025-0.003-0.04-0.004c-0.005-0.001-0.012-0.002-0.019-0.002
			c-0.021,0-0.045,0-0.069,0.004c-0.024,0.002-0.047,0.008-0.069,0.015l-0.021,0.007c-0.015,0.006-0.028,0.011-0.04,0.017
			l-0.021,0.011L34.189,23.1l-0.018,0.014l-0.025,0.023c-0.006,0.006-0.01,0.012-0.016,0.018c-0.008,0.009-0.015,0.02-0.021,0.029
			L34.1,23.2c-0.009,0.015-0.016,0.03-0.022,0.046l-0.001,0.006c-0.006,0.014-0.01,0.027-0.016,0.042v0.003
			c-0.004,0.02-0.008,0.037-0.01,0.056c-0.002,0.02-0.003,0.04-0.003,0.061c0-0.012-0.002-0.023-0.004-0.035
			c-0.024-0.102-0.149-0.228-0.269-0.312C34.458,22.868,35.143,22.788,35.797,22.809z M33.816,25.039
			c0.016,0.019,0.027,0.037,0.037,0.056c0.004,0.004,0.006,0.009,0.008,0.015c0.007,0.013,0.012,0.024,0.016,0.037
			c0.002,0.005,0.003,0.011,0.006,0.015c0.004,0.016,0.008,0.032,0.008,0.047l0,0c0,0.014,0,0.029-0.002,0.043l-0.002,0.013
			c-0.004,0.009-0.007,0.019-0.011,0.028c-0.001,0.003-0.001,0.006-0.003,0.01c-0.016,0.029-0.044,0.048-0.072,0.063
			c-0.059-0.021-0.119-0.039-0.18-0.057c-0.006-0.012-0.014-0.022-0.018-0.037c-0.021-0.045-0.014-0.107,0.021-0.119
			c0.012-0.005,0.021-0.004,0.029-0.002c0.012,0.002,0.021,0.008,0.027,0.016l0.002,0.003c0.004,0.004,0.008,0.009,0.01,0.015
			c0.024,0.05-0.01,0.048-0.024,0.062c-0.004,0.005-0.006,0.011-0.003,0.021c0.014,0.039,0.048,0.021,0.064,0.017
			c0.047-0.017,0.056-0.071,0.031-0.123c-0.023-0.044-0.076-0.098-0.14-0.094c-0.009,0.001-0.019,0.003-0.026,0.006
			c-0.068,0.023-0.104,0.102-0.07,0.207c-0.229-0.058-0.463-0.096-0.703-0.108c0.023-0.043,0.055-0.081,0.094-0.118
			c0.001-0.001,0.002-0.002,0.002-0.003c0.023-0.021,0.046-0.042,0.074-0.058c0.029-0.017,0.061-0.033,0.091-0.048
			c0.019-0.01,0.041-0.016,0.062-0.022l0.183-0.034C33.521,24.876,33.729,24.932,33.816,25.039z M33.375,23.496
			c0.002,0.021,0.004,0.041,0.009,0.061c0,0,0.003,0.007,0.003,0.01c0.004,0.018,0.012,0.034,0.021,0.049
			c-0.011-0.017-0.021-0.032-0.035-0.047l-0.009-0.008c-0.012-0.012-0.023-0.023-0.036-0.035l0,0
			c-0.017-0.013-0.033-0.024-0.052-0.036c-0.002-0.002-0.006-0.003-0.01-0.005c-0.016-0.009-0.031-0.016-0.05-0.021l0,0
			c-0.015-0.006-0.028-0.011-0.044-0.013c-0.007-0.001-0.015-0.003-0.023-0.005c-0.021-0.001-0.041-0.001-0.065,0h-0.005
			c-0.023,0.002-0.047,0.008-0.073,0.016H33c-0.025,0.008-0.055,0.019-0.08,0.033c-0.021,0.013-0.04,0.024-0.059,0.038
			c-0.004,0.004-0.01,0.008-0.014,0.012c-0.011,0.009-0.021,0.019-0.029,0.026c-0.004,0.005-0.01,0.011-0.014,0.016
			c-0.007,0.009-0.013,0.017-0.018,0.026l-0.01,0.014c-0.004,0.011-0.006,0.019-0.01,0.027l-0.004,0.014
			c-0.002,0.01-0.005,0.02-0.005,0.028l-0.002,0.013c-0.001,0.012,0,0.024,0.001,0.036l0.001,0.005
			c0.003,0.011,0.003,0.021,0.007,0.031v0.002c0.004,0.013,0.008,0.027,0.014,0.038c0.006,0.012,0.013,0.024,0.019,0.035
			c0.069,0.107,0.183,0.13,0.271,0.081c0.011-0.006,0.02-0.013,0.029-0.02c0.06-0.051,0.062-0.132,0.045-0.178
			c-0.02-0.054-0.074-0.079-0.136-0.046c-0.022,0.012-0.071,0.032-0.049,0.067c0.003,0.003,0.007,0.006,0.011,0.009
			c0.026,0.01,0.064-0.045,0.09,0.015c0.004,0.006,0.004,0.012,0.004,0.019l0.002,0.004c0,0.01-0.004,0.022-0.014,0.032
			c-0.006,0.009-0.015,0.018-0.029,0.025c-0.039,0.022-0.102-0.009-0.127-0.052c-0.008-0.016-0.016-0.03-0.021-0.044l-0.003-0.012
			c-0.002-0.011-0.004-0.019-0.004-0.027v-0.013c0.001-0.009,0.002-0.017,0.004-0.024l0.003-0.01
			c0.004-0.012,0.009-0.021,0.017-0.03c0.01-0.011,0.02-0.021,0.031-0.032c0.002-0.001,0.005-0.004,0.008-0.005
			c0.014-0.01,0.027-0.02,0.043-0.027c0.051-0.028,0.109-0.041,0.161-0.036c0.005,0,0.009,0.002,0.013,0.002
			c0.012,0.003,0.023,0.005,0.035,0.01c0.004,0,0.008,0.001,0.012,0.004c0.014,0.006,0.027,0.014,0.039,0.024v0.001
			c0.012,0.01,0.021,0.022,0.029,0.037l0.008,0.015c0.006,0.012,0.01,0.023,0.015,0.037c0.001,0.006,0.002,0.012,0.003,0.019
			c0.004,0.018,0.006,0.04,0.007,0.064c-0.003,0.223-0.269,0.538-0.485,0.695c-0.033,0.021-0.065,0.039-0.101,0.057
			c-0.031,0.016-0.062,0.031-0.092,0.046l-0.003,0.002c-0.107,0.049-0.217,0.069-0.312,0.047c-0.039-0.01-0.076-0.026-0.109-0.054
			c0,0-0.002-0.001-0.002-0.002c-0.014-0.011-0.027-0.019-0.041-0.033c-0.014-0.017-0.022-0.032-0.031-0.047
			c-0.004-0.006-0.01-0.012-0.014-0.019c-0.006-0.013-0.008-0.023-0.013-0.035l-0.002-0.006c-0.003-0.01-0.007-0.021-0.008-0.029
			c-0.004-0.025-0.003-0.048,0.001-0.068c0.01-0.04,0.031-0.069,0.044-0.085c0.001,0,0.003-0.002,0.003-0.002
			c0.003-0.003,0.005-0.006,0.008-0.007l0.002-0.005c-0.076,0.014-0.158,0.039-0.221,0.088c-0.145,0.102-0.219,0.257-0.079,0.398
			c0.132,0.131,0.334,0.139,0.382,0.141c0.006,0,0.01,0.001,0.01,0.001c-0.082,0.049-0.193,0.055-0.319,0.085
			c-0.121,0.039-0.265,0.094-0.396,0.237c-0.059,0.068-0.084,0.135-0.095,0.195c-0.614,0.209-1.155,0.572-1.575,1.052
			c0.532-1.395,1.831-2.638,3.581-3.242c-0.008,0.022-0.017,0.047-0.022,0.072c0,0.001,0,0.002,0,0.002
			c-0.008,0.025-0.014,0.051-0.02,0.076l-0.001,0.013c-0.004,0.025-0.007,0.051-0.01,0.075v0.006c-0.001,0.023-0.001,0.046,0,0.067
			L33.375,23.496z M23.639,30.146c0.003,0,0.007,0,0.01,0c0,0.095,0.001,0.188,0.008,0.281c-0.043-0.054-0.083-0.105-0.119-0.158
			C23.572,30.228,23.606,30.187,23.639,30.146z M24.986,30.761c-0.041-0.166-0.063-0.332-0.07-0.498
			c0.193,0.01,0.389,0.016,0.583,0.016c1.11,0,2.19-0.139,3.224-0.396c0,0.004,0,0.006,0,0.01c-0.043,0.652-0.914,1.224-1.935,1.896
			l-0.487,0.31C25.6,31.673,25.104,31.237,24.986,30.761z M31.717,30.708c0.064-0.01,0.122-0.044,0.159-0.126
			c0.076-0.166,0.013-0.368-0.001-0.413c-0.002-0.007-0.003-0.011-0.003-0.011c0.075,0.063,0.118,0.173,0.198,0.274
			c0.078,0.103,0.185,0.227,0.373,0.287c0.135,0.047,0.238,0.026,0.309-0.014c0.07-0.038,0.104-0.086,0.104-0.086
			c0.037,0.009,0.07,0.005,0.103-0.008c0.011-0.003,0.021-0.01,0.032-0.014c0.021,0.041,0.054,0.074,0.1,0.092
			c0,0,0.021,0.23,0.297,0.301c0.188,0.041,0.338,0.002,0.457-0.039l0,0c-0.148,0.204-0.305,0.412-0.468,0.624
			c-0.585-0.08-1.134-0.245-1.624-0.485C31.757,30.966,31.747,30.836,31.717,30.708z M36.043,27.494
			c-0.139-0.345-0.322-0.66-0.547-0.939c-0.061-0.254-0.069-0.516-0.025-0.771c0.348-0.393,0.672-0.805,0.973-1.237
			c0.133-0.038,0.207-0.156,0.207-0.156c0.022,0.006,0.043,0.004,0.064-0.002l0.09,0.026c0.014,0.017,0.031,0.03,0.051,0.038
			c0,0,0,0.058,0.024,0.125c0.027,0.063,0.071,0.148,0.17,0.194c0.138,0.061,0.252,0.071,0.365,0.064
			c0.114-0.009,0.207-0.011,0.282,0.023c0,0-0.002,0-0.008,0.001c-0.047,0.007-0.222,0.047-0.323,0.202
			c-0.104,0.162-0.067,0.283,0.024,0.334c0.045,0.022,0.092,0.039,0.146,0.042c0,0,0-0.002-0.001-0.003
			c-0.002,0-0.002-0.002-0.003-0.005c-0.001,0-0.001-0.002-0.001-0.002c-0.006-0.012-0.014-0.036-0.012-0.07
			c0.002-0.019,0.006-0.038,0.013-0.063c0.003-0.008,0.007-0.018,0.011-0.027c0.001-0.001,0.002-0.002,0.003-0.004
			c0.005-0.013,0.009-0.021,0.017-0.034c0.004-0.004,0.008-0.012,0.013-0.018c0.011-0.016,0.019-0.029,0.032-0.046
			c0.013-0.015,0.025-0.024,0.039-0.037l0.002-0.002c0.031-0.027,0.063-0.046,0.099-0.056c0.083-0.023,0.176,0,0.265,0.05
			l0.002,0.002c0.028,0.012,0.049,0.034,0.07,0.054c0.021,0.023,0.044,0.047,0.064,0.073c0.078,0.086,0.111,0.232,0.115,0.361
			c0.002,0.129-0.055,0.253-0.127,0.321c-0.018,0.016-0.033,0.027-0.05,0.039c-0.005,0.004-0.01,0.006-0.015,0.01
			c-0.012,0.008-0.023,0.014-0.036,0.02c-0.005,0.003-0.009,0.004-0.015,0.006c-0.016,0.008-0.029,0.012-0.043,0.014v0.002
			c-0.015,0.004-0.028,0.005-0.041,0.005h-0.012c-0.01,0-0.019,0-0.027-0.003c-0.002,0-0.006,0-0.008-0.002
			c-0.035-0.008-0.06-0.026-0.068-0.057c-0.004-0.009-0.006-0.017-0.01-0.025v-0.004c-0.002-0.01-0.004-0.019,0-0.027
			c0-0.007,0.004-0.014,0.008-0.021l0.002-0.009c0.005-0.006,0.01-0.013,0.014-0.019l0.007-0.008
			c0.007-0.008,0.013-0.014,0.021-0.021l0.009-0.009c0.012-0.01,0.022-0.018,0.038-0.027c0.043-0.027,0.104-0.037,0.119-0.012
			c0.006,0.009,0.006,0.018,0.005,0.025c-0.001,0.009-0.007,0.019-0.015,0.025l-0.002,0.003c-0.004,0.005-0.009,0.007-0.015,0.013
			c-0.045,0.027-0.044,0-0.06-0.008c-0.006-0.004-0.012-0.004-0.022,0.002c-0.036,0.02-0.014,0.043-0.01,0.058
			c0.014,0.036,0.065,0.03,0.112,0.002c0.041-0.027,0.093-0.083,0.088-0.14c-0.002-0.008-0.006-0.016-0.01-0.022
			c-0.035-0.058-0.125-0.071-0.23,0.005c-0.01,0.007-0.021,0.016-0.031,0.023s-0.021,0.019-0.029,0.026l-0.002,0.001
			c-0.007,0.008-0.015,0.016-0.021,0.021l-0.003,0.003c-0.007,0.009-0.015,0.018-0.022,0.026l-0.006,0.01
			c-0.005,0.007-0.009,0.014-0.014,0.021l-0.006,0.013l-0.008,0.019l-0.004,0.013c-0.002,0.006-0.004,0.014-0.006,0.021
			c-0.001,0.003-0.001,0.008-0.002,0.011c0,0.008,0,0.015,0.001,0.022c0,0.002,0,0.006,0.001,0.011
			c0.004,0.01,0.008,0.021,0.012,0.03c0.004,0.015,0.011,0.025,0.021,0.035h0.002c0.009,0.01,0.019,0.018,0.029,0.022l0.006,0.001
			c0.012,0.005,0.022,0.011,0.036,0.013l0.016,0.003c0.01,0,0.021,0.002,0.032,0.002c0.019,0,0.03,0,0.046,0h0.008
			c0.034-0.002,0.071-0.009,0.102-0.016c0.004,0,0.009-0.001,0.012-0.002c0.018-0.003,0.036-0.009,0.054-0.016
			c-0.015,0.007-0.03,0.015-0.049,0.021l-0.008,0.006c-0.019,0.01-0.035,0.021-0.052,0.03l-0.01,0.006
			c-0.016,0.013-0.033,0.024-0.052,0.037c-0.002,0.001-0.004,0.003-0.004,0.004c-0.019,0.015-0.037,0.027-0.056,0.042l-0.01,0.008
			c-0.018,0.016-0.035,0.029-0.054,0.045h-0.001c-0.018,0.015-0.033,0.028-0.049,0.041l-0.006,0.004
			c-0.014,0.014-0.028,0.025-0.041,0.039l-0.005,0.004c-0.023,0.021-0.04,0.039-0.048,0.051c0,0.001,0,0.002-0.002,0.003
			c-0.002,0.005-0.004,0.011-0.002,0.013c0,0.02,0.086,0.028,0.199,0.036c0.066,0.006,0.144,0.009,0.213,0.009l0.084,0.014
			c-0.01,0.004-0.018,0.008-0.026,0.013l-0.003,0.002c-0.012,0.005-0.023,0.013-0.036,0.019c-0.002,0.002-0.003,0.002-0.004,0.002
			c-0.013,0.008-0.024,0.017-0.037,0.024c-0.003,0.003-0.009,0.006-0.011,0.008l-0.022,0.017c-0.003,0.006-0.007,0.008-0.012,0.013
			l-0.017,0.018l-0.009,0.011l-0.012,0.02l-0.005,0.012c-0.002,0.008-0.006,0.014-0.006,0.02c0,0.005-0.002,0.009,0,0.012
			c-0.002,0.012,0,0.021,0.002,0.032c0.004,0.013,0.005,0.022,0.01,0.034c0.002,0.002,0.003,0.006,0.005,0.009
			c0.003,0.006,0.008,0.012,0.013,0.019c0.002,0.004,0.004,0.006,0.008,0.008c0.004,0.006,0.01,0.01,0.015,0.015
			c0.003,0.003,0.006,0.005,0.011,0.008l0.02,0.01l0.011,0.007c0.008,0.004,0.017,0.006,0.024,0.01l0.01,0.004
			c0.012,0.004,0.021,0.006,0.033,0.01l0.006,0.001l0.029,0.006h0.002c0.012,0.001,0.027,0.003,0.041,0.004s0.025,0.001,0.039,0.001
			c0.018,0,0.034-0.002,0.051-0.005l0.014-0.003c0.011-0.003,0.021-0.005,0.029-0.008c0.006-0.002,0.01-0.002,0.014-0.006
			c0.01-0.004,0.018-0.008,0.025-0.012c0.004-0.002,0.006-0.004,0.01-0.007c0.02-0.014,0.033-0.032,0.041-0.052l0.003-0.006
			c0.004-0.012,0.006-0.023,0.005-0.035l0,0c-0.008-0.066-0.104-0.09-0.156-0.086c-0.057,0.004-0.102,0.029-0.091,0.066l0,0
			c0.001,0.004,0.002,0.01,0.002,0.016c0.001,0.003,0.001,0.005,0.003,0.008l0.001,0.005c0.002,0.003,0.004,0.007,0.009,0.009
			l0.002,0.002c0.006,0.002,0.014,0.004,0.022,0.002c0.006,0,0.01-0.002,0.013-0.004c0.021-0.014-0.012-0.045,0.051-0.047
			c0.01,0,0.019,0,0.025,0.002c0.009,0.004,0.016,0.006,0.021,0.012l0.002,0.002c0.004,0.008,0.01,0.015,0.01,0.022
			c0.003,0.029-0.053,0.058-0.102,0.06c-0.017,0.002-0.031,0.002-0.043,0.002c-0.02-0.002-0.037-0.006-0.053-0.01l-0.007-0.002
			c-0.013-0.004-0.024-0.011-0.034-0.017l-0.004-0.004c-0.008-0.006-0.016-0.015-0.02-0.022c0-0.002,0-0.002-0.002-0.002
			c-0.004-0.012-0.006-0.021-0.01-0.031c-0.017-0.061,0.034-0.127,0.146-0.151c0.037-0.009,0.08-0.013,0.131-0.005
			c0.098,0.014,0.215,0.082,0.29,0.188c0.071,0.105,0.13,0.244,0.116,0.361c-0.004,0.057-0.01,0.111-0.027,0.164l-0.011,0.021
			c-0.009,0.017-0.017,0.031-0.024,0.047l-0.017,0.024c-0.009,0.013-0.017,0.024-0.026,0.036c-0.007,0.007-0.014,0.014-0.021,0.021
			c-0.01,0.011-0.021,0.02-0.03,0.027c-0.009,0.004-0.017,0.01-0.022,0.016c-0.012,0.008-0.024,0.013-0.037,0.018
			c-0.01,0.004-0.018,0.008-0.025,0.01c-0.016,0.006-0.029,0.006-0.045,0.006c-0.01,0.002-0.018,0.002-0.026,0.002
			c-0.024,0-0.051-0.002-0.077-0.01c-0.011-0.004-0.018-0.007-0.027-0.01c-0.016-0.006-0.034-0.012-0.047-0.018
			c-0.012-0.004-0.021-0.01-0.028-0.016c-0.013-0.007-0.026-0.014-0.036-0.021c-0.018-0.014-0.032-0.026-0.042-0.038l-0.003-0.003
			c-0.021-0.027-0.028-0.051-0.031-0.063c0-0.002-0.001-0.003,0-0.004c-0.001-0.001-0.002-0.004-0.001-0.006
			c0-0.001,0-0.002,0-0.002c-0.041,0.032-0.071,0.075-0.095,0.116c-0.037,0.08-0.018,0.173,0.089,0.244
			c0.022,0.018,0.052,0.03,0.085,0.045c0.077,0.026,0.146,0.028,0.208,0.021C37.643,28.17,36.672,28.079,36.043,27.494z
			 M39.904,26.89c0.006,0,0.012,0,0.017-0.002h0.003c0.01-0.002,0.02-0.006,0.03-0.008l0.005-0.003
			c0.012-0.004,0.023-0.009,0.034-0.016l0.011-0.009c0.008-0.006,0.016-0.012,0.023-0.02l0.012-0.012
			c0.006-0.008,0.013-0.016,0.02-0.025c0.004-0.005,0.008-0.012,0.01-0.017c0.007-0.011,0.013-0.021,0.018-0.033l0.01-0.021
			c0.004-0.015,0.008-0.03,0.012-0.045c0.002-0.008,0.002-0.015,0.004-0.022c0.004-0.024,0.01-0.052,0.009-0.082
			c0-0.01-0.002-0.021-0.003-0.028c0.023-0.027,0.05-0.052,0.076-0.076c0.021,0.483-0.055,0.97-0.221,1.438
			C39.787,27.597,39.77,27.22,39.904,26.89z M38.529,21.531c0.334,0.462,0.266,1.092-0.129,1.5
			c-0.271-0.147-0.558-0.271-0.859-0.371c0.227-0.473,0.422-0.963,0.591-1.467C38.285,21.272,38.424,21.384,38.529,21.531z
			 M13.016,16.948c0-6.884,5.6-12.483,12.483-12.483s12.483,5.6,12.483,12.483c0,1.204-0.174,2.366-0.494,3.467
			c-0.344,0.023-0.688,0.136-0.989,0.354c-0.528,0.382-0.804,0.983-0.785,1.579c-0.739-0.016-1.513,0.093-2.28,0.339
			c-2.216,0.71-3.791,2.379-4.205,4.189c-0.789-0.625-1.804-1.042-2.937-1.126c-1.385-0.104-2.671,0.307-3.624,1.047
			c-0.938-0.42-2.302-0.841-3.583-1.13c-0.255-0.347-0.585-0.647-0.984-0.874c-0.099-0.057-0.202-0.107-0.306-0.152
			c0.214-0.211,0.335-0.461,0.016-0.642c-0.193-0.11-0.454-0.259-0.746-0.424c0.015-0.034,0.028-0.066,0.036-0.099
			c0.154-0.543,0.32-1.127,0.42-1.478c0.1-0.352-0.494-0.726-0.792-0.449c-0.298,0.277-0.856,0.906-1.062,1.136
			c-0.015,0.017-0.031,0.042-0.048,0.07c-0.282-0.16-0.543-0.308-0.751-0.426c-0.049-0.029-0.094-0.047-0.136-0.06
			c0.02-0.579,0.057-1.096,0.068-1.191c0.025-0.193,0.095-0.27,0.095-0.27s-0.103,0.059-0.279,0.031
			c-0.081-0.011-0.529-0.095-1.046-0.201C13.211,19.473,13.016,18.234,13.016,16.948z M13.239,22.176
			c-0.167-0.04-0.336-0.067-0.505-0.079c0.083-0.433,0.062-0.885-0.071-1.316c0.025,0.006,0.051,0.012,0.076,0.019
			C12.881,21.268,13.047,21.728,13.239,22.176z M8.502,22.812c-0.728-0.914-0.577-2.246,0.337-2.974s2.246-0.577,2.973,0.337
			c0.448,0.563,0.561,1.284,0.369,1.925c-0.95,0.093-1.841,0.611-2.381,1.471C9.306,23.487,8.838,23.235,8.502,22.812z M8.68,25.87
			c0.04-0.393,0.301-1.338,0.281-2.033c0.188,0.101,0.386,0.17,0.588,0.223c-0.244,0.598-0.292,1.237-0.167,1.84
			C9.104,25.898,8.852,25.898,8.68,25.87z M11.218,27.492c-0.462-0.264-0.813-0.646-1.033-1.092
			c0.335-0.025,0.569-0.021,0.569-0.021c0.079,0.146,0.17,0.289,0.277,0.424c0.446,0.562,1.063,0.898,1.709,1.006
			C12.217,27.859,11.684,27.757,11.218,27.492z M13.986,27.83l-0.013-0.116c0.018-0.005,0.036-0.012,0.054-0.018
			c0.004,0.187,0.021,0.376,0.05,0.571C14.035,28.125,14.002,27.978,13.986,27.83z M20.594,31.644
			c-0.023-0.006-0.037-0.008-0.063-0.015c-0.05-0.012-0.102-0.021-0.152-0.034c0.053-0.119,0.096-0.242,0.126-0.375
			c0.216-0.946-0.27-1.889-1.112-2.287c0.019-0.037,0.039-0.075,0.056-0.113c0.527,0.27,1.074,0.505,1.638,0.703
			c-0.006,0.05-0.016,0.099-0.02,0.148c-0.035,0.469,0.022,0.922,0.149,1.356C21.005,31.234,20.796,31.439,20.594,31.644z
			 M29.271,33.505c-0.064-0.027-0.127-0.056-0.192-0.082c0.399-0.277,0.746-0.611,1.028-0.986l0.4,1.606
			C30.09,33.859,29.677,33.679,29.271,33.505z M31.719,33.656l-0.404-1.618c0.146-0.139,0.258-0.308,0.334-0.489
			c0.435,0.201,0.908,0.35,1.406,0.438c-0.193,0.244-0.394,0.492-0.595,0.742C32.216,33.031,31.968,33.341,31.719,33.656z
			 M34.951,31.587c0.088-0.121,0.172-0.246,0.254-0.365c-0.003,0.01-0.007,0.02-0.008,0.029l-0.004,0.016
			c-0.002,0.016-0.004,0.033-0.002,0.052c0,0.012,0.002,0.024,0.006,0.039c0.002,0.013,0.007,0.026,0.011,0.038v0.003
			c0.005,0.01,0.008,0.019,0.013,0.028l0.002,0.004c0.008,0.012,0.014,0.021,0.021,0.03l0.008,0.011
			c0.006,0.006,0.013,0.013,0.021,0.02l0.014,0.009c0.007,0.007,0.015,0.011,0.023,0.017c0.004,0,0.01,0.004,0.017,0.007
			c0.006,0.003,0.014,0.006,0.021,0.008C35.213,31.554,35.082,31.572,34.951,31.587z M35.588,31.403
			c-0.031,0.015-0.064,0.026-0.102,0.032c-0.021,0.002-0.041,0.002-0.06,0h-0.005c-0.02,0-0.035-0.006-0.049-0.01l-0.007-0.004
			c-0.015-0.006-0.026-0.017-0.037-0.027l-0.004-0.006c-0.011-0.014-0.019-0.028-0.024-0.051c-0.004-0.013-0.006-0.025-0.007-0.041
			c-0.003-0.051,0.028-0.111,0.074-0.119c0.015,0,0.026,0.002,0.036,0.004l0.006,0.004c0.01,0.002,0.017,0.008,0.021,0.015
			c0.006,0.008,0.01,0.017,0.012,0.022c0.015,0.063-0.047,0.043-0.062,0.065c-0.002,0.004-0.003,0.008-0.004,0.015
			c0.001,0.01,0.004,0.016,0.008,0.021l0.006,0.003c0.004,0.003,0.008,0.003,0.016,0.006h0.009l0.015-0.001
			c0.01-0.002,0.021-0.002,0.026-0.003c0.067-0.008,0.099-0.061,0.083-0.116c-0.016-0.054-0.079-0.129-0.176-0.116
			c-0.018,0.002-0.034,0.006-0.049,0.015l-0.01,0.003c-0.021,0.011-0.041,0.025-0.058,0.046c0.05-0.076,0.101-0.151,0.147-0.228
			c0.109,0.047,0.201,0.104,0.252,0.174c0.013,0.018,0.021,0.031,0.028,0.048l-0.04,0.014l0.047,0.146
			C35.648,31.341,35.617,31.37,35.588,31.403z M36.084,29.552c0.016-0.043,0.025-0.086,0.038-0.129
			c0.024,0.043,0.071,0.086,0.128,0.08c0.009,0,0.018-0.001,0.025-0.005c0.076-0.026,0.115-0.112,0.062-0.233
			c-0.004-0.013-0.01-0.023-0.016-0.037c-0.006-0.01-0.014-0.022-0.021-0.033L36.3,29.193c-0.005-0.008-0.012-0.018-0.018-0.023
			l-0.003-0.004c-0.008-0.008-0.016-0.018-0.024-0.025l-0.01-0.008c-0.007-0.005-0.013-0.01-0.021-0.016l-0.012-0.007
			c-0.003-0.002-0.006-0.005-0.009-0.007c0.047-0.229,0.065-0.453,0.056-0.676c0.575,0.26,1.24,0.303,1.865,0.112
			c-0.001,0.021-0.001,0.037,0.002,0.056c-0.012,0.002-0.021,0.002-0.031,0.006c-0.031,0.007-0.06,0.021-0.08,0.043
			c0,0-0.217-0.094-0.373,0.061c-0.115,0.104-0.168,0.214-0.201,0.324c-0.041,0.104-0.067,0.199-0.127,0.263
			c0,0,0-0.003,0.002-0.009c0.01-0.047,0.031-0.232-0.076-0.379c-0.116-0.161-0.25-0.152-0.34-0.073
			c-0.039,0.037-0.078,0.082-0.103,0.138c0,0,0.002,0,0.003,0c0.001-0.002,0.004-0.002,0.006-0.002s0.002-0.002,0.004-0.002
			c0.015-0.003,0.041-0.007,0.076,0.006c0.018,0.006,0.037,0.014,0.059,0.027c0.008,0.006,0.017,0.014,0.023,0.021
			c0,0,0.002,0.002,0.004,0.004c0.01,0.007,0.02,0.015,0.027,0.025c0.003,0.004,0.009,0.012,0.014,0.018
			c0.012,0.014,0.022,0.027,0.033,0.045c0.01,0.017,0.016,0.031,0.021,0.048v0.004c0.016,0.037,0.021,0.074,0.021,0.11
			c-0.005,0.09-0.06,0.175-0.135,0.246c-0.001,0.002-0.002,0.002-0.002,0.004c-0.022,0.02-0.046,0.041-0.074,0.057
			c-0.028,0.02-0.06,0.034-0.091,0.047C36.579,29.73,36.23,29.687,36.084,29.552z M37.079,30.966
			c0.002-0.004,0.004-0.007,0.005-0.008l0.008-0.017c0.004-0.009,0.008-0.017,0.012-0.025l0.004-0.015
			c0.002-0.01,0.004-0.02,0.004-0.027l0.002-0.014c0.002-0.012,0-0.024-0.002-0.036v-0.004c-0.002-0.013-0.004-0.021-0.006-0.032
			l-0.002-0.002c-0.002-0.012-0.008-0.025-0.014-0.038c-0.005-0.014-0.013-0.022-0.018-0.032c-0.069-0.109-0.184-0.132-0.271-0.082
			c-0.011,0.006-0.021,0.012-0.028,0.019c-0.061,0.051-0.063,0.132-0.047,0.178c0.02,0.056,0.074,0.08,0.135,0.048
			c0.022-0.013,0.074-0.033,0.05-0.068c-0.003-0.004-0.009-0.006-0.011-0.008c-0.026-0.011-0.063,0.045-0.09-0.017
			c-0.002-0.005-0.004-0.012-0.004-0.019l-0.002-0.002c0-0.012,0.004-0.023,0.012-0.033c0.007-0.01,0.017-0.02,0.029-0.027
			c0.041-0.021,0.104,0.012,0.129,0.055c0.008,0.016,0.016,0.028,0.02,0.043L37,30.812c0.002,0.011,0.004,0.02,0.004,0.027v0.014
			c-0.001,0.008-0.002,0.017-0.005,0.023l-0.003,0.01c-0.003,0.01-0.01,0.021-0.016,0.029c-0.01,0.014-0.021,0.021-0.032,0.032
			c-0.003,0.002-0.005,0.004-0.007,0.007c-0.014,0.01-0.027,0.02-0.043,0.025c-0.053,0.029-0.109,0.041-0.162,0.037
			c-0.004,0-0.008-0.002-0.012-0.002c-0.01-0.002-0.021-0.006-0.031-0.01l-0.053-0.166l-0.059,0.021
			c-0.003-0.019-0.006-0.034-0.006-0.058c0-0.025,0.005-0.057,0.013-0.086l0.183-0.326c0.088-0.108,0.193-0.213,0.291-0.281
			c0.033-0.021,0.065-0.04,0.1-0.059c0.031-0.015,0.061-0.029,0.092-0.046l0.004-0.002c0.107-0.048,0.217-0.067,0.311-0.047
			c0.041,0.009,0.076,0.027,0.109,0.054c0.002,0.002,0.002,0.002,0.004,0.004c0.012,0.01,0.026,0.02,0.039,0.032
			c0.014,0.017,0.022,0.031,0.032,0.048c0.003,0.006,0.009,0.012,0.013,0.019c0.006,0.013,0.008,0.022,0.012,0.034l0.002,0.006
			c0.004,0.01,0.008,0.021,0.009,0.031c0.005,0.023,0.003,0.047-0.001,0.066c-0.01,0.04-0.031,0.069-0.043,0.084
			c-0.001,0.001-0.002,0.002-0.003,0.004c-0.003,0.002-0.005,0.004-0.007,0.006c0,0.002-0.004,0.004-0.004,0.004
			c0.076-0.014,0.16-0.039,0.222-0.088c0.144-0.102,0.22-0.258,0.079-0.397c-0.131-0.13-0.334-0.14-0.381-0.142
			c-0.008,0-0.012,0-0.012,0c0.082-0.05,0.193-0.057,0.319-0.088c0.12-0.035,0.265-0.091,0.396-0.233
			c0.183-0.216,0.064-0.416,0.064-0.416c0.021-0.031,0.03-0.064,0.03-0.101c0-0.011-0.001-0.021-0.001-0.033
			c0.044-0.006,0.088-0.022,0.121-0.061c0,0,0.055,0.02,0.134,0.01c0.081-0.009,0.178-0.053,0.259-0.17
			c0.118-0.158,0.132-0.32,0.137-0.449c0.002-0.062-0.002-0.119-0.006-0.172c0.02-0.016,0.038-0.031,0.057-0.047
			c0.002,0.004,0.002,0.008,0.004,0.014c0.039,0.072,0.1,0.164,0.188,0.215c0.009,0.005,0.017,0.005,0.022,0.008
			c0.037,0.066,0.074,0.135,0.119,0.197c0.055,0.074,0.115,0.143,0.178,0.205C39.13,29.56,38.232,30.408,37.079,30.966z
			 M41.678,28.246c-0.42,0.303-0.962,0.298-1.359,0.036c0.275-0.672,0.391-1.379,0.315-2.079c0.483-0.17,1.032-0.025,1.339,0.398
			C42.346,27.121,42.214,27.857,41.678,28.246z"/>
	</g>
</g>
</svg>