<?xml version="1.0" encoding="utf-8"?>

<!-- Uploaded to: SVG Repo, www.svgrepo.com, Generator: SVG Repo Mixer Tools -->
<svg fill="#000000" height="800px" width="800px" version="1.1" id="Icons" xmlns="http://www.w3.org/2000/svg" xmlns:xlink="http://www.w3.org/1999/xlink" 
	 viewBox="0 0 32 32" xml:space="preserve">
<path d="M16,2C8.3,2,2,8.3,2,16s6.3,14,14,14s14-6.3,14-14S23.7,2,16,2z M10.5,21c-0.3,0-0.5-0.1-0.7-0.3l-3.1-3.2c-1-1-1-2.7,0-3.7
	c1-1,2.7-1,3.6,0l0.2,0.2l0.2-0.2c1-1,2.7-1,3.6,0c1,1,1,2.7,0,3.7l-3.1,3.2C11,20.9,10.8,21,10.5,21z M19.3,21.8
	C18.4,22.6,17.2,23,16,23s-2.4-0.4-3.3-1.2c-0.4-0.4-0.5-1-0.1-1.4c0.4-0.4,1-0.5,1.4-0.1c0.4,0.3,1.1,0.8,2,0.8s1.6-0.4,2-0.8
	c0.4-0.4,1-0.3,1.4,0.1C19.7,20.8,19.7,21.4,19.3,21.8z M25.3,17.4l-3.1,3.2C22,20.9,21.8,21,21.5,21s-0.5-0.1-0.7-0.3l-3.1-3.2
	c-1-1-1-2.7,0-3.7c1-1,2.7-1,3.6,0l0.2,0.2l0.2-0.2c1-1,2.7-1,3.6,0C26.2,14.8,26.2,16.4,25.3,17.4z"/>
</svg>