<?xml version="1.0" ?>
<!-- Uploaded to: SVG Repo, www.svgrepo.com, Generator: SVG Repo Mixer Tools -->
<svg fill="#000000" width="800px" height="800px" viewBox="0 0 512 512" id="Capa_1" version="1.1" xml:space="preserve" xmlns="http://www.w3.org/2000/svg" xmlns:xlink="http://www.w3.org/1999/xlink">
<g>
<path d="M222.6,261.4c0-13.2-11.4-23.7-24.9-22.2c-10.4,1.2-18.8,9.7-19.7,20.1c-0.7,8.1,2.8,15.4,8.7,19.9c1.2,0.9,1.9,2.4,1.9,4   c0,7.8,0,25.9,0,36.1c0,2.8,2.2,5,5,5h13.3c2.8,0,5-2.2,5-5v-36.1c0-1.5,0.7-3,1.9-3.9C219.1,275.1,222.6,268.6,222.6,261.4z"/>
<circle cx="294.4" cy="212.2" r="15"/>
<circle cx="106" cy="212.2" r="15"/>
<circle cx="200.2" cy="390.1" r="15"/>
<path d="M389.9,383.2c-0.1-0.3-0.3-0.6-0.5-0.9c-0.2-0.3-0.4-0.5-0.6-0.8c-0.2-0.2-0.5-0.4-0.8-0.6c-0.3-0.2-0.6-0.3-0.9-0.5   c-0.3-0.1-0.6-0.2-0.9-0.3c-0.6-0.1-1.3-0.1-2,0c-0.3,0.1-0.6,0.2-0.9,0.3c-0.3,0.1-0.6,0.3-0.9,0.5c-0.3,0.2-0.5,0.4-0.8,0.6   c-0.2,0.2-0.4,0.5-0.6,0.8c-0.2,0.3-0.3,0.6-0.5,0.9c-0.1,0.3-0.2,0.6-0.3,0.9c-0.1,0.3-0.1,0.6-0.1,1c0,0.3,0,0.7,0.1,1   c0.1,0.3,0.2,0.6,0.3,0.9c0.1,0.3,0.3,0.6,0.5,0.9c0.2,0.3,0.4,0.5,0.6,0.8c0.2,0.2,0.5,0.4,0.8,0.6c0.3,0.2,0.6,0.3,0.9,0.5   c0.3,0.1,0.6,0.2,0.9,0.3c0.3,0.1,0.7,0.1,1,0.1c0.3,0,0.7,0,1-0.1c0.3-0.1,0.6-0.2,0.9-0.3c0.3-0.1,0.6-0.3,0.9-0.5   c0.3-0.2,0.5-0.4,0.8-0.6c0.2-0.2,0.4-0.5,0.6-0.8c0.2-0.3,0.3-0.6,0.5-0.9c0.1-0.3,0.2-0.6,0.3-0.9c0.1-0.3,0.1-0.6,0.1-1   c0-0.3,0-0.7-0.1-1C390.1,383.8,390,383.5,389.9,383.2z"/>
<path d="M442.1,372c-0.1-0.3-0.3-0.6-0.5-0.9c-0.2-0.3-0.4-0.5-0.6-0.8c-0.2-0.2-0.5-0.4-0.8-0.6c-0.3-0.2-0.6-0.3-0.9-0.5   c-0.3-0.1-0.6-0.2-0.9-0.3c-0.7-0.1-1.3-0.1-2,0c-0.3,0.1-0.6,0.2-0.9,0.3c-0.3,0.1-0.6,0.3-0.9,0.5c-0.3,0.2-0.5,0.4-0.8,0.6   c-0.9,0.9-1.5,2.2-1.5,3.5c0,0.3,0,0.7,0.1,1c0.1,0.3,0.2,0.6,0.3,0.9c0.1,0.3,0.3,0.6,0.5,0.9c0.2,0.3,0.4,0.5,0.6,0.8   c0.9,0.9,2.2,1.5,3.5,1.5c0.3,0,0.7,0,1-0.1c0.3-0.1,0.6-0.2,0.9-0.3c0.3-0.1,0.6-0.3,0.9-0.5c0.3-0.2,0.5-0.4,0.8-0.6   c0.2-0.2,0.4-0.5,0.6-0.8c0.2-0.3,0.3-0.6,0.5-0.9c0.1-0.3,0.2-0.6,0.3-0.9c0.1-0.3,0.1-0.7,0.1-1c0-0.3,0-0.7-0.1-1   C442.3,372.6,442.2,372.3,442.1,372z"/>
<path d="M378.7,435.4c-0.1-0.3-0.3-0.6-0.5-0.9c-0.2-0.3-0.4-0.5-0.6-0.8c-0.2-0.2-0.5-0.4-0.8-0.6c-0.3-0.2-0.6-0.3-0.9-0.5   c-0.3-0.1-0.6-0.2-0.9-0.3c-0.6-0.1-1.3-0.1-1.9,0c-0.3,0.1-0.6,0.2-0.9,0.3c-0.3,0.1-0.6,0.3-0.9,0.5c-0.3,0.2-0.5,0.4-0.8,0.6   c-0.2,0.2-0.4,0.5-0.6,0.8c-0.2,0.3-0.3,0.6-0.5,0.9c-0.1,0.3-0.2,0.6-0.3,0.9c-0.1,0.3-0.1,0.7-0.1,1c0,0.3,0,0.7,0.1,1   c0.1,0.3,0.2,0.6,0.3,0.9c0.1,0.3,0.3,0.6,0.5,0.9c0.2,0.3,0.4,0.5,0.6,0.8c0.2,0.2,0.5,0.4,0.8,0.6c0.3,0.2,0.6,0.3,0.9,0.5   c0.3,0.1,0.6,0.2,0.9,0.3c0.3,0.1,0.6,0.1,1,0.1c0.3,0,0.7,0,1-0.1c0.3-0.1,0.6-0.2,0.9-0.3c0.3-0.1,0.6-0.3,0.9-0.5   c0.3-0.2,0.5-0.4,0.8-0.6c0.2-0.2,0.4-0.5,0.6-0.8c0.2-0.3,0.3-0.6,0.5-0.9c0.1-0.3,0.2-0.6,0.3-0.9c0.1-0.3,0.1-0.7,0.1-1   c0-0.3,0-0.6-0.1-1C379,436,378.9,435.7,378.7,435.4z"/>
<path d="M467.5,383.1c2-2,2-5.1,0-7.1L435.4,344c-2-2-5.1-2-7.1,0c-6.6,6.6-17.3,6.6-23.9,0c-2-2-5.1-2-7.1,0l-40.7,40.7l-4.3-4.3   c-1.2-1.2-1.8-2.7-1.8-4.3c0-1.6,0.6-3.2,1.8-4.3l3.9-3.9c3-3,4.7-7.1,4.7-11.4c0-4.3-1.7-8.4-4.7-11.4c-6.3-6.3-16.5-6.3-22.8,0   l-3.9,3.9c-2.4,2.4-6.3,2.4-8.6,0c-2.4-2.4-2.4-6.3,0-8.6l3.9-3.9c6.3-6.3,6.3-16.5,0-22.8s-16.5-6.3-22.8,0l-3.9,3.9   c-2.4,2.4-6.3,2.4-8.6,0c-2.4-2.4-2.4-6.3,0-8.6l3.9-3.9c6.3-6.3,6.3-16.5,0-22.8c-6.3-6.3-16.5-6.3-22.8,0l-3.9,3.9   c-2.4,2.4-6.3,2.4-8.6,0l-7.1-7.1c-1.8-1.8-2.3-4.4-1.3-6.7l11.8-27.5c0.8-1.9,2.4-3.2,4.5-3.6c2-0.4,4,0.2,5.5,1.7l102,102   c2,2,5.1,2,7.1,0c2-2,2-5.1,0-7.1l-38.1-38.1c23.3-37.1,18.5-85.5-12.1-116.6c-16.6-16.9-38.8-26.8-62.4-28c-2.7-0.1-5.4-0.1-8,0   v-29.2c0-32.8-26.3-59.9-58.7-60.4c-16-0.3-31.2,5.8-42.7,17.1c-11.5,11.3-17.8,26.4-17.8,42.4v30.1c-2.7-0.1-5.3-0.1-8,0   c-1.4,0.1-2.8,0.2-4.2,0.3V126c0-39.8,31.9-72.4,71.1-72.8c19.3-0.2,37.5,7.2,51.2,20.8c13.7,13.6,21.3,31.7,21.3,51v12.8   c0,2.8,2.2,5,5,5s5-2.2,5-5v-12.8c0-22-8.6-42.6-24.3-58.1c-15.6-15.5-36.4-23.9-58.3-23.7c-44.7,0.4-81,37.6-81,82.8V157   c-18.2,3.7-35,12.7-48.2,26.2c-15,15.2-24.4,35.4-26.4,56.8c-1.8,19.7,2.6,39.8,12.5,56.9C48,307,43.1,320,43.1,334.1   c0,32.8,26.7,59.4,59.4,59.4c13,0,25-4.2,34.8-11.3l52.3,52.3c2.9,2.9,6.8,4.4,10.6,4.4c3.8,0,7.7-1.5,10.6-4.4l86.7-86.7   c2-2,2-5.1,0-7.1c-2-2-5.1-2-7.1,0l-86.7,86.7c-1.9,1.9-5.1,1.9-7.1,0l-51.8-51.8c10.5-10.7,17.1-25.4,17.1-41.6   c0-32.8-26.7-59.4-59.4-59.4c-14.9,0-28.5,5.5-38.9,14.6c-17.6-32.7-12.4-72.7,13.7-99.1c30.8-31.3,79.5-33.8,113.4-5.9   c5.5,4.6,13.6,4.6,19.1,0c33.8-27.9,82.5-25.3,113.4,5.9c26.8,27.2,31.4,69.4,11.9,102.3l-56.7-56.7c-3.8-3.8-9.2-5.4-14.4-4.4   c-5.3,1-9.7,4.6-11.8,9.5l-11.8,27.5c-2.6,6.1-1.3,13,3.4,17.7l7.1,7.1c6.3,6.3,16.5,6.3,22.8,0l3.9-3.9c1.2-1.2,2.7-1.8,4.3-1.8   c1.6,0,3.2,0.6,4.3,1.8c1.2,1.2,1.8,2.7,1.8,4.3c0,1.6-0.6,3.2-1.8,4.3l-3.9,3.9c-6.3,6.3-6.3,16.5,0,22.8s16.5,6.3,22.8,0l3.9-3.9   c1.2-1.2,2.7-1.8,4.3-1.8c1.6,0,3.2,0.6,4.3,1.8c2.4,2.4,2.4,6.3,0,8.6l-3.9,3.9c-6.3,6.3-6.3,16.5,0,22.8s16.5,6.3,22.8,0l3.9-3.9   c2.4-2.4,6.3-2.4,8.6,0c2.4,2.4,2.4,6.3,0,8.6l-3.9,3.9c-3,3-4.7,7.1-4.7,11.4s1.7,8.4,4.7,11.4l4.3,4.3l-5.4,5.4   c-0.9,0.9-1.5,2.2-1.5,3.5s0.5,2.6,1.5,3.5c6.6,6.6,6.6,17.3,0,23.9c-2,2-2,5.1,0,7.1l32.1,32.1c2,2,5.1,2,7.1,0   c6.6-6.6,17.3-6.6,23.9,0c1,1,2.3,1.5,3.5,1.5s2.6-0.5,3.5-1.5l23.1-23.1l13.5,13.5c1,1,2.3,1.5,3.5,1.5s2.6-0.5,3.5-1.5   c2-2,2-5.1,0-7.1l-13.5-13.5l23.1-23.1c2-2,2-5.1,0-7.1C460.9,400.4,460.9,389.7,467.5,383.1z M66.9,330.3c2-2,5.1-2,7.1,0   l19.3,19.3L131,312c2-2,5.1-2,7.1,0c2,2,2,5.1,0,7.1l-41.2,41.2c-1,1-2.3,1.5-3.5,1.5s-2.6-0.5-3.5-1.5l-22.9-22.9   C65,335.5,65,332.3,66.9,330.3z M249.8,156c-17,2.4-33,9.4-46.4,20.5c-1.9,1.5-4.5,1.5-6.4,0c-13.4-11-29.4-18.1-46.4-20.5v-31   c0-13.4,5.3-25.9,14.8-35.3c9.5-9.4,22.2-14.5,35.5-14.3c26.9,0.4,48.8,23,48.8,50.4V156z M457.2,410.2l-19.9,19.9l-9-9   c2.9-5.6,2.4-12.7-1.6-17.9c-6.7-8.7-19.7-8.7-26.5,0c-4.6,5.9-4.6,14.4,0,20.3c5.2,6.7,14,8.2,20.9,4.6l9,9L410.4,457   c-4.6-3.1-9.9-4.7-15.2-4.7c-5.3,0-10.6,1.6-15.2,4.7l-25.7-25.7c3-4.4,4.7-9.7,4.7-15.2s-1.6-10.7-4.7-15.2l46.8-46.8   c9.1,6.2,21.2,6.2,30.3,0l25.7,25.7C451,389,451,401.1,457.2,410.2z"/>
</g>
</svg>