<?xml version="1.0" ?>
<!-- Uploaded to: SVG Repo, www.svgrepo.com, Generator: SVG Repo Mixer Tools -->
<svg fill="#000000" width="800px" height="800px" viewBox="0 0 512 512" id="Capa_1" version="1.1" xml:space="preserve" xmlns="http://www.w3.org/2000/svg" xmlns:xlink="http://www.w3.org/1999/xlink">
<g>
<path d="M182.1,303.9l-3.1,9.5c-1.1,3.2,1.3,6.6,4.7,6.6h98.8c3.5,0,5.7-3.8,4-6.8c0,0,0-0.1-0.1-0.1c-0.8-1.4-2.3-2.4-3.9-2.4   c-13.3-0.2-70.4-5.2-94.7-10.1C185.4,300,182.9,301.5,182.1,303.9z"/>
<path d="M357.6,398.9H219.9c-2.3,0-4.3,1.6-4.9,3.9l-9.4,40c-0.3,1.5,0,3.1,0.9,4.2c0.9,1.2,2.4,1.9,3.9,1.9h160.4   c1.6,0,3.1-0.8,4.1-2.1c0.9-1.3,1.2-3,0.7-4.5l-13.2-40C361.7,400.3,359.8,398.9,357.6,398.9z"/>
<path d="M82.7,443.9h82.8c2.3,0,4.3-1.6,4.9-3.9l7-30c0.7-3.1-1.6-6.1-4.9-6.1H92.6c-2.2,0-4.1,1.4-4.7,3.4l-9.9,30   C76.9,440.6,79.3,443.9,82.7,443.9z"/>
<path d="M140.7,297.7h-13c-2.2,0-4.1,1.4-4.7,3.4l-18.6,56.2c-1.1,3.2,1.3,6.6,4.7,6.6h12.8c2.2,0,4.1-1.4,4.7-3.4l18.8-56.2   C146.5,301,144.1,297.7,140.7,297.7z"/>
<path d="M412.9,362.1c-1.2-0.6-2.6-0.7-3.8-0.3c-6.7,2.2-13.6,3.8-20.6,4.6c-1.5,0.2-2.8,1-3.6,2.3s-1,2.8-0.5,4.3l24,72.5   c0.7,2,2.6,3.4,4.7,3.4h23.3c1.6,0,3.1-0.8,4.1-2.1c0.9-1.3,1.2-3,0.7-4.5L415.4,365C415,363.7,414.1,362.7,412.9,362.1z"/>
<path d="M348,363c-8.7-2.5-16.9-6.2-24.5-10.8c-2.4-1.4-5.1-2.2-7.8-2.2H170.9c-2.1,0-4,1.4-4.7,3.4l-3,8.8   c-0.4,1.1-0.4,2.2-0.1,3.3c0.7,2.1,2.6,3.5,4.8,3.5h179.3c2.1,0,3.5-2,2.9-4C349.7,364,349,363.3,348,363z"/>
<ellipse cx="156.6" cy="176.7" rx="49.2" ry="49.2" transform="matrix(0.2508 -0.968 0.968 0.2508 -53.7334 283.9818)"/>
<path d="M428.6,341.1c24.3-16.6,40.3-44.6,40.3-76.2c0-25-10-47.7-26.2-64.3c1.8-3.8,3.4-7.6,4.6-11.7c6.9-22,4.8-45.3-6-65.5   c-3.9-7.3-8.8-13.9-14.5-19.6c-0.1-0.1-0.1-0.1-0.2-0.2c-9.1-9.1-20.1-16.2-32.5-20.5c-20.2-7-42.2-6.3-61.8,2.2   c-0.4,0.2-0.8,0-1-0.3C320.4,66.5,303,53,282.5,46.8c-20.6-6.2-42.6-4.5-61.9,4.9c-6.6,3.2-12.8,7.3-18.4,12.1   c-2.1,1.8-2.3,5-0.5,7.1c1.8,2.1,5,2.3,7.1,0.5c4.9-4.2,10.3-7.8,16.2-10.6c35-16.9,77.9-4.1,97.7,29.3c2.8,4.6,8.6,6.5,13.5,4.4   c24.6-10.6,52.4-6.8,73.2,7.8h-43.8c-2.8,0-5,2.2-5,5s2.2,5,5,5H421c3.8,4.1,7.3,8.6,10.2,13.6h-40c-2.8,0-5,2.2-5,5s2.2,5,5,5H436   c1.8,4.4,3.1,9,4,13.6h-23.2c-2.8,0-5,2.2-5,5s2.2,5,5,5h24.4c0.5,8.8-0.7,17.8-3.4,26.5c-0.8,2.6-1.8,5.1-2.8,7.6   c-15.9-13-36.2-20.8-58.3-20.8c-50.9,0-92.2,41.4-92.2,92.2c0,8.1,1.1,16,3,23.5l-1.1,0.6c-5.9,3-12.6,3.8-19,2.3   c1.1-2.1,1.8-4.4,1.9-6.9c2.7-49.2-8.5-135-41.5-171.8c-17.1-19-40.6-30.2-66.2-31.6c-25.6-1.4-50.1,7.4-69.1,24.5   s-30.2,40.6-31.6,66.2c-1.3,25.5,7.4,50.1,24.5,69.1c11.4,12.6,28.7,23.3,48.7,31.9h-20.9c-4.3,0-8.1,2.8-9.5,6.9L43.3,462.3   c-0.9,2.6,0.6,5.5,3.2,6.3c0.5,0.2,1,0.3,1.6,0.3c2.1,0,4.1-1.3,4.7-3.4l25.3-76.6h61.8c0,0,0,0,0,0c0,0,0,0,0,0h57.8l-16.4,70   H78.2c-2.8,0-5,2.2-5,5s2.2,5,5,5h107.1c0,0,0,0,0,0c0,0,0,0,0,0h213.2c0,0,0,0,0,0c0,0,0,0,0,0h65.4c1.6,0,3.1-0.8,4.1-2.1   s1.2-3,0.7-4.5L428.6,341.1z M376.7,182.6c45.4,0,82.2,36.9,82.2,82.2s-36.9,82.2-82.2,82.2s-82.2-36.9-82.2-82.2   S331.3,182.6,376.7,182.6z M273.6,301.9c5.8,0,11.6-1.3,16.9-4c4.7,12.1,11.8,23,20.8,32H163l14-42.4c26.9,7.3,54,11.5,74.9,12.6   c0.3,0,0.6,0,0.8,0c2.1,0,4.2-0.4,6-1.2C263.5,300.9,268.6,301.9,273.6,301.9z M92.8,234.1c-15.3-17-23.1-39-21.9-61.9   c1.2-22.9,11.2-43.9,28.3-59.3c15.9-14.3,36.1-22,57.3-22c1.5,0,3.1,0,4.6,0.1c22.9,1.2,43.9,11.2,59.3,28.3   c31.2,34.6,41.6,117,39,164.5c-0.2,3.6-3.3,6.4-6.9,6.3c-21.3-1.1-49.5-5.5-76.7-13.2c-0.1,0-0.2-0.1-0.3-0.1   c-0.3-0.1-0.6-0.2-0.9-0.2c-3.6-1-7.2-2.1-10.8-3.3c-0.5-0.2-1-0.4-1.5-0.5C133.8,263.5,107.7,250.6,92.8,234.1z M136.3,378.9H81.4   l31.8-96.2h47.6c2.2,0.7,4.4,1.4,6.6,2L136.3,378.9z M146.8,378.9l12.9-39h163.5c10.1,7.2,21.6,12.4,34.1,15.1l7.9,23.9H146.8z    M191.6,458.9l16.4-70h160.5l23.1,70H191.6z M402.1,458.9l-33.8-102.2c2.7,0.2,5.5,0.4,8.3,0.4c15.6,0,30.3-3.9,43.1-10.7   L457,458.9H402.1z"/>
<path d="M358.2,301.8c1,1,2.3,1.5,3.5,1.5c1.3,0,2.6-0.5,3.5-1.5l66.9-66.9c2-2,2-5.1,0-7.1c-2-2-5.1-2-7.1,0l-63.3,63.3   l-33.5-33.5c-2-2-5.1-2-7.1,0c-2,2-2,5.1,0,7.1L358.2,301.8z"/>
</g>
</svg>