<?xml version="1.0" encoding="iso-8859-1"?>
<!-- Uploaded to: SVG Repo, www.svgrepo.com, Generator: SVG Repo Mixer Tools -->
<svg fill="#000000" version="1.1" id="Layer_1" xmlns="http://www.w3.org/2000/svg" xmlns:xlink="http://www.w3.org/1999/xlink" 
	 viewBox="0 0 256.036 256.036" xml:space="preserve">
<g>
	<g>
		<g>
			<path d="M184.6,54.836L184.6,54.836l-7.64-40.584c-0.02-0.104-0.076-0.192-0.108-0.292V7.692c0-4.244-3.684-7.692-8.212-7.692
				H87.396c-4.532,0-8.216,3.448-8.216,7.692v6.28c-0.032,0.096-0.088,0.18-0.104,0.28l-7.64,40.584H71.04v179.2
				c0,12.128,9.872,22,22,22h69.956c12.128,0,22-9.872,22-22v-179.2H184.6z M83.184,7.692C83.184,5.656,85.076,4,87.4,4h4.364v5.992
				h2.264V4h11.78v5.992h2.264V4h11.784v5.992h2.264V4h11.784v5.992h2.264V4h11.784v5.992h2.264V4H162v5.992h2.264V4h4.364
				c2.32,0,4.212,1.656,4.212,3.692v4.928H83.184V7.692z M82.7,16.62h90.632l7.196,38.216H75.508L82.7,16.62z M180.996,78.86
				h-18.264v2.264h18.264v152.912c0,9.924-8.076,17.996-18,17.996H93.04c-9.924,0-18-8.076-18-18V59.124h105.956V78.86z"/>
			<path d="M139.392,28.74h-0.112c-1.252-4.788-5.808-8.364-11.264-8.364c-5.456,0-10.012,3.572-11.264,8.364h-0.112v0.34
				c-0.164,0.736-0.26,1.496-0.26,2.276c0,0.788,0.096,1.556,0.264,2.296l0.008,5.412c0.808,4.872,5.696,8.548,11.36,8.548
				c5.664,0,10.552-3.676,11.376-8.736v-5.244c0.164-0.736,0.256-1.492,0.256-2.272c0-0.78-0.084-1.544-0.252-2.28V28.74z
				 M123.052,44.104c-2.188-1.168-3.772-3.06-4.144-5.232v-0.776c1.108,1.328,2.512,2.408,4.144,3.144V44.104z M127.868,45.332
				c-1.308-0.02-2.548-0.284-3.68-0.72v-2.94c1.156,0.384,2.384,0.628,3.68,0.644V45.332z M118.916,33.312v-3.908
				c0.952-3.864,4.664-6.76,9.104-6.76c4.44,0,8.152,2.9,9.112,6.76l0.008,3.884c-0.952,3.872-4.668,6.78-9.116,6.78
				C123.584,40.068,119.872,37.172,118.916,33.312z M132.492,44.34c-1.06,0.5-2.244,0.812-3.492,0.924v-3.028
				c1.224-0.1,2.408-0.328,3.492-0.756V44.34z M137.144,38.688c-0.344,2.052-1.668,3.812-3.52,5.016v-2.788
				c1.368-0.716,2.56-1.676,3.52-2.832V38.688z"/>
			<rect x="77.116" y="218.864" width="101.808" height="2.264"/>
			<rect x="126.932" y="78.856" width="11.016" height="2.264"/>
			<rect x="82.948" y="78.856" width="37.176" height="2.264"/>
			<path d="M85.444,149.408c0,23.476,19.096,42.576,42.576,42.576s42.576-19.096,42.576-42.576s-19.096-42.576-42.576-42.576
				S85.444,125.932,85.444,149.408z M166.624,149.408c0,21.288-17.316,38.604-38.604,38.604c-21.288,0-38.604-17.316-38.604-38.604
				c0-21.288,17.316-38.604,38.604-38.604C149.308,110.804,166.624,128.12,166.624,149.408z"/>
			<path d="M119.02,136.468c-5.924-1.472-11.056-5.764-13.712-11.24c-0.516-1.068-2.076-0.476-2.112,0.572
				c-0.184,5.212,1.076,11.18,4.852,14.508c-1.148-0.372-2.412-0.632-3.76-0.632c-5.068,0-9.084,3.552-9.248,3.704l-1.044,0.936
				l1.132,0.824c0.168,0.12,4.132,2.968,9.008,3.624c0.364,0.048,0.72,0.072,1.064,0.072c2.716,0,4.94-1.364,6.528-2.488
				c-0.452,1.536-0.772,3.128-0.772,4.812c0,3.712,2.392,9.416,4.136,13.584c0.716,1.708,1.528,3.644,1.568,4.096
				c0,6.324,5.144,11.468,11.468,11.468c6.324,0,11.468-5.144,11.468-11.448c0.04-0.472,0.852-2.412,1.568-4.116
				c1.748-4.168,4.136-9.876,4.136-13.584c0-1.392-0.212-2.724-0.524-4.02c1.552,1.044,3.62,2.16,6.068,2.16
				c0.348,0,0.704-0.024,1.068-0.072c4.876-0.656,8.84-3.5,9.004-3.62l1.136-0.824l-1.044-0.936
				c-0.168-0.152-4.188-3.708-9.248-3.708c-1.352,0-2.62,0.26-3.768,0.636c3.776-3.324,5.04-9.296,4.856-14.508
				c-0.036-1.048-1.596-1.64-2.112-0.572c-2.584,5.332-7.528,9.52-13.252,11.1c-2.696-1.76-5.9-2.804-9.352-2.804
				c-3.284-0.004-6.32,0.964-8.928,2.564C119.14,136.528,119.092,136.484,119.02,136.468z M110.3,144.576
				c-2.624-1.556-5.652-2.052-8.68-1.124c-0.696,0.212-0.4,1.308,0.3,1.092c2.54-0.78,5.1-0.488,7.352,0.696
				c-1.38,0.84-3,1.516-4.836,1.276c-2.732-0.368-5.2-1.556-6.644-2.38c1.384-0.916,3.788-2.196,6.492-2.196
				c2.74,0,5.192,1.328,6.572,2.252C110.684,144.316,110.484,144.448,110.3,144.576z M105.652,130.072
				c2.844,3.764,6.86,6.676,11.324,8.132c-0.888,0.768-1.696,1.608-2.412,2.54c-0.104-0.04-0.16-0.136-0.284-0.144
				C108.48,140.232,106.264,135.148,105.652,130.072z M112.392,142.504c0.292,0.068,0.584,0.128,0.892,0.172
				c-0.064,0.112-0.124,0.228-0.188,0.344C112.916,142.876,112.68,142.704,112.392,142.504z M143.268,143.232
				c-0.032-0.06-0.064-0.116-0.096-0.172c0.16-0.032,0.32-0.056,0.476-0.092C143.516,143.056,143.376,143.152,143.268,143.232z
				 M151.748,142.408c2.692-0.004,5.108,1.28,6.496,2.2c-1.44,0.82-3.904,2.004-6.644,2.372c-1.516,0.212-2.884-0.24-4.108-0.876
				c2.24-1.164,4.78-1.436,7.3-0.664c0.7,0.216,1-0.88,0.3-1.092c-3.04-0.932-6.076-0.432-8.708,1.14
				c-0.428-0.276-0.836-0.56-1.208-0.828C146.552,143.736,149.008,142.408,151.748,142.408z M150.384,130.54
				c-0.604,5.02-2.796,10.028-8.46,10.496c-0.68-0.924-1.452-1.768-2.3-2.54C143.864,136.984,147.656,134.144,150.384,130.54z
				 M141.512,144.728l-0.124,0.112l0.284,0.18c0.852,1.876,1.356,3.94,1.356,6.132c0.004,3.26-2.384,8.952-3.96,12.716
				c-1.212,2.884-1.744,4.192-1.744,4.972c0,5.076-4.128,9.204-9.204,9.204c-5.076,0-9.204-4.128-9.204-9.204
				c0-0.78-0.532-2.088-1.744-4.972c-1.576-3.764-3.96-9.456-3.96-12.712c0-8.22,6.688-14.908,14.908-14.908
				C134.028,136.248,139.1,139.732,141.512,144.728z"/>
		</g>
	</g>
</g>
</svg>