<?xml version="1.0" encoding="utf-8"?>
<!-- Uploaded to: SVG Repo, www.svgrepo.com, Generator: SVG Repo Mixer Tools -->
<svg width="800px" height="800px" viewBox="0 0 1024 1024" fill="#000000" class="icon"  version="1.1" xmlns="http://www.w3.org/2000/svg"><path d="M40.202 887.844a8.008 8.008 0 0 1-7.996-7.656L0.218 144.498a8.02 8.02 0 0 1 7.654-8.34c4.092 0 8.136 3.25 8.34 7.654L48.198 879.5a8.02 8.02 0 0 1-7.652 8.344h-0.344zM64.192 759.894a8.01 8.01 0 0 1-7.998-7.668L32.206 176.468a8.02 8.02 0 0 1 7.668-8.326c4.264-0.124 8.122 3.25 8.324 7.668l23.99 575.758a8.016 8.016 0 0 1-7.668 8.324l-0.328 0.002zM336.076 759.894h-0.328a8.016 8.016 0 0 1-7.668-8.324l23.99-575.758c0.188-4.42 3.826-7.778 8.324-7.668a8.02 8.02 0 0 1 7.668 8.326l-23.99 575.758a8.004 8.004 0 0 1-7.996 7.666zM360.066 887.844h-0.344a8.02 8.02 0 0 1-7.652-8.344l31.986-735.69c0.188-4.404 3.702-7.638 8.34-7.654a8.02 8.02 0 0 1 7.654 8.34l-31.986 735.69a8.01 8.01 0 0 1-7.998 7.658z" fill="" /><path d="M360.066 887.844H40.202a7.994 7.994 0 0 1-7.996-8 7.992 7.992 0 0 1 7.996-7.996h319.866a7.998 7.998 0 1 1-0.002 15.996zM264.092 839.864H136.16c-52.322 0-70.376-34.926-71.124-36.406a8.004 8.004 0 0 1 3.576-10.73 8.022 8.022 0 0 1 10.714 3.528c0.64 1.234 14.87 27.614 56.834 27.614h127.932c42.56 0 56.696-27.286 56.834-27.566a8.022 8.022 0 0 1 10.73-3.574 8.008 8.008 0 0 1 3.578 10.73c-0.75 1.478-18.806 36.404-71.142 36.404zM385.104 312.084H15.166c-4.42 0-7.998-3.576-7.998-7.996s3.576-7.996 7.998-7.996h369.938c4.42 0 7.996 3.576 7.996 7.996s-3.576 7.996-7.996 7.996zM392.052 152.152H8.214a7.994 7.994 0 0 1-7.998-7.998 7.994 7.994 0 0 1 7.998-7.998h383.838a7.994 7.994 0 0 1 7.998 7.998 7.994 7.994 0 0 1-7.998 7.998zM456.026 799.878a7.994 7.994 0 0 1-7.998-7.996v-7.996c0-4.422 3.578-7.996 7.998-7.996s7.998 3.574 7.998 7.996v7.996a7.994 7.994 0 0 1-7.998 7.996zM488.014 799.878a7.994 7.994 0 0 1-7.998-7.996v-7.996c0-4.422 3.578-7.996 7.998-7.996s7.996 3.574 7.996 7.996v7.996a7.992 7.992 0 0 1-7.996 7.996zM520 799.878a7.994 7.994 0 0 1-7.998-7.996v-7.996c0-4.422 3.578-7.996 7.998-7.996s7.996 3.574 7.996 7.996v7.996a7.992 7.992 0 0 1-7.996 7.996zM551.986 799.878a7.992 7.992 0 0 1-7.996-7.996v-7.996c0-4.422 3.576-7.996 7.996-7.996s7.996 3.574 7.996 7.996v7.996a7.992 7.992 0 0 1-7.996 7.996zM583.972 799.878a7.992 7.992 0 0 1-7.996-7.996v-7.996c0-4.422 3.576-7.996 7.996-7.996s7.996 3.574 7.996 7.996v7.996a7.992 7.992 0 0 1-7.996 7.996zM615.958 799.878a7.992 7.992 0 0 1-7.996-7.996v-7.996c0-4.422 3.576-7.996 7.996-7.996s7.998 3.574 7.998 7.996v7.996a7.992 7.992 0 0 1-7.998 7.996zM647.946 799.878a7.992 7.992 0 0 1-7.996-7.996v-7.996c0-4.422 3.576-7.996 7.996-7.996s7.996 3.574 7.996 7.996v7.996a7.992 7.992 0 0 1-7.996 7.996zM679.934 887.844a7.994 7.994 0 0 1-7.998-8v-7.996a7.992 7.992 0 0 1 7.998-7.996 7.994 7.994 0 0 1 7.996 7.996v7.996c0 4.422-3.578 8-7.996 8zM647.946 887.844a7.994 7.994 0 0 1-7.996-8v-7.996c0-4.418 3.576-7.996 7.996-7.996s7.996 3.578 7.996 7.996v7.996c0 4.422-3.576 8-7.996 8zM615.958 887.844a7.994 7.994 0 0 1-7.996-8v-7.996c0-4.418 3.576-7.996 7.996-7.996s7.998 3.578 7.998 7.996v7.996a7.994 7.994 0 0 1-7.998 8zM583.972 887.844a7.994 7.994 0 0 1-7.996-8v-7.996c0-4.418 3.576-7.996 7.996-7.996s7.996 3.578 7.996 7.996v7.996c0 4.422-3.576 8-7.996 8zM551.986 887.844a7.994 7.994 0 0 1-7.996-8v-7.996c0-4.418 3.576-7.996 7.996-7.996s7.996 3.578 7.996 7.996v7.996c0 4.422-3.576 8-7.996 8zM520 887.844a7.994 7.994 0 0 1-7.998-8v-7.996c0-4.418 3.578-7.996 7.998-7.996s7.996 3.578 7.996 7.996v7.996c0 4.422-3.576 8-7.996 8zM488.014 887.844a7.994 7.994 0 0 1-7.998-8v-7.996c0-4.418 3.578-7.996 7.998-7.996s7.996 3.578 7.996 7.996v7.996c0 4.422-3.576 8-7.996 8zM456.026 887.844a7.994 7.994 0 0 1-7.998-8v-7.996c0-4.418 3.578-7.996 7.998-7.996s7.998 3.578 7.998 7.996v7.996c0 4.422-3.578 8-7.998 8z" fill="" /><path d="M440.034 855.856c-0.656 0-15.994-0.266-15.994-23.988 0-23.726 15.336-23.992 15.994-23.992a7.992 7.992 0 0 1 7.996 7.996 7.992 7.992 0 0 1-6.496 7.856c-0.422 0.624-1.5 2.734-1.5 8.14 0 5.402 1.078 7.512 1.5 8.136a7.996 7.996 0 0 1 6.496 7.856 7.992 7.992 0 0 1-7.996 7.996z" fill="" /><path d="M663.94 823.868H424.04a7.992 7.992 0 0 1-7.998-7.996 7.994 7.994 0 0 1 7.998-7.996h239.9a7.992 7.992 0 0 1 7.996 7.996 7.99 7.99 0 0 1-7.996 7.996z" fill="" /><path d="M424.04 823.868a7.992 7.992 0 0 1-7.998-7.996v-31.984c0-4.422 3.578-7.996 7.998-7.996s7.998 3.574 7.998 7.996v31.984a7.992 7.992 0 0 1-7.998 7.996z" fill="" /><path d="M647.946 791.882H424.04a7.994 7.994 0 0 1-7.998-7.996 7.992 7.992 0 0 1 7.998-7.996h223.906a7.99 7.99 0 0 1 7.996 7.996 7.992 7.992 0 0 1-7.996 7.996z" fill="" /><path d="M679.934 855.856H424.04a7.994 7.994 0 0 1-7.998-7.996 7.992 7.992 0 0 1 7.998-7.996h255.894a7.99 7.99 0 0 1 7.996 7.996 7.994 7.994 0 0 1-7.996 7.996z" fill="" /><path d="M695.926 887.844H424.04a7.994 7.994 0 0 1-7.998-8 7.994 7.994 0 0 1 7.998-7.996h271.886a7.992 7.992 0 0 1 7.996 7.996c0 4.422-3.576 8-7.996 8z" fill="" /><path d="M424.04 887.844a7.994 7.994 0 0 1-7.998-8V847.86c0-4.422 3.578-7.996 7.998-7.996s7.998 3.574 7.998 7.996v31.984c0 4.422-3.578 8-7.998 8z" fill="" /><path d="M456.026 607.96a7.994 7.994 0 0 1-7.998-8v-7.996c0-4.418 3.578-7.996 7.998-7.996s7.998 3.578 7.998 7.996v7.996c0 4.422-3.578 8-7.998 8zM488.014 607.96a7.994 7.994 0 0 1-7.998-8v-7.996c0-4.418 3.578-7.996 7.998-7.996s7.996 3.578 7.996 7.996v7.996c0 4.422-3.576 8-7.996 8zM520 607.96a7.994 7.994 0 0 1-7.998-8v-7.996c0-4.418 3.578-7.996 7.998-7.996s7.996 3.578 7.996 7.996v7.996c0 4.422-3.576 8-7.996 8zM551.986 607.96a7.994 7.994 0 0 1-7.996-8v-7.996c0-4.418 3.576-7.996 7.996-7.996s7.996 3.578 7.996 7.996v7.996c0 4.422-3.576 8-7.996 8zM583.972 607.96a7.994 7.994 0 0 1-7.996-8v-7.996c0-4.418 3.576-7.996 7.996-7.996s7.996 3.578 7.996 7.996v7.996c0 4.422-3.576 8-7.996 8zM615.958 607.96a7.994 7.994 0 0 1-7.996-8v-7.996c0-4.418 3.576-7.996 7.996-7.996s7.998 3.578 7.998 7.996v7.996a7.994 7.994 0 0 1-7.998 8zM615.958 695.922a7.99 7.99 0 0 1-7.996-7.996v-7.996c0-4.422 3.576-7.996 7.996-7.996s7.998 3.574 7.998 7.996v7.996a7.99 7.99 0 0 1-7.998 7.996zM583.972 695.922a7.99 7.99 0 0 1-7.996-7.996v-7.996c0-4.422 3.576-7.996 7.996-7.996s7.996 3.574 7.996 7.996v7.996a7.99 7.99 0 0 1-7.996 7.996zM551.986 695.922a7.99 7.99 0 0 1-7.996-7.996v-7.996c0-4.422 3.576-7.996 7.996-7.996s7.996 3.574 7.996 7.996v7.996a7.99 7.99 0 0 1-7.996 7.996zM520 695.922a7.992 7.992 0 0 1-7.998-7.996v-7.996c0-4.422 3.578-7.996 7.998-7.996s7.996 3.574 7.996 7.996v7.996a7.99 7.99 0 0 1-7.996 7.996zM488.014 695.922a7.992 7.992 0 0 1-7.998-7.996v-7.996c0-4.422 3.578-7.996 7.998-7.996s7.996 3.574 7.996 7.996v7.996a7.99 7.99 0 0 1-7.996 7.996zM456.026 695.922a7.992 7.992 0 0 1-7.998-7.996v-7.996c0-4.422 3.578-7.996 7.998-7.996s7.998 3.574 7.998 7.996v7.996a7.992 7.992 0 0 1-7.998 7.996z" fill="" /><path d="M440.034 663.938c-0.656 0-15.994-0.266-15.994-23.992 0-23.722 15.336-23.988 15.994-23.988a8 8 0 1 1 1.5 15.852c-0.422 0.624-1.5 2.734-1.5 8.136 0 5.406 1.078 7.512 1.5 8.136a8 8 0 0 1-1.5 15.856z" fill="" /><path d="M631.954 631.95H424.04a7.994 7.994 0 0 1-7.998-7.996 7.992 7.992 0 0 1 7.998-7.996h207.914a7.99 7.99 0 0 1 7.996 7.996 7.992 7.992 0 0 1-7.996 7.996z" fill="" /><path d="M424.04 631.95a7.994 7.994 0 0 1-7.998-7.996v-31.988c0-4.418 3.578-7.996 7.998-7.996s7.998 3.578 7.998 7.996v31.988a7.994 7.994 0 0 1-7.998 7.996z" fill="" /><path d="M647.946 599.96H424.04a7.992 7.992 0 0 1-7.998-7.996 7.994 7.994 0 0 1 7.998-7.996h223.906a7.992 7.992 0 0 1 7.996 7.996 7.99 7.99 0 0 1-7.996 7.996z" fill="" /><path d="M631.954 663.938H424.04a7.994 7.994 0 0 1-7.998-8 7.994 7.994 0 0 1 7.998-7.996h207.914a7.992 7.992 0 0 1 7.996 7.996c0 4.422-3.576 8-7.996 8z" fill="" /><path d="M631.954 695.922H424.04a7.992 7.992 0 0 1-7.998-7.996 7.994 7.994 0 0 1 7.998-7.996h207.914a7.992 7.992 0 0 1 7.996 7.996 7.99 7.99 0 0 1-7.996 7.996z" fill="" /><path d="M424.04 695.922a7.992 7.992 0 0 1-7.998-7.996v-31.988c0-4.418 3.578-7.996 7.998-7.996s7.998 3.578 7.998 7.996v31.988a7.992 7.992 0 0 1-7.998 7.996z" fill="" /><path d="M456.026 703.918a7.992 7.992 0 0 1-7.998-7.996v-7.996c0-4.418 3.578-7.996 7.998-7.996s7.998 3.578 7.998 7.996v7.996a7.992 7.992 0 0 1-7.998 7.996zM488.014 703.918a7.992 7.992 0 0 1-7.998-7.996v-7.996c0-4.418 3.578-7.996 7.998-7.996s7.996 3.578 7.996 7.996v7.996a7.99 7.99 0 0 1-7.996 7.996zM520 703.918a7.992 7.992 0 0 1-7.998-7.996v-7.996c0-4.418 3.578-7.996 7.998-7.996s7.996 3.578 7.996 7.996v7.996a7.99 7.99 0 0 1-7.996 7.996zM551.986 703.918a7.99 7.99 0 0 1-7.996-7.996v-7.996c0-4.418 3.576-7.996 7.996-7.996s7.996 3.578 7.996 7.996v7.996a7.99 7.99 0 0 1-7.996 7.996zM583.972 703.918a7.99 7.99 0 0 1-7.996-7.996v-7.996c0-4.418 3.576-7.996 7.996-7.996s7.996 3.578 7.996 7.996v7.996a7.99 7.99 0 0 1-7.996 7.996zM615.958 703.918a7.99 7.99 0 0 1-7.996-7.996v-7.996c0-4.418 3.576-7.996 7.996-7.996s7.998 3.578 7.998 7.996v7.996a7.99 7.99 0 0 1-7.998 7.996z" fill="" /><path d="M647.946 791.882a7.992 7.992 0 0 1-7.996-7.996v-7.996c0-4.422 3.576-8 7.996-8s7.996 3.578 7.996 8v7.996a7.992 7.992 0 0 1-7.996 7.996zM615.958 791.882a7.992 7.992 0 0 1-7.996-7.996v-7.996c0-4.422 3.576-8 7.996-8s7.998 3.578 7.998 8v7.996a7.992 7.992 0 0 1-7.998 7.996zM583.972 791.882a7.992 7.992 0 0 1-7.996-7.996v-7.996c0-4.422 3.576-8 7.996-8s7.996 3.578 7.996 8v7.996a7.992 7.992 0 0 1-7.996 7.996zM551.986 791.882a7.992 7.992 0 0 1-7.996-7.996v-7.996c0-4.422 3.576-8 7.996-8s7.996 3.578 7.996 8v7.996a7.992 7.992 0 0 1-7.996 7.996zM520 791.882a7.994 7.994 0 0 1-7.998-7.996v-7.996c0-4.422 3.578-8 7.998-8s7.996 3.578 7.996 8v7.996a7.992 7.992 0 0 1-7.996 7.996zM488.014 791.882a7.994 7.994 0 0 1-7.998-7.996v-7.996c0-4.422 3.578-8 7.998-8s7.996 3.578 7.996 8v7.996a7.992 7.992 0 0 1-7.996 7.996zM456.026 791.882a7.994 7.994 0 0 1-7.998-7.996v-7.996c0-4.422 3.578-8 7.998-8s7.998 3.578 7.998 8v7.996a7.994 7.994 0 0 1-7.998 7.996z" fill="" /><path d="M440.034 759.894c-0.656 0-15.994-0.266-15.994-23.988 0-23.726 15.336-23.992 15.994-23.992a8 8 0 1 1 1.5 15.856c-0.422 0.624-1.5 2.73-1.5 8.136 0 5.402 1.078 7.512 1.5 8.136a8 8 0 0 1-1.5 15.852z" fill="" /><path d="M631.954 695.922H424.04a7.992 7.992 0 0 1-7.998-7.996 7.994 7.994 0 0 1 7.998-7.996h207.914a7.992 7.992 0 0 1 7.996 7.996 7.99 7.99 0 0 1-7.996 7.996z" fill="" /><path d="M631.954 727.91H424.04a7.994 7.994 0 0 1-7.998-7.996c0-4.422 3.578-8 7.998-8h207.914a7.994 7.994 0 0 1 7.996 8 7.992 7.992 0 0 1-7.996 7.996z" fill="" /><path d="M424.04 725.41a7.994 7.994 0 0 1-7.998-7.996v-29.488c0-4.418 3.578-7.996 7.998-7.996s7.998 3.578 7.998 7.996v29.488a7.994 7.994 0 0 1-7.998 7.996z" fill="" /><path d="M631.954 759.894H424.04a7.992 7.992 0 0 1-7.998-7.996 7.994 7.994 0 0 1 7.998-7.996h207.914a7.992 7.992 0 0 1 7.996 7.996 7.99 7.99 0 0 1-7.996 7.996z" fill="" /><path d="M424.04 791.882a7.994 7.994 0 0 1-7.998-7.996v-31.988c0-4.418 3.578-7.996 7.998-7.996s7.998 3.578 7.998 7.996v31.988a7.994 7.994 0 0 1-7.998 7.996z" fill="" /><path d="M807.878 571.586a8 8 0 0 1-1.78-15.792c22.102-5.058 45.434-5.074 67.504-0.032a7.992 7.992 0 0 1 6.012 9.574c-0.966 4.282-5.106 7.042-9.574 6.016-19.74-4.484-40.638-4.468-60.378 0.032-0.596 0.14-1.204 0.202-1.784 0.202zM839.772 855.84a151.346 151.346 0 0 1-33.674-3.766 7.99 7.99 0 0 1-6.012-9.574c0.966-4.292 5.09-7.012 9.574-6.012 19.708 4.468 40.608 4.454 60.378-0.032 4.344-1.046 8.608 1.718 9.574 6.012a7.986 7.986 0 0 1-6.012 9.574 151.996 151.996 0 0 1-33.828 3.798zM718.01 635.292a7.92 7.92 0 0 1-4.248-1.218 8.004 8.004 0 0 1-2.53-11.028c12.042-19.148 28.534-35.656 47.698-47.746 3.718-2.376 8.652-1.266 11.028 2.5a7.994 7.994 0 0 1-2.5 11.028c-17.148 10.824-31.906 25.598-42.668 42.714a8.01 8.01 0 0 1-6.78 3.75zM916.488 833.77a7.99 7.99 0 0 1-6.762-3.73 7.988 7.988 0 0 1 2.5-11.028 137.03 137.03 0 0 0 42.7-42.73c2.36-3.718 7.31-4.86 11.028-2.5a7.99 7.99 0 0 1 2.498 11.028c-12.056 19.18-28.548 35.688-47.698 47.726a7.906 7.906 0 0 1-4.266 1.234zM699.518 743.902a8 8 0 0 1-7.792-6.214c-5.044-22.054-5.06-45.386-0.032-67.504 0.968-4.282 5.092-7.042 9.574-6.012 4.294 0.964 6.996 5.262 6.014 9.574a136.47 136.47 0 0 0 0.032 60.378 7.996 7.996 0 0 1-7.796 9.778zM980.212 743.902a7.992 7.992 0 0 1-7.796-9.778c4.484-19.696 4.468-40.594-0.032-60.41a7.98 7.98 0 0 1 6.03-9.558c4.342-1.016 8.574 1.714 9.558 6.028 5.03 22.132 5.044 45.464 0.032 67.504a7.998 7.998 0 0 1-7.792 6.214zM763.242 833.77a7.956 7.956 0 0 1-4.25-1.218c-19.18-12.024-35.688-28.532-47.76-47.71a7.99 7.99 0 0 1 2.498-11.028c3.748-2.344 8.684-1.234 11.028 2.5 10.808 17.164 25.582 31.922 42.73 42.684a8.002 8.002 0 0 1 2.532 11.028 8.018 8.018 0 0 1-6.778 3.744zM961.72 635.292a7.984 7.984 0 0 1-6.764-3.734c-10.792-17.118-25.582-31.89-42.762-42.7a7.988 7.988 0 0 1-2.5-11.028c2.36-3.718 7.292-4.86 11.028-2.5 19.196 12.074 35.704 28.566 47.76 47.7a7.996 7.996 0 0 1-2.498 11.028 7.888 7.888 0 0 1-4.264 1.234zM785.264 578.926c-4.42 0-8.076-3.578-8.076-7.996 0-4.422 3.5-8 7.904-8h0.172a8.004 8.004 0 0 1 7.996 8 8.002 8.002 0 0 1-7.996 7.996zM895.404 844.906c-4.42 0-8.074-3.574-8.074-7.996s3.498-7.996 7.902-7.996h0.172a8 8 0 0 1 7.996 7.996 8 8 0 0 1-7.996 7.996zM707.36 656.828c-4.422 0-8.076-3.574-8.076-7.996 0-4.418 3.498-7.996 7.904-7.996h0.172a8.004 8.004 0 0 1 7.996 7.996 8 8 0 0 1-7.996 7.996zM973.308 766.988c-4.42 0-8.074-3.578-8.074-8 0-4.418 3.498-7.996 7.902-7.996h0.172a8.002 8.002 0 0 1 7.996 7.996c0 4.422-3.592 8-7.996 8zM707.36 767.004c-4.422 0-8.076-3.578-8.076-8 0-4.418 3.498-7.996 7.904-7.996h0.172a8.004 8.004 0 0 1 7.996 7.996c0 4.422-3.594 8-7.996 8zM973.292 656.844c-4.42 0-8.074-3.574-8.074-7.996 0-4.418 3.498-7.996 7.902-7.996h0.172a7.998 7.998 0 0 1 0 15.992zM785.248 844.89c-4.42 0-8.076-3.574-8.076-7.996s3.5-7.996 7.904-7.996h0.172a8 8 0 0 1 7.996 7.996 8 8 0 0 1-7.996 7.996zM895.404 578.958c-4.42 0-8.074-3.578-8.074-7.996 0-4.422 3.498-8 7.902-8h0.172a8.004 8.004 0 0 1 7.996 8 8.004 8.004 0 0 1-7.996 7.996zM840.334 823.868c-4.42 0-8.074-3.574-8.074-7.996 0-4.418 3.498-7.996 7.902-7.996h0.172a8.002 8.002 0 0 1 7.996 7.996 8 8 0 0 1-7.996 7.996zM840.35 599.96c-4.42 0-8.074-3.574-8.074-7.996 0-4.418 3.498-7.996 7.902-7.996h0.172a8.002 8.002 0 0 1 7.996 7.996 8 8 0 0 1-7.996 7.996zM840.35 655.938c-4.42 0-8.074-3.574-8.074-7.996 0-4.418 3.498-7.996 7.902-7.996h0.172a8.002 8.002 0 0 1 7.996 7.996 8 8 0 0 1-7.996 7.996zM840.35 767.89c-4.42 0-8.074-3.574-8.074-7.996 0-4.418 3.498-7.996 7.902-7.996h0.172a8.002 8.002 0 0 1 7.996 7.996 8 8 0 0 1-7.996 7.996zM919.504 791.07c-4.42 0-8.074-3.578-8.074-7.996 0-4.422 3.498-7.996 7.902-7.996h0.172a8 8 0 0 1 7.996 7.996 8.002 8.002 0 0 1-7.996 7.996zM761.18 632.746c-4.42 0-8.074-3.578-8.074-7.996 0-4.422 3.498-7.996 7.902-7.996h0.172a8 8 0 0 1 7.996 7.996 8.002 8.002 0 0 1-7.996 7.996zM952.272 711.914c-4.42 0-8.076-3.574-8.076-7.996 0-4.418 3.5-7.996 7.904-7.996h0.172a8.002 8.002 0 0 1 7.996 7.996 8 8 0 0 1-7.996 7.996zM728.366 711.914c-4.42 0-8.074-3.574-8.074-7.996 0-4.418 3.498-7.996 7.902-7.996h0.172a8.002 8.002 0 0 1 7.996 7.996 8 8 0 0 1-7.996 7.996zM919.472 632.762c-4.42 0-8.074-3.578-8.074-7.996 0-4.422 3.498-7.996 7.902-7.996h0.172a8 8 0 0 1 7.996 7.996 8.002 8.002 0 0 1-7.996 7.996zM761.164 791.102c-4.42 0-8.074-3.578-8.074-7.996 0-4.422 3.498-7.996 7.902-7.996h0.172a8 8 0 0 1 7.996 7.996 8.002 8.002 0 0 1-7.996 7.996z" fill="" /><path d="M839.866 887.844c-101.41 0-183.924-82.516-183.924-183.926s82.514-183.922 183.924-183.922 183.924 82.512 183.924 183.922-82.514 183.926-183.924 183.926z m0-351.856c-92.602 0-167.93 75.328-167.93 167.93s75.328 167.93 167.93 167.93 167.93-75.328 167.93-167.93-75.33-167.93-167.93-167.93z" fill="" /><path d="M839.866 743.902c-35.876 0-63.972-17.554-63.972-39.984 0-22.426 28.098-39.98 63.972-39.98s63.972 17.554 63.972 39.98c0 22.43-28.098 39.984-63.972 39.984z m0-63.972c-28.27 0-47.98 12.636-47.98 23.988 0 11.356 19.71 23.992 47.98 23.992s47.98-12.636 47.98-23.992c0-11.352-19.712-23.988-47.98-23.988z" fill="" /><path d="M855.86 711.914h-31.988a7.99 7.99 0 0 1-7.996-7.996 7.994 7.994 0 0 1 7.996-7.996h31.988a7.994 7.994 0 0 1 7.996 7.996 7.99 7.99 0 0 1-7.996 7.996zM794.494 644.164a7.98 7.98 0 0 1-3.06-0.61 8.04 8.04 0 0 1-4.328-4.328l-12.228-29.55a8 8 0 0 1 4.326-10.446l29.55-12.246a7.998 7.998 0 0 1 10.45 4.324l12.228 29.55a8.004 8.004 0 0 1-4.326 10.45l-29.55 12.246a8.004 8.004 0 0 1-3.062 0.61z m-1.782-33.222l6.108 14.778 14.776-6.124-6.108-14.774-14.776 6.12zM867.948 821.464a8 8 0 0 1-7.388-4.938l-12.244-29.55a8 8 0 0 1 4.326-10.446l29.55-12.246c4.108-1.718 8.746 0.266 10.45 4.324l12.244 29.55a8.004 8.004 0 0 1-4.326 10.45l-29.55 12.246a7.846 7.846 0 0 1-3.062 0.61z m-1.798-33.222l6.124 14.778 14.776-6.124-6.124-14.774-14.776 6.12zM759.868 696.078a7.986 7.986 0 0 1-3.06-0.61l-29.55-12.242a8.004 8.004 0 0 1-4.326-10.45l12.246-29.55a8.034 8.034 0 0 1 4.324-4.328 8.002 8.002 0 0 1 6.124 0l29.536 12.246a8.004 8.004 0 0 1 4.326 10.45l-12.23 29.55a7.994 7.994 0 0 1-7.39 4.934z m-19.102-24.566l14.776 6.122 6.108-14.774-14.76-6.124-6.124 14.776zM937.168 769.516a7.796 7.796 0 0 1-3.06-0.61l-29.55-12.242a8.004 8.004 0 0 1-4.326-10.45l12.246-29.55c1.702-4.094 6.418-6.028 10.448-4.328l29.55 12.246a8.004 8.004 0 0 1 4.326 10.45l-12.246 29.55a8 8 0 0 1-7.388 4.934z m-19.102-24.566l14.776 6.122 6.124-14.774-14.776-6.124-6.124 14.776z" fill="" /><path d="M742.532 769.546a7.996 7.996 0 0 1-7.386-4.934l-12.23-29.55a8.004 8.004 0 0 1 4.326-10.45l29.55-12.246a8.002 8.002 0 0 1 6.124 0 8.044 8.044 0 0 1 4.326 4.328l12.228 29.55a8.004 8.004 0 0 1-4.326 10.45l-29.55 12.242a7.96 7.96 0 0 1-3.062 0.61z m-1.782-33.218l6.108 14.774 14.776-6.122-6.108-14.778-14.776 6.126z" fill="" /><path d="M919.864 696.078c-3.14 0-6.108-1.86-7.386-4.934l-12.262-29.55a7.998 7.998 0 0 1 4.326-10.45l29.55-12.23c4.108-1.718 8.746 0.266 10.448 4.328l12.246 29.55a7.998 7.998 0 0 1-4.326 10.45l-29.536 12.226c-1 0.422-2.046 0.61-3.06 0.61z m-1.814-33.218l6.138 14.774 14.76-6.106-6.124-14.778-14.774 6.11z" fill="" /><path d="M811.798 821.496a7.986 7.986 0 0 1-3.06-0.61l-29.55-12.246a8.004 8.004 0 0 1-4.326-10.45l12.228-29.55a7.998 7.998 0 0 1 10.45-4.324l29.55 12.242a8.006 8.006 0 0 1 4.326 10.45l-12.228 29.55a8.04 8.04 0 0 1-4.328 4.328 7.988 7.988 0 0 1-3.062 0.61z m-19.1-24.57l14.776 6.124 6.108-14.778-14.776-6.122-6.108 14.776z" fill="" /><path d="M885.22 644.164c-1.03 0-2.06-0.188-3.06-0.61l-29.55-12.246a8.004 8.004 0 0 1-4.326-10.45l12.244-29.55c1.704-4.09 6.404-6.028 10.45-4.324l29.55 12.246a8 8 0 0 1 4.326 10.446l-12.244 29.55a8.004 8.004 0 0 1-7.39 4.938z m-19.1-24.57l14.776 6.124 6.124-14.778-14.776-6.122-6.124 14.776z" fill="" /></svg>