<?xml version="1.0" encoding="iso-8859-1"?>
<!-- Uploaded to: SVG Repo, www.svgrepo.com, Generator: SVG Repo Mixer Tools -->
<svg fill="#000000" height="800px" width="800px" version="1.1" id="Layer_1" xmlns="http://www.w3.org/2000/svg" xmlns:xlink="http://www.w3.org/1999/xlink" 
	 viewBox="0 0 511.998 511.998" xml:space="preserve">
<g>
	<g>
		<path d="M510.402,218.004c-14.818-19.889-34.282-36.372-56.292-47.671c-13.305-6.83-27.233-11.708-41.646-14.623l70.042-34.05
			c2.741-1.332,4.495-4.097,4.534-7.143c0.039-3.048-1.644-5.855-4.35-7.257c-22.022-11.408-46.736-17.723-71.468-18.261
			c-11.994-0.258-23.798,0.795-35.351,3.114l3.78-4.516c1.665-1.99,2.262-4.648,1.634-7.139c2.568,0.179,5.074-0.877,6.738-2.869
			l33.262-39.757c1.955-2.338,2.426-5.577,1.214-8.374c-1.212-2.797-3.898-4.67-6.94-4.842
			c-24.763-1.389-49.894,2.957-72.682,12.585c-23.896,10.098-44.51,25.373-61.268,45.404
			c-10.778,12.883-19.346,27.006-25.611,42.187c-6.265-15.181-14.833-29.303-25.611-42.187
			C213.629,62.574,193.016,47.3,169.12,37.201c-22.788-9.63-47.923-13.978-72.683-12.585c-3.043,0.172-5.729,2.044-6.94,4.842
			c-1.212,2.797-0.741,6.036,1.214,8.374l33.262,39.757c1.665,1.992,4.175,3.05,6.74,2.867c-0.628,2.491-0.031,5.151,1.634,7.14
			l3.78,4.517c-11.554-2.32-23.359-3.375-35.351-3.115c-24.733,0.538-49.446,6.853-71.468,18.261
			c-2.705,1.402-4.389,4.209-4.35,7.257c0.039,3.047,1.793,5.811,4.534,7.143l70.042,34.05
			c-14.413,2.916-28.341,7.794-41.646,14.623c-22.008,11.299-41.474,27.782-56.292,47.671c-1.82,2.443-2.107,5.706-0.739,8.43
			c1.367,2.722,4.154,4.443,7.202,4.443h47.511c-1.404,1.327-2.794,2.673-4.158,4.056c-17.369,17.614-30.701,39.361-38.556,62.885
			c-0.965,2.89-0.216,6.079,1.934,8.238c1.537,1.542,3.6,2.371,5.71,2.371c0.842,0,1.693-0.132,2.519-0.404l78.949-26.002
			c2.466-0.812,4.375-2.756,5.156-5.204c2.082,1.504,4.773,1.935,7.238,1.122l35.066-11.544c2.465-0.812,4.374-2.755,5.156-5.202
			c2.082,1.504,4.77,1.933,7.235,1.12l53.882-17.743l-9.606,234.681c-0.089,2.192,0.719,4.326,2.238,5.909
			c1.52,1.584,3.62,2.479,5.813,2.479h83.723c2.194,0,4.293-0.895,5.813-2.479c1.519-1.583,2.327-3.717,2.238-5.909l-9.606-234.674
			l53.863,17.737c2.465,0.812,5.154,0.384,7.235-1.119c0.782,2.446,2.691,4.39,5.156,5.202l35.065,11.544
			c2.47,0.813,5.158,0.382,7.238-1.122c0.782,2.447,2.691,4.392,5.157,5.204l78.951,26.002c0.825,0.272,1.676,0.404,2.519,0.404
			c2.109,0,4.174-0.829,5.71-2.371c2.15-2.16,2.899-5.348,1.934-8.238c-7.855-23.525-21.187-45.271-38.556-62.885
			c-1.364-1.383-2.754-2.729-4.158-4.056h47.511c3.048,0,5.835-1.72,7.202-4.443C512.509,223.709,512.223,220.447,510.402,218.004z
			 M410.873,105.109c16.701,0.364,33.395,3.653,49.066,9.605l-55.163,26.817l-6.743-4.33c-2.365-1.519-5.349-1.694-7.876-0.466
			c-2.528,1.229-4.232,3.685-4.498,6.483l-0.76,7.975l-2.711,1.319c-0.739-0.011-1.475-0.032-2.215-0.032
			c-26.116,0-51.059,6.008-74.137,17.855c-11.305,5.803-21.929,12.983-31.606,21.28c4.459-9.955,10.002-19.415,16.529-28.109
			c14.024-18.68,31.864-33.368,53.025-43.656C364.949,109.559,387.522,104.617,410.873,105.109z M293.969,92.946
			c15.1-18.047,33.666-31.808,55.182-40.9c15.388-6.503,31.965-10.334,48.7-11.315l-19.282,23.046l-7.922-1.191
			c-2.779-0.42-5.575,0.641-7.379,2.798c-1.804,2.155-2.353,5.095-1.453,7.757l2.573,7.588l-16.499,19.719
			c-3.752,1.498-7.471,3.122-11.149,4.91c-23.486,11.418-43.292,27.727-58.868,48.473c-5.18,6.9-9.791,14.239-13.815,21.895v-23.78
			h-0.001C269.393,130.152,279.448,110.304,293.969,92.946z M279.964,239.191l0.604,14.753h-49.12l0.605-14.76l23.947-7.886
			L279.964,239.191z M226.967,363.381l1.58-38.603h54.92l1.581,38.603H226.967z M285.707,379.497l1.58,38.604h-62.559l1.581-38.604
			H285.707z M229.207,308.664l1.581-38.604h50.438l1.58,38.604H229.207z M133.427,63.775l-19.282-23.046
			c16.734,0.982,33.313,4.814,48.701,11.315c21.515,9.092,40.083,22.854,55.182,40.9c14.521,17.359,24.576,37.206,29.913,58.999
			v23.781c-4.025-7.657-8.637-14.997-13.816-21.897c-15.576-20.747-35.382-37.055-58.868-48.473
			c-3.677-1.787-7.396-3.412-11.148-4.909l-16.499-19.72l2.573-7.588c0.901-2.662,0.351-5.602-1.453-7.757
			c-1.804-2.156-4.603-3.218-7.379-2.798L133.427,63.775z M52.057,114.712c15.672-5.952,32.365-9.241,49.066-9.605
			c23.376-0.495,45.923,4.451,67.086,14.74c21.162,10.288,39.003,24.976,53.025,43.656c6.527,8.694,12.069,18.153,16.528,28.108
			c-9.676-8.297-20.301-15.475-31.604-21.279c-23.077-11.847-48.021-17.855-74.137-17.855c-0.739,0-1.476,0.023-2.215,0.032
			l-2.711-1.319l-0.76-7.975c-0.266-2.798-1.97-5.255-4.498-6.483c-2.526-1.229-5.511-1.053-7.876,0.466l-6.743,4.329
			L52.057,114.712z M55.364,214.76H25.317c11.49-12.204,25.067-22.461,39.928-30.09c20.78-10.668,43.248-16.077,66.778-16.077
			c23.53,0,45.997,5.408,66.776,16.077c5.069,2.602,9.985,5.514,14.722,8.7c-14.952-4.466-30.541-6.786-46.414-6.786
			c-17.235,0-34.349,2.758-50.865,8.197c-14.118,4.649-27.263,11.035-39.331,19.073l-3.617-5.935c-1.462-2.4-4.07-3.866-6.88-3.866
			s-5.418,1.464-6.88,3.865L55.364,214.76z M161.077,245.589l-6.098-5.192c-2.138-1.821-5.073-2.399-7.744-1.519
			c-2.67,0.879-4.689,3.087-5.327,5.824l-1.819,7.801l-26.469,8.714l-6.1-5.195c-2.14-1.821-5.074-2.398-7.744-1.518
			c-2.67,0.879-4.689,3.086-5.327,5.823l-1.82,7.803l-58.26,19.186c7.097-15.187,16.785-29.174,28.514-41.07
			c16.401-16.631,36.049-28.797,58.401-36.157c14.888-4.903,30.305-7.389,45.824-7.389c24.634,0,48.535,6.13,70,17.852
			L161.077,245.589z M222.541,471.521l1.527-37.304h63.881l1.527,37.304H222.541z M477.627,287.316l-58.26-19.187l-1.821-7.804
			c-0.639-2.736-2.658-4.943-5.327-5.822c-2.669-0.88-5.604-0.302-7.744,1.518l-6.1,5.195l-26.468-8.714l-1.819-7.801
			c-0.638-2.737-2.657-4.944-5.327-5.824c-2.669-0.879-5.605-0.303-7.744,1.519l-6.098,5.192l-76.032-25.037
			c21.466-11.721,45.367-17.852,70.001-17.852c15.519,0,30.936,2.486,45.824,7.39c22.351,7.361,41.999,19.526,58.401,36.157
			C460.842,258.141,470.529,272.129,477.627,287.316z M456.633,214.759v0.001l-4.17-6.842c-1.462-2.399-4.07-3.865-6.88-3.865
			s-5.418,1.464-6.88,3.866l-3.617,5.935c-12.067-8.038-25.213-14.424-39.33-19.073c-16.516-5.44-33.63-8.197-50.865-8.197
			c-15.873,0-31.462,2.32-46.414,6.786c4.737-3.187,9.653-6.098,14.722-8.7c20.779-10.668,43.247-16.077,66.776-16.077
			c23.531,0,45.998,5.408,66.778,16.077c14.861,7.629,28.437,17.886,39.928,30.09H456.633z"/>
	</g>
</g>
</svg>