<?xml version="1.0" encoding="utf-8"?><!-- Uploaded to: SVG Repo, www.svgrepo.com, Generator: SVG Repo Mixer Tools -->
<svg width="800px" height="800px" viewBox="0 0 400 400" fill="none" xmlns="http://www.w3.org/2000/svg">
<path d="M191.234 96.7129C213.201 79.3858 246.947 71.628 266.352 96.3359" stroke="#000000" stroke-opacity="0.9" stroke-width="16" stroke-linecap="round" stroke-linejoin="round"/>
<path d="M184.083 100.29C169.482 106.848 152.034 128.808 161.955 145.003" stroke="#000000" stroke-opacity="0.9" stroke-width="16" stroke-linecap="round" stroke-linejoin="round"/>
<path d="M166.191 116.387C166.519 124.002 169.825 127.595 175.134 132.483" stroke="#000000" stroke-opacity="0.9" stroke-width="16" stroke-linecap="round" stroke-linejoin="round"/>
<path d="M183.243 103.867C184.019 106.795 184.377 109.861 184.921 112.81" stroke="#000000" stroke-opacity="0.9" stroke-width="16" stroke-linecap="round" stroke-linejoin="round"/>
<path d="M212.688 84.1934C221.63 85.5851 222.424 90.334 225.207 96.713" stroke="#000000" stroke-opacity="0.9" stroke-width="16" stroke-linecap="round" stroke-linejoin="round"/>
<path d="M235.942 82.4045C246.346 85.2302 247.381 91.0411 248.462 94.9242" stroke="#000000" stroke-opacity="0.9" stroke-width="16" stroke-linecap="round" stroke-linejoin="round"/>
<path d="M228.794 52.373C203.401 48.6085 184.596 74.0481 188.072 96.7129" stroke="#000000" stroke-opacity="0.9" stroke-width="16" stroke-linecap="round" stroke-linejoin="round"/>
<path d="M203.753 59.1543C209.074 59.399 212.436 62.6937 216.273 66.3084" stroke="#000000" stroke-opacity="0.9" stroke-width="16" stroke-linecap="round" stroke-linejoin="round"/>
<path d="M194.811 74.421C196.968 72.5537 199.632 73.1261 201.965 72.5037" stroke="#000000" stroke-opacity="0.9" stroke-width="16" stroke-linecap="round" stroke-linejoin="round"/>
<path d="M184.078 87.7701C175.018 64.841 148.58 64.0552 134 74.7004" stroke="#000000" stroke-opacity="0.9" stroke-width="16" stroke-linecap="round" stroke-linejoin="round"/>
<path d="M159.038 71.6736C153.164 73.8901 150.104 79.3864 146.519 84.1932" stroke="#000000" stroke-opacity="0.9" stroke-width="16" stroke-linecap="round" stroke-linejoin="round"/>
<path d="M173.345 75.2507C169.119 75.6363 168.326 80.9974 166.191 84.1933" stroke="#000000" stroke-opacity="0.9" stroke-width="16" stroke-linecap="round" stroke-linejoin="round"/>
<path d="M191.234 96.7129C241.241 128.407 268.773 254.568 266.184 347.105" stroke="#000000" stroke-opacity="0.9" stroke-width="16" stroke-linecap="round" stroke-linejoin="round"/>
</svg>