<?xml version="1.0" encoding="iso-8859-1"?>
<!-- Uploaded to: SVG Repo, www.svgrepo.com, Generator: SVG Repo Mixer Tools -->
<svg fill="#000000" height="800px" width="800px" version="1.1" id="Layer_1" xmlns="http://www.w3.org/2000/svg" xmlns:xlink="http://www.w3.org/1999/xlink" 
	 viewBox="0 0 222.872 222.872" xml:space="preserve">
<g>
	<g>
		<g>
			<path d="M220.86,195.642c-1.104,0-2,0.896-2,2c0,8.076-7.272,14.648-16.216,14.648c-5.572,0-10.492-2.552-13.412-6.428
				c0.08-0.044,0.18-0.02,0.252-0.084c4.388-3.764,6.612-7.804,6.612-12.008c0-13.676-24.04-25.02-58.544-29.396
				c-1.3-6.348-2.788-12.772-4.64-19.38c-5.932-21.216-26.928-62.1-39.392-85.28c0.136-0.136,0.288-0.252,0.412-0.4
				c0.46-0.552,0.8-1.176,1.08-1.824c9.808,8.152,25.772,24.192,51.692,54.164c5.224,6.04,5.232,6.06,6.764,4.98l0.912-0.632
				l-0.06-1.104c-0.848-16.916-6.764-32.388-17.592-45.984c-9.16-11.5-20.592-19.768-34.824-25.144
				c4.78-1.456,9.768-2.784,14.844-3.644c12.084-2.052,35.092-3.372,47.456-4.08c11.196-0.64,11.196-0.64,11.476-2.348l0.188-1.148
				l-0.904-0.732c-12.2-9.88-26.508-15.272-42.528-16.02c-14.432-0.664-28.228,2.776-40.98,10.264
				c-0.428-5.976-1.664-15.148-2.64-16.848l-1.512-2.636L85.48,9.01c-1.184,1.58-8.916,19.12-12.268,27.348
				C65.484,35.19,47.204,32.862,45.5,33.17l-2.316,0.428l0.796,2.216c0.528,1.464,5.012,6.156,8.276,9.204
				c-25.24,10.196-41.5,29.188-48.344,56.46c-1.16,4.632-1.62,17.34-1.088,19.244l0.664,2.4l2.2-1.168
				c0.416-0.22,1.388-0.736,42.116-38.58c2.112-1.96,4.5-3.72,7.028-5.58c-4.916,29.924,23.292,77.18,24.892,78.216l2.728,1.768
				l0.348-3.236c0.048-0.436,0.028-0.632-0.776-6.032c-5.604-37.636-7.292-60.956-7.04-75.352c1.112,0.792,2.348,1.272,3.688,1.296
				c0.544,1.288,1.024,2.396,1.392,3.172c9.7,20.6,16.292,43.444,20.164,69.832l0.076,0.484c0.7,4.784,1.388,9.636,2.036,14.508
				c-49.012,0.604-86.936,14.136-86.936,31.32c0,5.924,4.512,11.556,13.044,16.424c-2.424,1.304-5.216,2.1-8.232,2.1
				c-8.94,0-16.216-6.572-16.216-14.648c0-1.104-0.896-2-2-2s-2,0.896-2,2c0,10.28,9.068,18.648,20.216,18.648
				c8.056,0,14.968-4.4,18.216-10.7c3.248,6.304,10.16,10.7,18.216,10.7c8.34,0,15.508-4.684,18.592-11.344
				c3.088,6.66,10.256,11.344,18.592,11.344c8.056,0,14.968-4.4,18.216-10.7c3.248,6.304,10.16,10.7,18.216,10.7
				c7.88,0,14.648-4.22,17.98-10.304c3.332,6.084,10.1,10.304,17.98,10.304c8.056,0,14.968-4.4,18.216-10.7
				c3.248,6.304,10.16,10.7,18.216,10.7c11.148,0,20.216-8.364,20.216-18.648C222.86,196.534,221.964,195.642,220.86,195.642z
				 M137.636,191.978c-0.4,0.14-0.804,0.268-1.216,0.388c-8.1,2.336-16.176-0.124-24.736-2.728c-0.94-0.288-1.88-0.572-2.816-0.852
				c-0.268-6.344-0.86-12.692-1.592-19.008c8.084-2.66,17.064-4.284,26.328-4.76C135.484,174.158,136.864,183.106,137.636,191.978z
				 M129.06,146.07c1.616,5.764,2.936,11.376,4.124,16.936c-9.176,0.496-18.072,2.1-26.128,4.708
				c-0.828-6.856-1.824-13.66-2.804-20.356l-0.072-0.488c-0.004-0.016-0.004-0.032-0.008-0.044c7.2-2.892,15.276-4.616,23.588-5
				C128.248,143.314,128.688,144.73,129.06,146.07z M95.632,52.986c-0.024-0.216-0.044-0.424-0.084-0.64
				c20.04,10.56,36.236,27.304,46.716,48.132C121.496,76.854,106.168,61.226,95.632,52.986z M133.596,71.402
				c9.004,11.308,14.436,23.968,16.2,37.712c-0.024-0.024-0.048-0.052-0.068-0.08c-0.876-1.012-1.72-1.98-2.576-2.964
				c-10.716-24.888-29.148-44.72-52.484-56.46c-0.568-1.24-1.364-2.408-2.388-3.448c1.224-0.116,2.464-0.176,3.708-0.196
				C111.636,50.994,123.964,59.306,133.596,71.402z M91.144,30.954c12.732-8.08,26.564-11.84,41.104-11.164
				c7.296,0.34,14.2,1.736,20.704,4.096c-21.648-2.868-43.788,0.504-63.748,9.804C89.828,32.762,90.488,31.858,91.144,30.954z
				 M160.976,27.41c2.508,1.308,4.956,2.756,7.312,4.396c-1.324,0.072-2.804,0.156-4.312,0.244
				c-13.316,0.76-35.596,2.04-47.904,4.128c-7.408,1.256-14.556,3.444-21.176,5.616l-5.7,1.872c-0.124,0.02-0.248,0.04-0.372,0.06
				c-1.564-0.732-3.22-1.124-4.852-1.004c-0.2,0.012-0.388,0.068-0.584,0.096c1.216-1.94,2.42-3.884,3.648-5.812
				C109.952,25.486,136.052,22.174,160.976,27.41z M90.852,56.754c-0.792,0.956-1.868,1.216-2.628,1.268
				c-0.476,0.028-0.956-0.02-1.436-0.128c-0.928-3.944-3.136-6.916-5.956-7.908c0.1-0.752,0.316-1.456,0.776-2.008
				c0.792-0.956,1.868-1.216,2.632-1.268c0.108-0.004,0.224-0.008,0.336-0.008c1.56,0,3.216,0.708,4.588,1.976
				C91.748,51.054,92.52,54.754,90.852,56.754z M50.356,37.474c6.132,0.64,17.236,2.012,23.796,3.08l1.588,0.256l0.588-1.496
				c2.472-6.248,7.132-16.84,9.992-23.048c0.64,4.276,1.284,10.096,1.284,13.28v1.528c-3.328,4.804-6.244,9.876-9.496,14.732
				c-6.88-0.384-13.7-1.404-20.592-1.52l-0.272-0.212C55.5,42.722,52.524,39.774,50.356,37.474z M6.624,115.93
				c0.072-4.136,0.42-10.48,1.172-13.484c6.596-26.304,22.384-44.504,46.916-54.104l2.996-1.216c0.324,0.008,0.644,0.02,0.968,0.032
				c-21.58,15.296-38.056,37.752-46.512,63.72C9.868,112.982,8,114.686,6.624,115.93z M56.356,71.654
				c-1.32,1.016-2.608,1.964-3.848,2.88c-2.64,1.94-5.132,3.776-7.42,5.904c-12.452,11.568-22.516,20.876-29.624,27.412
				C24.4,83.018,40.728,61.622,61.956,47.278c4.288,0.28,8.564,0.764,12.852,1.112c-7.084,6.424-12.352,14.348-17.404,22.456
				L56.356,71.654z M59.104,76.722c0.112-0.508,0.18-1.024,0.272-1.808l0.32-2.396c2.532-4.064,5.112-8.084,7.948-11.884
				c-5.552,19.52-6.036,40.028-1.516,59.716C60.572,105.854,56.352,89.29,59.104,76.722z M77.444,144.882
				c-1.144-2.112-2.428-4.596-3.768-7.32c-10.428-26.068-11.348-54.764-2.548-81.284c0.06-0.068,0.12-0.132,0.176-0.2
				c-0.652,1.768-1.052,3.772-1.052,5.956c0,2.152,0.392,4.132,1.024,5.88C70.22,83.934,72.264,109.278,77.444,144.882z
				 M78.772,70.466c-2.136,0-4.52-3.464-4.52-8.436c0-4.972,2.384-8.436,4.52-8.436c2.136,0,4.52,3.464,4.52,8.436
				C83.292,67.002,80.908,70.466,78.772,70.466z M83.676,75.918c-0.312-0.66-0.724-1.604-1.188-2.704
				c2.86-1.984,4.808-6.176,4.808-11.188c0-0.02-0.004-0.04-0.004-0.06c0.204,0.016,0.404,0.06,0.604,0.06s0.4-0.008,0.596-0.02
				c0.552-0.036,1.088-0.128,1.6-0.264c2.128,3.956,4.492,8.404,7.004,13.216c-4.26,0.36-8.396,1.676-12.14,3.828
				C84.524,77.834,84.12,76.862,83.676,75.918z M85.788,80.654c3.78-2.208,7.992-3.532,12.316-3.764
				c2.068,3.98,4.204,8.14,6.36,12.424c-4.744,0.528-9.332,1.968-13.432,4.3C89.408,89.194,87.652,84.882,85.788,80.654z
				 M91.716,95.554c4.152-2.428,8.872-3.864,13.728-4.292c2.02,4.036,4.04,8.14,6.012,12.24c-5.584,0.436-10.996,1.684-15.928,3.676
				C94.344,103.222,93.068,99.354,91.716,95.554z M100.072,124.686c-1.188-5.32-2.484-10.52-3.94-15.556
				c5.012-2.044,10.548-3.296,16.26-3.66c2.304,4.832,4.528,9.624,6.58,14.252C112.32,120.246,105.876,121.934,100.072,124.686z
				 M100.54,126.706c5.884-2.856,12.488-4.568,19.296-5.016c2.884,6.588,5.364,12.752,7.232,18.144
				c-8.164,0.44-16.096,2.132-23.228,4.936C102.892,138.57,101.8,132.542,100.54,126.706z M187.78,203.478
				c-0.864-1.792-1.36-3.76-1.36-5.836c0.008-1.108-0.884-2-1.992-2c-1.104,0-2,0.896-2,2c0,8.076-7.272,14.648-16.216,14.648
				c-8.14,0-14.832-5.464-15.98-12.532c0.088-0.704,0.232-1.392,0.232-2.116c0-1.104-0.896-2-2-2c-0.084,0-0.152,0.036-0.236,0.048
				c-0.08-0.008-0.152-0.048-0.236-0.048c-1.104,0-2,0.896-2,2c0,0.724,0.144,1.412,0.232,2.116
				c-1.148,7.068-7.84,12.532-15.98,12.532c-8.94,0-16.216-6.572-16.216-14.648c0-1.104-0.896-2-2-2s-2,0.896-2,2
				c0,8.076-7.272,14.648-16.216,14.648c-8.94,0-16.216-6.572-16.216-14.648c0-1.104-0.896-2-2-2c-0.136,0-0.252,0.052-0.38,0.076
				c-0.128-0.024-0.244-0.076-0.38-0.076c-1.104,0-2,0.896-2,2c0,8.076-7.272,14.648-16.216,14.648
				c-8.944,0-16.216-6.572-16.216-14.648c0-1.104-0.896-2-2-2s-2,0.896-2,2c0,4.272-2.072,8.088-5.312,10.768
				c-8.4-4.492-12.872-9.528-12.872-14.644c0-15.128,38.376-27.944,84.468-28.488c1.064,8.34,1.936,16.74,2.224,25.092l0.052,1.452
				l1.396,0.404c1.384,0.4,2.764,0.82,4.152,1.24c6.22,1.892,12.584,3.828,19.076,3.828c2.624,0,5.268-0.316,7.928-1.084
				c1.008-0.288,1.988-0.644,2.96-1.024l1.384-0.544l-0.12-1.48c-0.68-8.5-1.892-17.044-3.564-25.752
				c31.9,4.3,55.076,14.616,55.076,26.356C193.252,197.058,191.4,200.322,187.78,203.478z"/>
			<circle cx="157.76" cy="184.746" r="2.048"/>
			<circle cx="171.768" cy="196.586" r="2.048"/>
			<circle cx="92.288" cy="196.586" r="2.048"/>
			<circle cx="65.132" cy="180.346" r="2.048"/>
			<circle cx="51.448" cy="196.586" r="2.048"/>
			<circle cx="34.688" cy="188.786" r="2.048"/>
		</g>
	</g>
</g>
</svg>