<?xml version="1.0" encoding="iso-8859-1"?>
<!-- Uploaded to: SVG Repo, www.svgrepo.com, Generator: SVG Repo Mixer Tools -->
<!DOCTYPE svg PUBLIC "-//W3C//DTD SVG 1.1//EN" "http://www.w3.org/Graphics/SVG/1.1/DTD/svg11.dtd">
<svg fill="#000000" height="800px" width="800px" version="1.1" id="Capa_1" xmlns="http://www.w3.org/2000/svg" xmlns:xlink="http://www.w3.org/1999/xlink" 
	 viewBox="0 0 273.438 273.438" xml:space="preserve">
<g>
	<path d="M66.78,75.125c-2.214,0-2.217,3.44,0,3.44C68.993,78.565,68.997,75.125,66.78,75.125z"/>
	<path d="M193.502,61.422c-0.255-0.351-0.55-0.664-0.885-0.94c-1.137-1.064-2.773,0.571-1.708,1.708
		c0.276,0.335,0.589,0.63,0.94,0.885C193.012,64.038,194.466,62.586,193.502,61.422z"/>
	<path d="M198.15,74.79c-1.47,0-1.472,2.284,0,2.284C199.62,77.075,199.622,74.79,198.15,74.79z"/>
	<path d="M203.624,70.997c-1.656,0-1.659,2.574,0,2.574C205.279,73.57,205.282,70.997,203.624,70.997z"/>
	<path d="M245.668,55.154c1.302-0.877,2.66-0.947,4.073-0.211c1.595,0.509,2.647-1.58,1.576-2.707
		c-2.242-2.359,5.989,0.159,5.28-0.068c1.278,0.41,2.14,0.511,3.509,0.546c1.034,0.026,1.594-0.964,1.429-1.875
		c-0.275-1.149-0.294-2.292-0.192-3.431c1.055,0.789,2.116,1.569,3.185,2.338c0.005,0.018,0.014,0.034,0.019,0.052
		c0.181,0.576,0.649,0.793,1.108,0.776c0.054,0.038,0.105,0.079,0.159,0.117c1.081,0.755,2.418-0.966,1.416-1.835
		c-0.144-0.125-0.295-0.239-0.439-0.363c0.566-18.174-20.323-28.81-36.403-27.065c-4.112,0.446-25.625,9.151-33.183,17.682
		c-2.348-15.117-13.438-28.157-30.153-30.137c-15.081-1.787-41.654,12.448-34.45,30.988c0.33,0.849,1.31,1.166,2.1,0.995
		c0.335,0.896,1.209,1.302,2.452,1c0.89-0.216,0.723-1.692-0.22-1.625c1.954-0.138,2.171-3.214,4.395-1.723
		c0.734,0.492,1.402,2.9,1.808,3.714c0.725,1.457,1.499,3.725,3.244,4.367c3.028,1.114,3.98-1.997,5.897-3.185
		c1.114,4.43,6.378,5.292,9.623,8.177c-4.074,0.818-8.016,2.457-11.445,4.976c-10.606,7.793-17.222,26.362-10.095,38.348
		c0.475,0.798,1.605,0.755,2.115,0.134c0.131,0.771,1.147,1.234,1.639,0.372c0.847-1.485,1.694-2.969,2.54-4.453
		c3.604,2.505,9.924,4.742,11.357-1.153c0.403-1.657-0.2-2.581,1.631-3.179c0.996-0.326,1.921,0.019,2.939-0.546
		c2.348-1.304,1.867-3.858,0.712-5.697c0.061,0.097,0.166,0.122,0.244,0.196c0.039,0.076,0.042,0.156,0.086,0.231
		c0.681,1.16,2.164,0.333,1.997-0.8c0.023-0.101,0.098-0.167,0.095-0.283l-0.003-0.157c1.766-1.579,3.415-1.793,4.941-0.6
		c0.578,0.315,1.322,0.244,1.794-0.231c1.68-1.693,1.55-3.701,3.897-5.077c2.538-1.487,5.523-1.995,7.913-3.762
		c1.179-0.871,0.498-2.661-1.001-2.376c-3.133,0.597-6.896,2.33-9.632,3.948c-0.877,0.519-1.594,1.051-2.093,1.958
		c-0.398,0.723-0.433,1.615-0.707,2.382c-1.988-0.863-4.217-1.453-6.089-0.074c-0.7,0.516-1.131,1.178-1.392,1.883
		c-0.727,0.049-1.426,0.354-1.974,0.996c-1.766,2.065,0.727,3.76-2.586,4.756c-1.553,0.467-3.038,0.12-3.879,1.902
		c-0.373,0.791,0.063,1.701-0.16,2.443c-1.672,5.584-5.627,1.983-7.842,0.333c-0.5-0.372-1.441-0.118-1.695,0.445
		c-0.828,1.831-1.656,3.662-2.484,5.493c-0.417-12.043-1.939-22.858,7.812-32.234c4.029-3.874,8.918-6.006,14.016-6.739
		c0.592,0.35,1.354,0.259,1.753-0.257c5.587-0.429,11.35,0.846,16.491,3.619c-1.184,3.92,0.35,8.312,3.418,11.026
		c-28.506,41.139-39.887,96.805-37.141,146.492c-0.329-0.002-0.661-0.068-0.99-0.049c-0.199-0.838-0.828-1.57-1.936-1.611
		c-6.899-0.252-13.793,0.271-20.546,1.677c-3.29-38.521-10.13-81.88-30.613-115.711c0.095-0.104,0.189-0.2,0.284-0.305
		c0.934-1.036-0.226-2.453-1.448-1.877c-0.053,0.025-0.093,0.068-0.145,0.094c-3.91-6.208-8.241-12.117-13.176-17.553
		c1.76-1.095,3.241-2.542,4.216-4.265c1.036,1.028,2.042,3.48,2.588,3.912c2.892,2.288,5.438,2.234,8.073,5.449
		c1.41,1.719,2.114,2.772,3.882,4.202c2.722,2.201,3.655,4.255,5.675,6.951c1.087,1.451,2.16,2.011,3.47,3.16
		c2.03,1.779,3.093,2.932,4.477,5.271c0.651,1.101-0.028,1.174,0.997,2.15c2.55,2.429,10.318,1.119,10.723,5.766
		c0.14,1.607,2.559,1.666,2.547,0c-0.035-4.854-1.153-9.065-6.58-9.472c-0.636-0.048-2.068,1.268-2.555,1.141
		c-2.046-0.532-1.554-2.36-2.575-3.548c-2.031-2.363-4.668-3.702-6.603-6.07c-1.694-2.073-1.909-4.231-3.908-6.064
		c-2.545-2.333-3.813-1.966-6.494-5.274c-2.121-2.618-0.198-1.575-2.609-4.007c-0.71-0.716-2.177-0.731-2.861-1.247
		c-1.753-1.322-3.476-3.333-5.144-4.555c-1.043-0.763-1.542-1.222-2.072-1.466c0.022-0.407,0.134-0.78,0.095-1.209
		c-0.069-0.762-0.264-1.496-0.511-2.212c2.975-5.181,14.804-4.698,19.449-4.282c7.31,0.655,12.998,4.13,17.941,9.526
		c9.638,10.522,13.809,24.508,5.479,36.977c-1.048,1.569,1.282,3.292,2.578,1.989c13.23-13.308,3.066-34.614-8.755-45.119
		c-0.898-0.799-1.825-1.511-2.77-2.17c0.57-0.133,1.125-0.379,1.638-0.83c0.978-0.859,1.097-3.738,0.61-4.647
		c0.933,0.402,2.831,1.154,3.117,1.18c1.094,0.1,2.217-0.05,3.223-0.519c2.039-0.949,3.173-2.79,3.532-4.856
		c1.705,0.993,3.409,1.989,5.135,2.949c0.169,0.094,0.317,0.065,0.468,0.058c0.677,0.46,1.825,0.116,1.801-0.894
		c-0.424-17.756-15.137-32.071-33.14-29.954c-1.857,0.219-3.75,0.571-5.647,1.038c-0.001-0.294,0.007-0.599-0.166-0.833
		c-0.731-0.986-0.355-2.074,0.895-2.299c1.582-0.285,1.543-2.415,0.414-3.171c-0.252-0.169-0.507-0.332-0.759-0.499
		c0.835-0.233,1.667-0.474,2.477-0.876c0.174-0.087,0.237-0.239,0.315-0.382c0.905-0.512,1.389-1.705,0.395-2.648
		C90.93,7.022,76.66,3.508,62.269,15.473c-11.98,9.96-14.569,27.396-6.007,40.2C44.26,45.093,26.215,42.682,13.168,53.518
		C0.867,63.736-4.574,89.588,4.582,103.108c0.347,0.512,0.958,0.616,1.496,0.499c0.289,0.582,0.646,1.148,1.157,1.665
		c0.477,0.482,1.328-0.007,1.141-0.664c-0.63-2.211-0.762-4.191,0.322-6.015c1.446,1.889,2.901,3.772,4.358,5.652
		c0.738,0.953,2.106,0.257,2.439-0.644c0.961-2.6,1.582-5.236,2.061-7.921c1.771,1.504,3.785,2.68,6.227,2.479
		c1.11-0.092,2.216-0.442,3.104-1.13c0.917-0.71,2.639-4.353,3.673-4.896c0.189,0.547,0.408,1.093,0.71,1.632
		c0.433,0.773,1.779,0.253,1.464-0.617c-0.213-0.59-0.347-1.164-0.429-1.732c0.263-0.399,0.252-0.907-0.079-1.358
		c0.02-0.376,0.105-0.749,0.19-1.123c1.163,1.439,2.332,2.873,3.49,4.315c0.36,0.448,0.809,0.492,1.238,0.389
		c-5.843,8.406-8.855,18.596-7.262,29.312c2.623,17.648,20.414,32.676,38.426,25.632c1.722-0.674,1.27-2.706-0.252-2.996
		c-3.912-2.933,2.431-6.231,4.463-8.304c0.624-0.636,0.72-1.842,0-2.465c-2.141-1.852-5.183-3.054-4.5-6.012
		c0.139-0.604,1.941-1.647,2.216-2.669c0.693-2.571-1.802-3.603-1.539-5.838c0.297-2.516,3.558-2.962,4.188-5.618
		c0.803-3.381-2.711-4.699-2.946-7.74c-0.049-0.637-0.48-1.089-0.989-1.257c-0.005-0.003-0.004-0.01-0.009-0.013
		c-1.203-0.821-1.947-2.021-2.46-3.331c1.191-0.702,2.279-1.477,3.322-2.495c0.558-0.545,0.683-1.491,0.279-2.161
		c-0.469-0.779-0.961-1.542-1.447-2.308c0.707-0.625,1.415-1.251,2.123-1.876c0.565-0.498,0.674-1.511,0.276-2.139
		c-0.549-0.866-2.172-3.228-0.843-4.251c0.933-0.593,1.802-1.285,2.504-2.14c4.114,10.149,7.713,20.147,10.854,30.1
		c-0.373,0.547-0.132,1.339,0.462,1.569c8.943,28.785,14.021,57.248,16.037,87.973c-0.401,0.358-0.419,1.019,0.07,1.293
		c0.262,4.181,0.534,8.353,0.686,12.627c-0.229-0.048-0.433-0.162-0.69-0.117c-21.123,3.748-45.649,17.822-56.894,36.353
		c-1.577,1.032-1.793,3.725-0.397,5.293c-0.475,0.83-0.137,2.097,1.135,2.175c61.708,3.816,125.218,3.759,187.021,1.901
		c0.899-0.027,1.331-0.637,1.453-1.303c0.443,0.243,0.886,0.485,1.316,0.749c2.039,1.205,3.595-2.105,1.295-3.072
		c-0.229-0.102-0.459-0.204-0.689-0.306c0.329-0.451,0.447-1.062,0.104-1.728c-11.368-22.084-36.482-33.084-59.434-39.252
		c0.734-47.982,7.918-92.67,17.881-139.491c2.219,2.894,5.985,3.952,9.525,3.335c0.026,2.067,0.503,4.175,1.21,6.033
		c0.554,1.455,1.503,2.703,2.109,4.105c0.509,1.179,1.079,0.712,0.381,1.882c-0.6,1.008-2.135,0.912-3.158,0.921
		c-1.711,0.014-2.726,2.706-0.942,3.478c2.664,1.153,4.962,2.555,7.22,4.378c-2.325,2.981-1.66,9.566-4.042,10.536
		c-1.102,0.449-1.684,1.535-1.084,2.665c1.362,2.564,9.445,6.057-0.102,9.552c-0.673,0.246-1.361,0.891-1.286,1.689
		c0.315,3.374,2.401,2.368,4.291,4.425c3.877,4.218-4.148,5.189-4.731,8.893c-0.104,0.658,0.179,1.204,0.75,1.507
		c-0.367,0.696-0.312,1.625,0.513,2.135c16.812,10.39,37.855-3.189,40.2-21.384c0.963-7.472-0.311-14.777-3.177-21.398
		c0.062-0.008,0.1,0.033,0.165,0.018c2.08-0.481,7.227-2.898,8.109,1.128c0.278,1.269,2.117,1.781,2.985,0.788
		c0.364-0.417,0.729-0.834,1.093-1.25c1.076,0.993,2.152,1.987,3.228,2.981c1.036,0.956,2.525,0.487,2.985-0.788
		c0.297-0.822,0.593-1.644,0.89-2.466c1.382,1.246,2.398,2.674,3.277,4.522c0.084,0.178,0.264,0.229,0.397,0.349
		c-0.046,0.228-0.092,0.456-0.138,0.683c-0.333,1.626,1.936,2.251,2.482,0.684c0.039-0.113,0.079-0.225,0.118-0.338
		c0.701,0.719,2.033,0.91,2.61-0.166C281.476,85.009,266.374,61.752,245.668,55.154z M197.698,45.327
		c3.278-4.509,16.644-14.621,17.071-14.841c6.188-3.178,13.282-5.389,20.287-5.294c13.82,0.187,22.826,8.328,27.785,20.037
		c-0.512-0.416-1.012-0.845-1.525-1.26c-0.782-0.634-2.033-0.479-2.323,0.613c-0.449,1.685-0.529,3.263-0.458,4.882
		c-3.153-0.864-6.921-3.251-9.564-0.466c-0.646,0.68-0.93,1.451-1.031,2.228c-2.758-0.349-5.599,0.202-6.415,2.832
		c-9.032-1.834-18.806-0.498-27.647,5.265c-0.089-1.175-0.393-2.344-1.008-3.429c-2.544-4.489-8.92-5.645-12.964-2.556
		c-0.395,0.302-0.603,0.693-0.675,1.095c-0.229-0.156-0.42-0.396-0.661-0.518c-0.12-0.215-0.177-0.447-0.426-0.618
		c-0.371-0.254-0.776-0.431-1.173-0.626C197.453,50.224,197.684,47.765,197.698,45.327z M201.176,56.321
		c0.129-0.044,0.253-0.067,0.387-0.15c2.415-1.501,6.02-1.061,7.596,1.505c1.76,2.865-0.29,6.061-2.937,7.333
		c-0.615,0.296-0.895,0.815-0.968,1.375c-0.912-0.52-1.855-0.91-2.801-0.957c0.3-0.696,0.533-1.425,0.677-2.183
		C203.558,61.004,202.674,58.341,201.176,56.321z M183.72,56.372c-5.226-4.002-11.715-5.616-18.125-5.167
		c-2.74-4.025-10.557-4.621-10.399-9.754c0.025-0.825-0.75-1.637-1.59-1.59c-2.088,0.114-2.377,1.213-4.089,2.113
		c-1.766,0.929-1.574,1.676-3.258-0.285c-1.414-1.646-2.239-4.516-3.248-6.451c-0.285-0.547-1.075-0.879-1.667-0.678
		c-1.566,0.532-4.191,1.528-5.68,3.054c-0.496-16.736,19.147-27.409,34.157-23.843c17.574,4.175,25.673,21.254,24.049,37.955
		C189.99,51.23,185.838,52.898,183.72,56.372z M163.277,139.528c2.05,1.598,3.893,3.415,5.345,5.596
		c1.385,2.079,2.111,4.626,3.692,6.53c0.528,0.636,1.419,0.267,1.723-0.376c-0.039,0.328-0.101,0.651-0.139,0.979
		c-0.228-0.087-0.476-0.136-0.745-0.064c-5.214,1.404-9.873,7.192-12.628,11.556c-0.805,1.275,1.111,2.293,1.973,1.153
		c1.669-2.208,3.553-4.279,5.678-6.057c1.692-1.416,3.67-2.497,5.381-3.869c-0.989,9.051-1.671,18.131-2.059,27.167
		c-0.289,0.123-0.564,0.303-0.846,0.456c0.158-0.221,0.306-0.458,0.289-0.793c-0.361-7.044-5.945-13.348-12.16-16.1
		c-0.548-0.243-1.049,0.012-1.322,0.396C159.015,157.103,160.987,148.285,163.277,139.528z M165.668,202.979
		c0.045-0.594,0.154-1.212,0.372-1.881c0.255-0.781-0.634-1.212-1.224-0.878c-0.669-1.79-1.608-3.533-2.667-5.19
		c0.165,0.047,0.349,0.051,0.523-0.031c1.012-0.479,1.322-1.183,1.936-2.1c0.926-1.382,1.933-2.708,3.102-3.894
		c1.065-1.08,2.34-1.875,3.601-2.671c-0.215,6.534-0.329,13.046-0.248,19.493c-1.671,0.037-3.384,0.515-5.065,1.227
		c-0.083-0.65-0.164-1.284-0.24-1.897c0.152-0.292,0.273-0.613,0.196-1.017C165.88,203.76,165.764,203.367,165.668,202.979z
		 M171.14,209.145c0.069,3.376,0.089,6.775,0.237,10.112c-0.452,0.574-0.507,1.31,0.053,1.803c0.014,0.28,0.011,0.569,0.025,0.849
		c0.005,0.092,0.082,0.124,0.097,0.208c-2.472,3.155-4.759,6.01-9.382,6.187c-3.501,0.134-6.496-1.754-8.597-4.415
		c0.256-0.707,0.498-1.588,0.695-1.998c0.424-0.879,1.017-1.718,1.573-2.515c1.544-2.215,3.471-4.202,5.636-5.818
		C164.472,211.325,167.92,210.55,171.14,209.145z M157.327,166.931c0.069,0.197,0.178,0.39,0.433,0.521
		c6.141,3.177,8.731,8.314,10.291,14.745c0.186,0.765,0.883,1.068,1.544,1.015c-1.546,1.042-2.948,2.405-4.056,3.625
		c-1.602,1.766-4.35,4.84-3.877,7.434c-1.665-2.416-3.674-4.536-6.003-5.876c-0.616-0.354-1.516,0.401-1.042,1.042
		c1.703,2.306,3.656,4.389,5.1,6.885c1.531,2.648,2.383,5.456,3.192,8.374c-0.188,1.281,0.013,2.527,0.559,3.633
		c-3.075,1.796-5.863,4.258-7.753,6.45c-0.59,0.684-1.766,2.152-2.828,3.811C152.915,200.309,154.535,183.347,157.327,166.931z
		 M106.035,183.789c-0.685-0.16-1.348-0.397-2.055-0.463c-0.643-7.322-1.674-14.633-2.938-21.908
		c1.036,0.166,1.986,0.476,2.86,0.907c0.207,0.315,0.483,0.515,0.837,0.566c2.171,1.351,3.89,3.417,5.259,5.936
		c0.122,0.225,0.302,0.303,0.473,0.404C106.812,172.828,105.278,179.376,106.035,183.789z M110.016,188.778
		c1.845,1.69,2.449,3.913,3.917,5.812c-0.746,0.932-1.42,1.928-2.013,2.847c-1.613,2.499-2.741,5.255-3.529,8.115
		c-1.116-0.331-2.237-0.659-3.342-0.839c-0.006-6.304-0.34-12.636-0.835-18.972C106.371,186.224,108.354,187.255,110.016,188.778z
		 M105.051,207.211c3.528,1.069,6.823,2.599,9.842,4.991c3.131,2.481,5.042,5.545,7.152,8.628c0.147,4.452-2.192,8.934-6.891,9.968
		c-4.677,1.029-8.96-2.243-10.905-6.253C104.738,218.809,104.995,213.023,105.051,207.211z M121.238,213.198
		c-2.825-2.98-6.551-5.276-10.436-6.802c0.792-2.527,1.869-4.928,3.368-7.122c1.249-1.827,3.174-3.339,4.352-5.198
		C119.478,200.472,120.369,206.858,121.238,213.198z M118.149,191.628c-0.168-0.031-0.335-0.066-0.532,0.004
		c-0.614,0.218-1.178,0.55-1.707,0.948c-0.491-2.552-2.698-5.006-4.607-6.47c-1.024-0.785-2.144-1.375-3.313-1.828
		c0.175-0.183,0.29-0.425,0.267-0.731c-0.227-3.09,0.212-6.087,1.693-8.84c1.143-2.124,2.845-3.412,4.47-4.932
		C115.824,177.033,117.039,184.334,118.149,191.628z M113.864,167.028c-0.581,0.193-1.101,0.505-1.62,0.817
		c-0.609-3.305-2.971-5.763-5.899-7.201c0.156-2.479,0.527-4.944,1.352-7.295c0.524-1.494,1.267-2.847,2.034-4.185
		C111.26,155.067,112.658,161.019,113.864,167.028z M99.033,117.52c-2.088-2.443-5.471-3.714-8.839-3.899
		c-0.471-2.491-0.451-4.97,0.446-7.384c0.389-1.048,0.94-1.911,1.548-2.724C94.665,108.092,96.984,112.745,99.033,117.52z
		 M103.759,32.874c17.975-2.825,27.605,8.558,32.223,24.149c-1.666-1.105-3.335-2.203-5.017-3.285
		c-0.713-0.459-1.663,0.144-1.662,0.954c0.006,3.404-3.174,5.461-6.257,3.759c-0.05-0.028-1.109-0.945-1.546-1.064
		c-0.642-0.175-1.494-0.108-2.052,0.287c-1.825,1.292-0.319,6.845-4.17,4.476c-0.962-0.592-1.729,0.104-1.892,0.944
		c-4.512-1.731-9.407-2.265-14.603-1.748c-4.969,0.494-11.801,1.176-14.644,5.506c-1.592-2.31-4.128-3.954-6.992-4.156
		c-1.112-0.078-2.137,0.045-3.093,0.299c-0.516-1.465-1.285-2.821-2.102-3.767c-0.006-0.007-0.015-0.011-0.021-0.018
		C75.163,44.666,89.569,35.105,103.759,32.874z M36.149,89.022c-1.07-1.193-2.131-2.396-3.242-3.55
		c-0.734-0.763-1.811-0.287-2.155,0.569c-0.385,0.956-0.549,1.898-0.609,2.833c-0.706-0.05-1.441,0.187-2.202,0.714
		c-1.034,0.716-0.928,1.633-1.696,2.453c-3.94,4.204-5.887,2.291-8.609-0.43c-1.005-1.005-2.452-0.176-2.587,1.072
		c-0.277,2.565-0.851,5.012-1.565,7.444c-1.27-1.607-2.534-3.217-3.826-4.806c-0.454-0.558-1.509-0.522-1.967,0
		c-0.804,0.917-1.409,1.975-1.801,3.076c-3.275-12.183-1.934-28.242,5.92-38.042c12.237-15.27,32.26-11.434,45.697-0.253
		c-2.167,3.658-1.66,8.733,3.011,10.764c0.177,0.077,0.319,0.012,0.485,0.031c-2.124,1.477-3.694,3.6-4.36,6.216
		c-5.505,2.651-10.514,6.295-14.701,10.657c-0.042-0.054-0.1-0.094-0.139-0.151c-0.478-0.427-0.667-0.688-1.27-0.933
		c-0.795-0.322-1.579-0.303-2.363,0.072C37.218,87.212,36.574,88.055,36.149,89.022z M61.99,68.348
		c-3.699-2.597-1.439-8.069,2.851-7.933c2.077,0.066,3.735,1.314,4.595,3.172c0.296,0.641,0.402,1.282,0.465,1.924
		c-0.714,0.744-1.351,1.572-1.848,2.519c-0.269-0.07-0.518-0.19-0.799-0.225c-0.766-0.095-1.343,0.387-1.64,1.023
		c-1.075,0.262-2.106,0.658-3.077,1.152C62.714,69.438,62.646,68.809,61.99,68.348z M65.042,93.772
		c-0.583,0.502-0.676,1.537-0.28,2.173c0.487,0.784,0.985,1.56,1.48,2.337c-0.808,0.725-1.651,1.382-2.638,1.943
		c-0.606,0.344-0.974,1.173-0.754,1.852c0.775,2.385,2.108,3.901,4.135,4.987c-0.328,0.748-0.17,1.085-0.12,2.223
		c0.032,0.716,0.734,1.13,0.938,1.734c1.13,3.351,0.923,2.497-0.812,4.649c-1.583,1.962-4.182,2.491-3.447,5.673
		c0.242,1.048,2.292,2.257,2.377,2.964c0.248,2.07-1.921,2.623-2.458,4.389c-0.98,3.225,2.468,5.603,5.103,7.481
		c-1.778,1.663-3.66,3.1-5.885,4.278c-0.804,0.425-0.879,1.382-0.557,2.125c0.633,1.458,1.259,2.432,2.09,3.199
		c-19.347,1.152-33.082-13.823-30.037-33.937c2.121-14.017,11.42-23.417,22.124-31.588c0.298,4.54,3.691,8.477,8.552,8.485
		c0.521,0.001,1.021-0.097,1.524-0.177c0.095,1.104,0.449,2.24,0.923,3.269C66.548,92.477,65.795,93.125,65.042,93.772z
		 M65.551,83.512c-3.068,0.436-4.601-2.428-4.149-5.166c0.485-2.937,2.866-4.784,5.345-6.184c1.458,1.738,3.11,3.167,3.268,5.83
		C70.177,80.729,68.307,83.121,65.551,83.512z M70.013,57.541c-2.207-1.447-4.975-1.942-7.602-1.267
		c-1.374,0.353-2.496,1.102-3.447,2.005c-0.048-0.052-0.102-0.096-0.15-0.148c-2.896-13.716-8-26.648,4.059-38.018
		c4.97-4.686,12.095-8.878,19.126-8.801c7.057,0.077,12.942,5.023,18.123,9.357c-1.116,0.185-2.234,0.232-3.42-0.083
		c-1.362-0.361-2.726,1.55-1.479,2.541c0.664,0.528,1.333,1.052,1.997,1.579c-1.091,1.212-1.552,2.941-1.115,4.54
		c-0.045,0.032-0.086,0.069-0.131,0.102c-0.665,0.492-0.826,1.188-0.627,1.778C83.089,35.443,71.732,44.715,70.013,57.541z
		 M71.744,70.354c0.709,0.082,1.489-0.215,1.973-0.851c0.427-0.561,0.66-1.223,0.803-1.919c2.098-0.474,4.282,0.027,5.595,2.061
		c1.144,1.771,1.068,3.729-0.349,5.335c-0.622,0.706-1.458,1.208-2.268,1.663c-0.579,0.317-1.174,0.6-1.786,0.851
		c-0.133-0.362-0.347-0.702-0.705-0.942c-0.09-0.06-0.179-0.12-0.268-0.179C74.293,74.16,73.236,71.984,71.744,70.354z
		 M88.023,113.598c-2.035-5.423-4.24-10.758-6.604-15.992c2.439,0.548,4.428,1.77,6.404,3.774c0.793,0.805,2.215-0.241,1.588-1.225
		c-1.93-3.028-5.467-4.682-9.027-4.65c-1.95-4.208-3.943-8.39-6.129-12.433c-0.054-0.101-0.16-0.113-0.235-0.182
		c0.029-0.061,0.081-0.108,0.108-0.17c0.965,0.093,1.992-0.065,2.912-0.395c0.316-0.113,0.627-0.259,0.94-0.39
		c4.832,5.962,8.99,12.256,12.689,18.767c-2.79,3.459-3.564,8.836-2.343,12.9C88.226,113.608,88.123,113.588,88.023,113.598z
		 M100.675,159.191c-1.065-5.841-2.361-11.641-3.81-17.396c1.41,0.142,2.787,0.536,4.082,1.244c1.884,1.031,2.906,2.898,4.681,3.937
		c0.611,0.358,1.601-0.088,1.521-0.873c-0.273-2.708-3.229-4.709-5.555-5.722c-1.718-0.749-3.513-1.057-5.323-1.04
		c-2.083-7.955-4.626-15.755-7.423-23.432c1.302,0.008,2.604,0.24,3.875,0.751c2.846,1.143,4.199,3.121,5.964,5.456
		c0.225,0.297,0.514,0.445,0.812,0.506c-3.194,3.8-3.7,10.312-2.24,14.571c0.356,1.037,1.883,0.625,1.646-0.454
		c-0.643-2.921-0.446-5.954,0.69-8.734c0.567-1.388,1.423-2.483,2.314-3.559c2.586,6.755,4.848,13.649,6.783,20.67
		c-3.44,3.64-4.907,9.515-5.07,14.553C102.646,159.417,101.657,159.234,100.675,159.191z M175.362,222.879
		c21.78,9.041,42.477,16.559,56.239,37.267c0.022,0.034,0.053,0.047,0.076,0.078c-0.219,0.227-0.384,0.499-0.452,0.795
		c-0.097-0.021-0.136-0.108-0.245-0.113c-61.479-2.986-124.687-4.219-186.203-1.588c-0.571-0.826,0.59-2.077,1.115-2.578
		c0.191-0.182,0.304-0.413,0.359-0.659c7.084-8.909,15.595-15.785,25.65-21.212c9.339-5.04,19.881-7.738,29.049-12.92
		c0.026,0.911,0.093,1.786,0.114,2.702c0.013,0.562,0.254,0.937,0.582,1.189c1.655,6.2,8.205,10.414,14.613,8.967
		c5.625-1.27,9.372-6.312,9.904-11.786c0.003-0.052,0.046-0.09,0.04-0.144c-0.002-0.021-0.014-0.04-0.016-0.061
		c0.089-1.083,0.097-2.176-0.081-3.265c-0.022-0.135-0.088-0.233-0.138-0.343c6.699-0.492,13.373-0.819,20.104-0.673
		c0.78,0.087,1.558,0.156,2.33,0.188c-0.086,6.828,4.809,12.984,11.869,13.773C166.316,233.172,174.127,229.246,175.362,222.879z
		 M174.133,150.601c-0.08-2.707-1.986-5.451-3.597-7.491c-1.406-1.78-3.092-3.247-4.889-4.587c0.249-0.038,0.483-0.148,0.631-0.41
		c1.663-2.933,3.565-5.751,5.975-8.126c1.739-1.713,3.879-2.855,5.815-4.243C176.515,133.969,175.139,142.25,174.133,150.601z
		 M178.753,122.295c-0.015,0.002-0.028-0.009-0.044-0.006c-3.248,0.634-6.48,3.77-8.652,6.118c-2.439,2.638-4.308,5.592-5.508,8.977
		c-0.044,0.126,0.013,0.22,0.022,0.332c-0.23-0.157-0.431-0.348-0.666-0.499c2.126-7.904,4.627-15.774,7.301-23.664
		c0.848,0.689,1.658,1.425,2.42,2.227c1.261,1.326,2.211,3.164,3.884,3.95c0.633,0.298,1.616-0.04,1.541-0.884
		c-0.285-3.2-3.832-5.992-6.947-7.922c0.252-0.728,0.555-1.469,0.811-2.198c1.637-2.069,3.377-4.037,5.424-5.725
		c1.792-1.477,4.019-2.536,5.866-3.951C182.122,106.677,180.317,114.444,178.753,122.295z M185.018,96.279
		c-0.203-0.085-0.43-0.129-0.672-0.086c-2.875,0.518-5.666,3.113-7.768,5.046c-0.528,0.485-0.979,1.043-1.476,1.559
		c1.973-5.409,4.036-10.843,6.21-16.329c2.027,1.052,3.364,2.649,4.741,4.674c0.112,0.165,0.267,0.228,0.415,0.306
		C185.985,93.059,185.478,94.657,185.018,96.279z M191.398,77.136c-0.137,0.125-0.294,0.214-0.373,0.427
		c-1.362,3.705-2.596,7.484-3.778,11.292c-1.018-2.083-2.921-3.573-5.137-4.313c1.833-4.576,3.705-9.171,5.737-13.853
		c0.438,0.258,0.867,0.531,1.343,0.722c0.748,0.299,1.507,0.491,2.265,0.59C190.853,73.553,190.875,75.424,191.398,77.136z
		 M188.914,65.568c-4.039-4.12-0.795-9.382,3.697-10.102c-0.179,0.98,0.869,2.015,1.945,1.8c4.618-0.924,4.775,5.113,2.668,7.727
		C195.034,67.711,191.396,68.1,188.914,65.568z M202.404,78.471c-2.078,0.713-4.72,0.385-6.234-1.315
		c-1.29-1.45-1.69-3.792-0.737-5.522c1.656-0.488,3.193-1.36,4.459-2.566c2.473,0.893,4.734,0.844,5.745,3.834
		C206.512,75.495,204.816,77.644,202.404,78.471z M205.434,142.488l0.001-0.002c0.464-0.802-0.121-1.549-0.842-1.701
		c1.179-0.139,2.993-0.191,3.757-0.604c0.587-0.317,1.499-0.943,2.04-1.533c1.105-1.205,2.075-2.765,1.988-4.488
		c-0.143-2.808-5.245-4.417-5.274-4.935c0.014,0.247,4.213-2.581,4.488-2.923c0.95-1.186,1.584-2.667,1.616-4.202
		c0.082-3.984-2.917-3.905-4.895-5.594c2.936-2.907,0.515-7.695,3.814-11.014c0.791-0.795,0.395-1.905-0.36-2.437
		c0.038-0.358-0.055-0.742-0.385-1.106c-1.092-1.208-2.234-2.253-3.463-3.184c1.562-0.745,2.723-1.987,2.626-3.97
		c-0.103-2.088-1.9-3.416-2.854-5.138c-1.434-2.587-1.601-5.153-1.858-7.859c1.338-0.804,2.522-1.801,3.302-3.083
		c14.816,5.383,26.814,16.687,30.282,32.587C244.374,134.041,226.222,148.08,205.434,142.488z M267.485,101.309
		c-0.538-0.398-1.267-0.535-1.859-0.123c-0.52,0.362-0.952,0.746-1.32,1.151c-1.156-1.484-2.521-2.761-4.215-3.887
		c-1.029-0.684-2.257,0.05-2.623,1.067c-0.269,0.745-0.538,1.491-0.807,2.237c-0.866-0.8-1.733-1.601-2.599-2.401
		c-0.673-0.621-1.87-0.75-2.525,0c-0.187,0.214-0.374,0.428-0.561,0.642c-2.594-3.181-7.928-2.652-11.352-0.156
		c-0.083,0.061-0.089,0.154-0.156,0.223c-5.836-11.529-16.661-20.6-29.284-24.012c0.29-1.384,0.267-2.854-0.239-4.336
		c-0.335-0.982-1.065-2.026-1.925-3.009c2.616-0.998,4.55-3.263,5.406-5.864c13.175-7.86,30.423-8.317,42.733,1.645
		C267.537,73.693,270.407,87.864,267.485,101.309z"/>
</g>
</svg>