<?xml version="1.0" ?>
<!-- Uploaded to: SVG Repo, www.svgrepo.com, Generator: SVG Repo Mixer Tools -->
<svg fill="#000000" width="800px" height="800px" viewBox="0 0 32 32" xmlns="http://www.w3.org/2000/svg">
<title/>
<g data-name="Layer 84" id="Layer_84">
<path d="M19,30a1,1,0,0,1-.55-.17L16,28.2l-2.45,1.63a1,1,0,0,1-1.5-1.15L13,25.84V21.31L3.26,24a1,1,0,0,1-1-1.67L13,11.59V5a3,3,0,0,1,6,0v6.59l10.71,10.7a1,1,0,0,1-1,1.67L19,21.31v4.53L20,28.68A1,1,0,0,1,19,30Zm-3-4a1,1,0,0,1,.55.17l.58.38-.08-.23A1.19,1.19,0,0,1,17,26V20a1,1,0,0,1,1.26-1l7.37,2-8.34-8.33A1,1,0,0,1,17,12V5a1,1,0,0,0-2,0v7a1,1,0,0,1-.29.71L6.37,21l7.37-2A1,1,0,0,1,15,20v6a1.19,1.19,0,0,1-.05.32l-.08.23.58-.38A1,1,0,0,1,16,26Z"/>
<path d="M29,23l-5.58-5.58L20.67,16c1.09,1.09-1.47,2.58-4.67,2.58s-5.47-1.67-4.25-2.95l-1.12-.26L3,23l11-3v6l-1,3,3-2,3,2-1-3V20Z"/>
</g>
</svg>