<?xml version="1.0" encoding="utf-8"?>
<!-- Uploaded to: SVG Repo, www.svgrepo.com, Generator: SVG Repo Mixer Tools -->
<svg width="800px" height="800px" viewBox="0 0 1024 1024" fill="#000000" class="icon"  version="1.1" xmlns="http://www.w3.org/2000/svg"><path d="M864.422 399.928c-4.404 0-8.076-3.578-8.076-7.998 0-4.422 3.5-8 7.92-8h0.156c4.422 0 8 3.578 8 8a7.994 7.994 0 0 1-8 7.998zM727.972 431.924c-4.422 0-8-3.578-8-8v-37.76c0-25.84 16.56-34.214 33.512-40.556 10.138-3.796 23.292-8.828 35.152-14.248 3.998-1.876 8.764-0.078 10.592 3.936a7.98 7.98 0 0 1-3.938 10.592c-12.31 5.656-25.824 10.826-36.2 14.702-18.374 6.874-23.122 12.138-23.122 25.574v37.76a7.992 7.992 0 0 1-7.996 8zM999.936 431.924a7.994 7.994 0 0 1-7.998-8v-37.76c0-13.436-4.766-18.702-23.136-25.59-5.376-1.984-21.78-8.094-36.122-14.686a8 8 0 0 1-3.938-10.608c1.86-4 6.61-5.796 10.608-3.92 13.81 6.342 29.794 12.28 35.042 14.232 16.982 6.358 33.542 14.732 33.542 40.572v37.76a7.992 7.992 0 0 1-7.998 8zM761.966 239.278c-1.376 0-2.766-0.36-3.998-1.062a8.04 8.04 0 0 1-4-6.936c-0.016-54.868 26.042-81.364 40.962-92.036l-4.406-4.078a7.99 7.99 0 0 1-2.42-7.39 8.01 8.01 0 0 1 4.998-5.952c1.39-0.532 34.214-12.906 69.818-12.906 29.45 0 52.15 8.39 67.508 24.918 16.982 18.31 24.214 46.134 21.48 82.708a7.974 7.974 0 0 1-5.592 7.046c-3.124 0.938-6.532-0.046-8.608-2.624l-21.936-27.184c-68.272-2.516-149.012 43.962-149.792 44.416-1.248 0.72-2.622 1.08-4.014 1.08z m49.48-106.55l2.188 2.016a7.988 7.988 0 0 1 2.438 7.232 8.008 8.008 0 0 1-4.718 6c-1.532 0.672-35.636 16.404-40.746 69.568 26.858-13.732 91.628-43.01 149.608-39.572a7.912 7.912 0 0 1 5.748 2.968l10.296 12.748c-1.172-21.232-7.046-37.652-17.56-48.962-12.202-13.138-30.964-19.81-55.776-19.81-19.966 0-39.356 4.376-51.478 7.812z" fill="" /><path d="M863.954 351.934c-36.806 0-87.988-55.946-87.988-111.016 0-4.422 3.578-8 8-8s7.998 3.578 7.998 8c0 48.072 45.542 95.018 71.99 95.018 26.434 0 71.992-46.948 71.992-95.018 0-4.422 3.576-8 7.998-8s7.998 3.578 7.998 8c0 55.07-51.196 111.016-87.988 111.016zM727.972 1023.84c-4.422 0-8-3.578-8-8V455.92c0-4.42 3.578-8 8-8a7.994 7.994 0 0 1 7.998 8v559.92c0 4.422-3.578 8-7.998 8zM999.936 1023.84a7.994 7.994 0 0 1-7.998-8V455.92c0-4.42 3.578-8 7.998-8 4.422 0 8 3.578 8 8v559.92c0 4.422-3.578 8-8 8z" fill="" /><path d="M783.964 248.916c-4.422 0-8-3.578-8-7.998v-20.966c0-4.42 3.578-7.998 8-7.998s7.998 3.578 7.998 7.998v20.966a7.994 7.994 0 0 1-7.998 7.998zM943.944 248.916a7.994 7.994 0 0 1-7.998-7.998v-24.966c0-4.42 3.576-8 7.998-8s7.998 3.578 7.998 8v24.966a7.994 7.994 0 0 1-7.998 7.998zM839.958 383.93a7.982 7.982 0 0 1-5.656-2.342l-31.996-31.996a8 8 0 1 1 11.312-11.312l31.996 31.996a8 8 0 0 1-5.656 13.654z" fill="" /><path d="M839.958 383.93a7.976 7.976 0 0 1-6.656-3.562 7.988 7.988 0 0 1 2.218-11.092l23.998-15.998a8 8 0 0 1 8.874 13.31l-23.996 15.998a8.03 8.03 0 0 1-4.438 1.344zM887.952 383.93a8 8 0 0 1-5.656-13.654l31.996-31.996a8 8 0 0 1 11.31 11.312l-31.996 31.996a7.98 7.98 0 0 1-5.654 2.342z" fill="" /><path d="M887.936 383.93a7.974 7.974 0 0 1-4.422-1.344l-23.996-15.998a7.986 7.986 0 0 1-2.218-11.092 7.994 7.994 0 0 1 11.092-2.218l23.996 15.998a8 8 0 0 1-4.452 14.654zM999.936 463.92H727.972c-4.422 0-8-3.578-8-8s3.578-8 8-8h271.962c4.422 0 8 3.578 8 8s-3.576 8-7.998 8zM408.014 1023.84c-4.422 0-8-3.578-8-8V631.89c0-4.422 3.578-8 8-8a7.994 7.994 0 0 1 7.998 8V1015.84c0 4.422-3.578 8-7.998 8zM679.976 1023.84a7.994 7.994 0 0 1-7.998-8V631.89c0-4.422 3.578-8 7.998-8 4.422 0 8 3.578 8 8V1015.84c0 4.422-3.578 8-8 8z" fill="" /><path d="M679.976 639.888H408.014c-4.422 0-8-3.576-8-7.998s3.578-8 8-8h271.962c4.422 0 8 3.578 8 8s-3.578 7.998-8 7.998zM88.056 1023.84c-4.422 0-8-3.578-8-8v-191.974a7.994 7.994 0 0 1 8-7.998 7.994 7.994 0 0 1 7.998 7.998v191.974c0 4.422-3.578 8-7.998 8zM360.02 1023.84c-4.422 0-8-3.578-8-8v-191.974a7.994 7.994 0 0 1 8-7.998 7.994 7.994 0 0 1 7.998 7.998v191.974c0 4.422-3.576 8-7.998 8z" fill="" /><path d="M360.02 831.864H88.056c-4.422 0-8-3.576-8-7.998s3.578-7.998 8-7.998H360.02c4.42 0 7.998 3.576 7.998 7.998s-3.576 7.998-7.998 7.998zM919.948 79.97H807.96a7.994 7.994 0 0 1-7.998-8V23.976c0-2.766 1.436-5.342 3.794-6.812a8.02 8.02 0 0 1 7.782-0.342l26.028 13.014 19.982-26.654c3.014-4.03 9.78-4.03 12.794 0l19.996 26.654 26.03-13.014a7.984 7.984 0 0 1 7.78 0.342 8.032 8.032 0 0 1 3.796 6.812v47.994a7.992 7.992 0 0 1-7.996 8z m-103.988-15.998h95.986v-27.06l-20.42 10.218a8.02 8.02 0 0 1-9.982-2.358l-17.592-23.466-17.606 23.466c-2.312 3.108-6.5 4.062-9.968 2.358l-20.418-10.218v27.06zM551.994 495.916a7.996 7.996 0 0 1-5.654-13.654l111.984-111.986a8 8 0 0 1 11.31 11.312l-111.984 111.986a7.98 7.98 0 0 1-5.656 2.342z" fill="" /><path d="M503.994 399.928a7.996 7.996 0 0 1-0.79-15.952l159.98-15.998c4.516-0.422 8.31 2.766 8.748 7.156a7.994 7.994 0 0 1-7.154 8.748l-159.98 15.998c-0.274 0.032-0.54 0.048-0.804 0.048zM56.068 719.878a7.998 7.998 0 0 1-7.07-4.25 7.982 7.982 0 0 1 3.312-10.81L564.242 432.86c3.876-2.11 8.734-0.578 10.812 3.312a7.982 7.982 0 0 1-3.312 10.81L59.81 718.942a7.892 7.892 0 0 1-3.742 0.936zM24.072 655.886a7.98 7.98 0 0 1-7.288-4.688 7.994 7.994 0 0 1 3.968-10.592l527.93-239.96c4.046-1.812 8.782-0.046 10.592 3.968a8.002 8.002 0 0 1-3.966 10.592L27.376 655.168a8.066 8.066 0 0 1-3.304 0.718z" fill="" /><path d="M56.06 719.878a7.96 7.96 0 0 1-2.532-0.406 8.012 8.012 0 0 1-5.054-10.124l15.998-47.994a7.996 7.996 0 0 1 10.116-5.062 8.012 8.012 0 0 1 5.054 10.124l-15.998 47.992a8 8 0 0 1-7.584 5.47z" fill="" /><path d="M72.058 671.884a7.96 7.96 0 0 1-2.532-0.406l-47.994-15.998a8.008 8.008 0 0 1-5.052-10.124 7.958 7.958 0 0 1 10.116-5.062l47.994 15.998a8.012 8.012 0 0 1 5.054 10.124 8.006 8.006 0 0 1-7.586 5.468zM152.048 1023.84c-4.422 0-8-3.578-8-8v-63.992a7.994 7.994 0 0 1 8-7.998 7.994 7.994 0 0 1 7.998 7.998v63.992c0 4.422-3.578 8-7.998 8zM296.028 927.852a7.994 7.994 0 0 1-7.998-7.998v-95.958a7.994 7.994 0 0 1 7.998-7.998c4.422 0 8 3.576 8 7.998v95.958a7.994 7.994 0 0 1-8 7.998z" fill="" /><path d="M488.002 783.872a7.994 7.994 0 0 1-7.998-8v-143.964c0-4.422 3.578-8 7.998-8 4.422 0 8 3.578 8 8v143.964c0 4.42-3.578 8-8 8z" fill="" /><path d="M615.986 1023.84c-4.422 0-8-3.578-8-8v-175.976c0-4.422 3.578-8 8-8a7.994 7.994 0 0 1 7.998 8v175.976c0 4.422-3.578 8-7.998 8z" fill="" /><path d="M807.96 1023.84a7.994 7.994 0 0 1-7.998-8V727.88c0-4.422 3.576-8 7.998-8s8 3.578 8 8v287.96c0 4.422-3.578 8-8 8z" fill="" /><path d="M936.024 671.884c-4.422 0-8-3.578-8-7.998V455.92c0-4.42 3.578-8 8-8a7.994 7.994 0 0 1 7.998 8v207.966a7.994 7.994 0 0 1-7.998 7.998z" fill="" /></svg>