<?xml version="1.0" encoding="utf-8"?><!-- Uploaded to: SVG Repo, www.svgrepo.com, Generator: SVG Repo Mixer Tools -->
<svg width="800px" height="800px" viewBox="0 0 24 24" fill="none" xmlns="http://www.w3.org/2000/svg">
<path d="M12 10.51C11.8376 10.5107 11.6795 10.458 11.55 10.36L9.49 8.82001C9.39558 8.75065 9.31847 8.66041 9.26469 8.55633C9.21092 8.45225 9.18193 8.33714 9.18 8.22001V5.13001C9.18116 5.01272 9.20981 4.89734 9.26364 4.79314C9.31748 4.68894 9.39501 4.59881 9.49 4.53001L11.55 3.00001C11.6798 2.90264 11.8377 2.85001 12 2.85001C12.1623 2.85001 12.3202 2.90264 12.45 3.00001L14.51 4.55001C14.605 4.61881 14.6825 4.70894 14.7364 4.81314C14.7902 4.91734 14.8188 5.03272 14.82 5.15001V8.22001C14.8181 8.33714 14.7891 8.45225 14.7353 8.55633C14.6815 8.66041 14.6044 8.75065 14.51 8.82001L12.45 10.36C12.3205 10.458 12.1624 10.5107 12 10.51ZM10.68 7.84001L12 8.84001L13.32 7.84001V5.50001L12 4.52001L10.68 5.52001V7.84001Z" fill="#000000"/>
<path d="M12 21.18C10.5938 21.1687 9.22221 20.7424 8.05733 19.9546C6.89246 19.1668 5.98616 18.0526 5.45212 16.7517C4.91809 15.4508 4.7801 14.0211 5.05547 12.6421C5.33084 11.2631 6.0073 9.99605 7 9C7.13647 8.87491 7.31487 8.80553 7.5 8.80553C7.68512 8.80553 7.86352 8.87491 8 9C8.14045 9.14062 8.21934 9.33125 8.21934 9.53C8.21934 9.72875 8.14045 9.91937 8 10.06C7.21461 10.8501 6.6808 11.8551 6.46591 12.9482C6.25103 14.0414 6.36469 15.1736 6.79255 16.2023C7.22042 17.2309 7.94333 18.1097 8.87009 18.728C9.79685 19.3462 10.8859 19.6761 12 19.6761C13.114 19.6761 14.2031 19.3462 15.1299 18.728C16.0567 18.1097 16.7796 17.2309 17.2074 16.2023C17.6353 15.1736 17.749 14.0414 17.5341 12.9482C17.3192 11.8551 16.7854 10.8501 16 10.06C15.8595 9.91937 15.7807 9.72875 15.7807 9.53C15.7807 9.33125 15.8595 9.14062 16 9C16.0689 8.92924 16.1514 8.87301 16.2424 8.83461C16.3334 8.79621 16.4312 8.77643 16.53 8.77643C16.6288 8.77643 16.7266 8.79621 16.8176 8.83461C16.9086 8.87301 16.9911 8.92924 17.06 9C18.0562 9.99968 18.7338 11.2722 19.0073 12.6568C19.2807 14.0413 19.1376 15.4759 18.5962 16.7792C18.0547 18.0826 17.1392 19.1962 15.9652 19.9795C14.7911 20.7627 13.4113 21.1805 12 21.18Z" fill="#000000"/>
</svg>