<?xml version="1.0" encoding="iso-8859-1"?>
<!-- Uploaded to: SVG Repo, www.svgrepo.com, Generator: SVG Repo Mixer Tools -->
<svg fill="#000000" height="800px" width="800px" version="1.1" id="Layer_1" xmlns="http://www.w3.org/2000/svg" xmlns:xlink="http://www.w3.org/1999/xlink" 
	 viewBox="0 0 512 512" xml:space="preserve">
<g>
	<g>
		<path d="M340.843,302.088h28.704v-33.442H142.454v33.442h28.704c-24.436,22.762-39.747,55.198-39.747,91.147
			c0,26.987,8.49,52.67,24.552,74.271c15.737,21.165,37.284,36.55,62.311,44.494l10.117-31.875
			c-38.005-12.064-63.539-46.982-63.539-86.89c0-50.258,40.889-91.147,91.148-91.147c50.26,0,91.148,40.889,91.148,91.147
			c0,39.908-25.534,74.827-63.539,86.89L293.726,512c25.027-7.944,46.574-23.329,62.311-44.494
			c16.062-21.602,24.552-47.284,24.552-74.271C380.59,357.284,365.279,324.848,340.843,302.088z"/>
	</g>
</g>
<g>
	<g>
		<polygon points="179.238,131.331 124.134,131.331 223.665,247.513 		"/>
	</g>
</g>
<g>
	<g>
		<polygon points="215.041,131.331 255.999,238.441 296.958,131.331 		"/>
	</g>
</g>
<g>
	<g>
		<polygon points="274.609,0 237.691,0 212.348,97.888 299.704,97.888 		"/>
	</g>
</g>
<g>
	<g>
		<polygon points="332.762,131.331 288.336,247.513 387.866,131.331 		"/>
	</g>
</g>
<g>
	<g>
		<polygon points="356.941,0 309.133,0 334.229,97.888 408.108,97.888 		"/>
	</g>
</g>
<g>
	<g>
		<polygon points="155.059,0 103.892,97.888 177.802,97.888 203.146,0 		"/>
	</g>
</g>
</svg>