<?xml version="1.0" encoding="utf-8"?><!-- Uploaded to: SVG Repo, www.svgrepo.com, Generator: SVG Repo Mixer Tools -->
<svg width="800px" height="800px" viewBox="0 0 24 24" fill="none" xmlns="http://www.w3.org/2000/svg">
<path d="M12.18 10.79C12.0694 10.7906 11.96 10.7666 11.8598 10.7199C11.7595 10.6733 11.6708 10.605 11.6 10.52L7 5C6.87702 4.8625 6.80902 4.68449 6.80902 4.5C6.80902 4.31552 6.87702 4.13751 7 4L8.82 2.14C8.89109 2.0661 8.97657 2.00757 9.07117 1.96801C9.16577 1.92845 9.26747 1.90871 9.37 1.91H14.89C15.0888 1.91018 15.2795 1.98931 15.42 2.13L17.23 3.93C17.3581 4.06233 17.4338 4.23667 17.443 4.42061C17.4521 4.60454 17.3942 4.78555 17.28 4.93L12.76 10.5C12.6917 10.5885 12.6037 10.6599 12.5031 10.7085C12.4024 10.7571 12.2918 10.7816 12.18 10.78V10.79ZM8.59 4.56L12.17 8.86L15.69 4.52L14.58 3.41H9.69L8.59 4.56Z" fill="#000000"/>
<path d="M12.14 21.18C10.7295 21.1785 9.35111 20.7593 8.17862 19.9753C7.00613 19.1913 6.09212 18.0775 5.55191 16.7746C5.01171 15.4717 4.8695 14.038 5.14323 12.6543C5.41697 11.2707 6.09439 9.99908 7.09001 9C7.15868 8.92631 7.24148 8.86721 7.33348 8.82622C7.42548 8.78523 7.52479 8.76319 7.62549 8.76141C7.72619 8.75963 7.82622 8.77816 7.91961 8.81588C8.013 8.8536 8.09783 8.90974 8.16905 8.98096C8.24027 9.05218 8.29642 9.13701 8.33414 9.2304C8.37186 9.32379 8.39038 9.42382 8.38861 9.52452C8.38683 9.62523 8.36479 9.72454 8.3238 9.81654C8.2828 9.90854 8.2237 9.99134 8.15001 10.06C7.36462 10.8501 6.83082 11.8551 6.61593 12.9482C6.40104 14.0414 6.5147 15.1737 6.94257 16.2023C7.37044 17.2309 8.09335 18.1097 9.02011 18.728C9.94687 19.3462 11.036 19.6761 12.15 19.6761C13.2641 19.6761 14.3532 19.3462 15.2799 18.728C16.2067 18.1097 16.9296 17.2309 17.3575 16.2023C17.7853 15.1737 17.899 14.0414 17.6841 12.9482C17.4692 11.8551 16.9354 10.8501 16.15 10.06C16.0096 9.91937 15.9307 9.72875 15.9307 9.53C15.9307 9.33125 16.0096 9.14062 16.15 9C16.219 8.92924 16.3014 8.87301 16.3924 8.83461C16.4834 8.79621 16.5812 8.77643 16.68 8.77643C16.7788 8.77643 16.8766 8.79621 16.9676 8.83461C17.0587 8.87301 17.1411 8.92924 17.21 9C18.2091 9.99856 18.8895 11.271 19.1652 12.6564C19.4409 14.0417 19.2995 15.4777 18.7589 16.7827C18.2183 18.0877 17.3027 19.203 16.1281 19.9875C14.9535 20.772 13.5725 21.1905 12.16 21.19L12.14 21.18Z" fill="#000000"/>
</svg>