<?xml version="1.0" encoding="iso-8859-1"?>
<!-- Uploaded to: SVG Repo, www.svgrepo.com, Generator: SVG Repo Mixer Tools -->
<svg fill="#000000" height="800px" width="800px" version="1.1" id="Layer_1" xmlns="http://www.w3.org/2000/svg" xmlns:xlink="http://www.w3.org/1999/xlink" 
	 viewBox="0 0 512.001 512.001" xml:space="preserve">
<g>
	<g>
		<path d="M509.068,297.436c-39.111-57.111-68.825-119.747-88.314-186.171c-3.293-11.218-8.913-55.778-53.776-55.778h-78.46
			c-9.253,0-16.761,7.502-16.761,16.761c0,9.128-7.137,16.483-15.266,16.75c-9.111-0.267-16.248-7.622-16.248-16.75
			c0-9.259-7.508-16.761-16.761-16.761h-78.46c-44.526,0-50.248,43.76-53.776,55.778c-19.489,66.424-49.203,129.06-88.313,186.17
			c-4.834,7.06-3.579,16.63,2.924,22.201c20.552,17.619,53.143,35.143,84.819,40.175c-5.178,13.748-10.624,27.402-16.606,40.855
			c-3.853,8.697,0.267,18.841,9.101,22.371c55.195,22.081,113.335,33.348,172.861,33.479
			c59.461-0.131,117.602-11.398,172.796-33.479c8.833-3.529,12.953-13.673,9.101-22.371c-5.975-13.437-11.416-27.076-16.588-40.808
			c31.642-5.05,64.262-22.615,84.801-40.22C512.647,314.066,513.902,304.495,509.068,297.436z"/>
	</g>
</g>
</svg>