<?xml version="1.0" encoding="iso-8859-1"?>
<!-- Uploaded to: SVG Repo, www.svgrepo.com, Generator: SVG Repo Mixer Tools -->
<svg fill="#000000" height="800px" width="800px" version="1.1" id="Layer_1" xmlns="http://www.w3.org/2000/svg" xmlns:xlink="http://www.w3.org/1999/xlink" 
	 viewBox="0 0 511.288 511.288" xml:space="preserve">
<g>
	<g>
		<path d="M467.27,258.702l-23.893-31.855v-38.724c14.874-9.856,23.27-20.762,23.893-21.589c1.34-1.775,1.929-4.011,1.63-6.212
			c-5.999-46.08-45.15-113.869-63.625-125.577c-6.571-4.173-22.289-10.487-47.232-19.021v9.165
			c1.033,29.21-7.586,56.619-27.128,85.948l-8.439,12.646c-1.579,2.381-4.25,3.806-7.1,3.806c-2.85,0-5.513-1.425-7.1-3.806
			l-14.771-22.144c-7.953,12.595-18.662,24.252-33.169,33.203c-1.374,0.853-2.927,1.28-4.48,1.28c-1.562,0-3.115-0.427-4.489-1.28
			c-14.618-9.02-25.327-20.813-33.297-33.527l-14.985,22.468c-1.587,2.381-4.25,3.806-7.1,3.806c-2.85,0-5.521-1.425-7.1-3.806
			l-8.431-12.646c-19.541-29.329-28.169-56.738-27.128-86.255v-8.9c-25.19,8.644-40.781,14.916-47.317,19.063
			c-18.475,11.708-57.626,79.497-63.625,125.577c-0.29,2.202,0.29,4.437,1.63,6.212c1.152,1.536,28.698,37.555,75.093,37.555
			c3.678,0,6.938-2.355,8.09-5.837l9.993-29.978c9.779,24.772,24.346,68.77,24.584,111.556
			c-3.473,13.619-34.133,136.047-34.133,205.858c0,3.968,2.748,7.424,6.63,8.311c3.063,0.708,75.768,17.289,121.37,17.289
			s118.306-16.58,121.378-17.289c3.874-0.888,6.622-4.344,6.622-8.311c0-69.811-30.66-192.239-34.133-205.858
			c0.247-42.718,14.814-86.75,24.585-111.539l9.992,29.961c1.161,3.482,4.42,5.837,8.09,5.837c12.911,0,24.303-2.842,34.133-6.895
			v29.653l-23.893,31.855c-1.101,1.476-1.707,3.268-1.707,5.12v59.733c0,4.71,3.814,8.533,8.533,8.533h51.2
			c4.719,0,8.533-3.823,8.533-8.533v-59.733C468.977,261.97,468.379,260.178,467.27,258.702z"/>
	</g>
</g>
<g>
	<g>
		<path d="M340.986,25.186V9.954c-8.32-2.748-15.983-5.222-21.879-7.125l-3.524-1.143v6.135c0.171,1.971,2.739,39.868-13.022,76.331
			l12.817,19.217l1.331-1.997C334.177,75.166,341.882,50.957,340.986,25.186z"/>
	</g>
</g>
<g>
	<g>
		<path d="M298.546,8.465V0c-5.231,0.759-10.641,2.031-16.273,3.413c-8.866,2.167-18.039,4.403-26.624,4.403
			c-8.593,0-17.758-2.236-26.633-4.403c-5.47-1.348-10.735-2.577-15.829-3.345v7.748c-0.086,1.383-4.958,75.299,42.666,109.236
			C303.64,83.038,298.605,9.233,298.546,8.465z"/>
	</g>
</g>
<g>
	<g>
		<path d="M196.149,7.172L196.14,1.54l-3.959,1.289c-5.862,1.886-13.466,4.352-21.794,7.1v14.959
			c-0.905,26.069,6.801,50.278,24.269,76.484l1.331,1.997l13.099-19.644C193.521,47.33,195.961,9.562,196.149,7.172z"/>
	</g>
</g>
</svg>