<?xml version="1.0" encoding="iso-8859-1"?>
<!-- Uploaded to: SVG Repo, www.svgrepo.com, Generator: SVG Repo Mixer Tools -->
<svg fill="#000000" height="800px" width="800px" version="1.1" id="Layer_1" xmlns="http://www.w3.org/2000/svg" xmlns:xlink="http://www.w3.org/1999/xlink" 
	 viewBox="0 0 504.18 504.18" xml:space="preserve">
<g>
	<g>
		<path d="M425.932,25.758l-39.484-7.612c-1.775-0.495-3.627-0.862-5.555-1.041C369.049,15.996,336.562,7.113,324.18,0.9
			c-2.645-1.306-5.794-1.186-8.303,0.375c-2.517,1.553-4.053,4.301-4.053,7.262c0,18.5-27.358,34.133-59.733,34.133
			s-59.733-15.633-59.733-34.133c0-2.961-1.536-5.709-4.053-7.262c-2.517-1.562-5.666-1.69-8.303-0.375
			c-12.382,6.212-44.868,15.095-56.713,16.205c-1.929,0.179-3.78,0.546-5.555,1.041l-39.987,7.723
			C65.544,28.992,4.624,46.127,4.624,76.804c0,3.226,1.826,6.178,4.71,7.629c12.339,6.187,29.423,18.842,29.431,26.197
			c-0.111,2.944-0.674,29.269,12.689,43.127c5.282,5.487,12.151,8.38,19.874,8.38h57.694c2.731,5.043,5.589,9.822,8.439,14.353
			c6.562,10.445,12.228,19.473,12.228,28.314v3.038c0.009,32.555,0.017,56.081-8.073,82.987
			c-17.297,57.481-26.061,123.281-26.061,195.575c0,3.678,2.347,6.929,5.837,8.09c2.244,0.759,55.612,18.184,104.713,4.378
			c16.87-4.753,35.089-4.753,51.977,0c13.85,3.891,28.032,5.308,41.318,5.308c33.818,0,61.773-9.139,63.386-9.685
			c3.49-1.161,5.837-4.412,5.837-8.09c0-72.294-8.764-138.095-26.061-195.575c-8.09-26.906-8.081-50.432-8.073-82.987v-3.038
			c0-8.841,5.666-17.869,12.228-28.314c2.85-4.531,5.717-9.318,8.448-14.353h57.685c7.723,0,14.592-2.893,19.874-8.38
			c13.363-13.858,12.8-40.183,12.698-42.82c0-7.663,17.084-20.318,29.423-26.505c2.884-1.451,4.71-4.403,4.71-7.629
			C499.558,46.127,438.638,28.992,425.932,25.758z M71.329,145.072L71.329,145.072c-3.098-0.001-5.504-0.999-7.569-3.133
			c-7.074-7.322-8.124-25.062-7.936-31.002c0-17.263-21.308-31.872-32.819-38.502c6.605-11.443,36.548-24.286,58.479-29.926
			l17.135-3.294c-0.145,1.28-0.188,2.586-0.111,3.925c0.171,3.072,0.452,6.417,0.802,9.882c0.06,0.529,0.102,1.033,0.162,1.57
			c0.358,3.328,0.802,6.818,1.314,10.411c0.102,0.717,0.205,1.434,0.316,2.167c0.538,3.618,1.135,7.313,1.818,11.102
			c0.119,0.683,0.256,1.357,0.375,2.039c0.734,3.985,1.527,8.021,2.406,12.109c0.026,0.137,0.06,0.282,0.094,0.427
			c0.87,4.045,1.826,8.115,2.825,12.169c0.154,0.597,0.29,1.178,0.435,1.775c0.998,3.968,2.065,7.893,3.174,11.785
			c0.213,0.725,0.418,1.451,0.631,2.176c1.126,3.849,2.295,7.629,3.516,11.307c0.213,0.631,0.427,1.237,0.64,1.86
			c1.28,3.772,2.603,7.458,3.985,10.965c0.017,0.06,0.043,0.128,0.068,0.188H71.329z M448.366,111.244
			c0.196,5.615-0.819,23.287-7.927,30.677c-2.074,2.15-4.489,3.149-7.586,3.149h-49.732c0.017-0.051,0.026-0.094,0.051-0.145
			c1.391-3.541,2.731-7.27,4.028-11.085c0.196-0.58,0.393-1.143,0.589-1.724c1.229-3.712,2.406-7.518,3.541-11.392
			c0.213-0.708,0.41-1.408,0.614-2.125c1.118-3.908,2.185-7.859,3.191-11.844c0.137-0.563,0.273-1.118,0.41-1.681
			c1.007-4.079,1.963-8.166,2.842-12.228c0.034-0.145,0.068-0.29,0.102-0.435c0.879-4.096,1.673-8.149,2.406-12.16
			c0.119-0.648,0.247-1.297,0.367-1.946c0.683-3.806,1.289-7.518,1.826-11.153c0.111-0.725,0.213-1.434,0.316-2.15
			c0.512-3.601,0.956-7.091,1.314-10.419c0.06-0.538,0.102-1.033,0.154-1.562c0.358-3.465,0.64-6.81,0.811-9.89
			c0.068-1.34,0.026-2.645-0.12-3.925l16.64,3.2c22.366,5.734,52.361,18.586,58.974,30.029
			C469.665,79.074,448.358,93.743,448.366,111.244z"/>
	</g>
</g>
</svg>