<?xml version='1.0' encoding='iso-8859-1'?>
<!-- Uploaded to: SVG Repo, www.svgrepo.com, Generator: SVG Repo Mixer Tools -->
<svg fill="#000000" height="800px" width="800px" version="1.1" xmlns="http://www.w3.org/2000/svg" viewBox="0 0 473.982 473.982" xmlns:xlink="http://www.w3.org/1999/xlink" enable-background="new 0 0 473.982 473.982">
  <g>
    <path d="m330.563,187.578h-187.145c-4.142,0-7.5,3.358-7.5,7.5s3.358,7.5 7.5,7.5h187.146c4.142,0 7.5-3.358 7.5-7.5s-3.359-7.5-7.501-7.5z"/>
    <path d="m65.234,221.578h-27.718c-4.142,0-7.5,3.358-7.5,7.5s3.358,7.5 7.5,7.5h27.718c13.697,0 25.247,9.372 28.575,22.04h-54.372c-4.142,0-7.5,3.358-7.5,7.5s3.358,7.5 7.5,7.5h62.835c4.142,0 7.5-3.358 7.5-7.5 0.001-24.56-19.979-44.54-44.538-44.54z"/>
    <path d="m408.747,236.578h27.718c4.142,0 7.5-3.358 7.5-7.5s-3.358-7.5-7.5-7.5h-27.718c-24.559,0-44.539,19.98-44.539,44.54 0,4.142 3.358,7.5 7.5,7.5h62.835c4.142,0 7.5-3.358 7.5-7.5s-3.358-7.5-7.5-7.5h-54.371c3.328-12.668 14.878-22.04 28.575-22.04z"/>
    <path d="m458.676,188.615c-10.513-10.987-24.789-17.038-40.2-17.038-0.675,0-1.347,0.091-1.997,0.271l-24.103,6.659-35.507-68.214c-6.357-12.212-22.121-21.778-35.887-21.778h-167.984c-13.767,0-29.53,9.566-35.887,21.778l-35.507,68.214-24.103-6.659c-0.65-0.18-1.322-0.271-1.997-0.271-15.411,0-29.688,6.051-40.2,17.038s-15.928,25.517-15.247,40.958l5.443,108.519c0.2,3.991 3.495,7.125 7.491,7.125h2.5v32.75c0,4.142 3.358,7.5 7.5,7.5h78.911c4.142,0 7.5-3.358 7.5-7.5v-10.25c0-4.142-3.358-7.5-7.5-7.5s-7.5,3.358-7.5,7.5v2.75h-63.912v-25.25h413v25.25h-63.911v-2.75c0-4.142-3.358-7.5-7.5-7.5s-7.5,3.358-7.5,7.5v10.25c0,4.142 3.358,7.5 7.5,7.5h78.911c4.142,0 7.5-3.358 7.5-7.5v-32.75h2.5c3.996,0 7.291-3.133 7.491-7.125l5.444-108.563c0.68-15.397-4.736-29.927-15.249-40.914zm.266,40.207l-5.085,101.394h-433.733l-5.083-101.349c-0.497-11.268 3.445-21.88 11.102-29.881 7.434-7.77 17.482-12.15 28.385-12.396l28.854,7.972c0.018,0.005 0.036,0.01 0.055,0.015l27.984,7.731c3.991,1.103 8.123-1.239 9.226-5.232 1.103-3.992-1.239-8.123-5.232-9.226l-19.026-5.256 34.028-65.373c3.8-7.3 14.352-13.704 22.582-13.704h167.984c8.229,0 18.782,6.404 22.582,13.704l34.028,65.373-19.026,5.256c-3.993,1.103-6.335,5.234-5.232,9.226 1.103,3.993 5.234,6.334 9.226,5.232l56.893-15.718c10.903,0.247 20.951,4.627 28.385,12.396 7.656,8.001 11.598,18.613 11.103,29.836z"/>
    <path d="m418.476,156.578h26.128c4.142,0 7.5-3.358 7.5-7.5s-3.358-7.5-7.5-7.5h-26.128c-4.142,0-7.5,3.358-7.5,7.5s3.358,7.5 7.5,7.5z"/>
    <path d="m29.376,156.578h26.128c4.142,0 7.5-3.358 7.5-7.5s-3.358-7.5-7.5-7.5h-26.128c-4.142,0-7.5,3.358-7.5,7.5s3.358,7.5 7.5,7.5z"/>
    <path d="m320.176,280.171h-166.371c-4.142,0-7.5,3.358-7.5,7.5v20.045c0,4.142 3.358,7.5 7.5,7.5s7.5-3.358 7.5-7.5v-12.545h151.371v12.545c0,4.142 3.358,7.5 7.5,7.5s7.5-3.358 7.5-7.5v-20.045c-5.68434e-14-4.142-3.358-7.5-7.5-7.5z"/>
    <path d="m278.583,242.578c4.142,0 7.5-3.358 7.5-7.5s-3.358-7.5-7.5-7.5h-83.186c-4.142,0-7.5,3.358-7.5,7.5s3.358,7.5 7.5,7.5h83.186z"/>
  </g>
</svg>