<?xml version="1.0" encoding="utf-8"?>

<!DOCTYPE svg PUBLIC "-//W3C//DTD SVG 1.1//EN" "http://www.w3.org/Graphics/SVG/1.1/DTD/svg11.dtd">
<!-- Uploaded to: SVG Repo, www.svgrepo.com, Generator: SVG Repo Mixer Tools -->
<svg fill="#000000" height="800px" width="800px" version="1.1" id="Layer_1" xmlns="http://www.w3.org/2000/svg" xmlns:xlink="http://www.w3.org/1999/xlink" 
	 viewBox="0 0 100 100" enable-background="new 0 0 100 100" xml:space="preserve">
<path d="M61.6,89.1c5.5,0,10-4.5,10-10v-50c0-5.5-4.5-10-10-10h-34c-5.5,0-10,4.5-10,10v50c0,5.5,4.5,10,10,10H61.6z M23.2,31.6
	c0-3.7,3-6.7,6.7-6.7h29.3c3.7,0,6.7,3,6.7,6.7v1.6c0,0.6-0.4,1-1,1s-1-0.4-1-1v-1.6c0-2.6-2.1-4.7-4.7-4.7H29.9
	c-2.6,0-4.7,2.1-4.7,4.7v1.6c0,0.6-0.4,1-1,1s-1-0.4-1-1V31.6z M25.2,61.4V63c0,0.6-0.4,1-1,1s-1-0.4-1-1v-1.6c0-3.7,3-6.7,6.7-6.7
	h29.3c3.7,0,6.7,3,6.7,6.7V63c0,0.6-0.4,1-1,1s-1-0.4-1-1v-1.6c0-2.6-2.1-4.7-4.7-4.7H29.9C27.3,56.7,25.2,58.8,25.2,61.4z
	 M43.2,7.8c0-1.4,1.1-2.5,2.5-2.5h5.7c1.4,0,2.5,1.1,2.5,2.5v7.4h4V7.8c0-3.6-2.9-6.5-6.5-6.5h-5.7c-3.6,0-6.5,2.9-6.5,6.5v7.4h4
	V7.8z M72.4,19.1h-1.2c2.7,2.6,4.4,6.2,4.4,10.2V79c0,4-1.7,7.6-4.4,10.2h1.2c5.5,0,10-4.5,10-10v-50C82.4,23.6,77.9,19.1,72.4,19.1
	z M63.1,98.6c3.1,0,5.7-2.5,5.7-5.7H57.4C57.4,96.1,59.9,98.6,63.1,98.6z M33.1,98.6c3.1,0,5.7-2.5,5.7-5.7H27.4
	C27.4,96.1,30,98.6,33.1,98.6z"/>
</svg>