<?xml version="1.0" encoding="iso-8859-1"?>
<!-- Uploaded to: SVG Repo, www.svgrepo.com, Generator: SVG Repo Mixer Tools -->
<!DOCTYPE svg PUBLIC "-//W3C//DTD SVG 1.1//EN" "http://www.w3.org/Graphics/SVG/1.1/DTD/svg11.dtd">
<svg fill="#000000" height="800px" width="800px" version="1.1" id="Capa_1" xmlns="http://www.w3.org/2000/svg" xmlns:xlink="http://www.w3.org/1999/xlink" 
	 viewBox="0 0 57.004 57.004" xml:space="preserve">
<g>
	<path d="M52.004,24.502h-2h-9h-2h-9h-2h-9h-2h-9h-2H0v9h0.004v5H0v9h0.004v7h11h2h9h2h9h2h9h2h11v-7v-2v-5v-2v-5v-2v-7H52.004z
		 M41.004,26.502h9v5h-4h-2h-3V26.502z M50.004,45.502h-4h-2h-3v-5h3h2h4V45.502z M2,40.502h4.004v5H2V40.502z M8.004,40.502h3h2h4
		v5h-4h-2h-3V40.502z M13.004,33.502h4h2h3v5h-3h-2h-4V33.502z M33.004,38.502h-3h-2h-4v-5h4h2h3V38.502z M19.004,40.502h3h2h4v5h-4
		h-2h-3V40.502z M30.004,40.502h3h2h4v5h-4h-2h-3V40.502z M44.004,38.502h-3h-2h-4v-5h4h2h3V38.502z M30.004,26.502h9v5h-4h-2h-3
		V26.502z M19.004,26.502h9v5h-4h-2h-3V26.502z M8.004,26.502h9v5h-4h-2h-3V26.502z M2,26.502h4.004v5H2V26.502z M2.004,33.502h4h2
		h3v5h-3h-2h-4V33.502z M11.004,52.502h-9v-5h4h2h3V52.502z M22.004,52.502h-9v-5h4h2h3V52.502z M33.004,52.502h-9v-5h4h2h3V52.502z
		 M44.004,52.502h-9v-5h4h2h3V52.502z M55.004,52.502h-9v-5h4h2h3V52.502z M55.004,45.502h-3v-5h3V45.502z M55.004,38.502h-3h-2h-4
		v-5h4h2h3V38.502z M52.004,31.502v-5h3v5H52.004z"/>
	<path d="M57,2.502H0.004v21H57V2.502z M4.297,11.795l5-5c0.391-0.391,1.023-0.391,1.414,0s0.391,1.023,0,1.414l-5,5
		c-0.195,0.195-0.451,0.293-0.707,0.293s-0.512-0.098-0.707-0.293C3.906,12.818,3.906,12.186,4.297,11.795z M18.711,7.209l-13,13
		c-0.195,0.195-0.451,0.293-0.707,0.293s-0.512-0.098-0.707-0.293c-0.391-0.391-0.391-1.023,0-1.414l13-13
		c0.391-0.391,1.023-0.391,1.414,0S19.102,6.818,18.711,7.209z"/>
</g>
</svg>