<?xml version="1.0" encoding="iso-8859-1"?>
<!-- Uploaded to: SVG Repo, www.svgrepo.com, Generator: SVG Repo Mixer Tools -->
<!DOCTYPE svg PUBLIC "-//W3C//DTD SVG 1.1//EN" "http://www.w3.org/Graphics/SVG/1.1/DTD/svg11.dtd">
<svg fill="#000000" version="1.1" id="Capa_1" xmlns="http://www.w3.org/2000/svg" xmlns:xlink="http://www.w3.org/1999/xlink" 
	 width="800px" height="800px" viewBox="0 0 381.912 381.912"
	 xml:space="preserve">
<g>
	<g>
		<path d="M341.625,95.612L209.784,34.644c0.511,1.787,0.87,3.642,0.87,5.593c0,1.663-0.256,3.267-0.639,4.82l109.33,50.555H62.56
			l107.939-49.913c-0.487-1.753-0.837-3.556-0.837-5.462c0-1.641,0.244-3.212,0.606-4.74L40.273,95.606H0v260.323h381.912V95.606
			h-40.286V95.612z M369.441,343.464H12.47V108.083h356.971V343.464z"/>
		<path d="M254.07,137.868c-3.465,2.475-5.669,4.825-6.606,7.042c-0.956,1.976-1.468,4.153-1.535,6.534h22.768v-5.754h-14.511
			c0.408-0.694,0.92-1.291,1.522-1.814c0.609-0.518,1.724-1.361,3.361-2.521l2.618-1.857c2.211-1.559,3.794-2.975,4.75-4.241
			c1.474-1.909,2.21-4.095,2.21-6.558c0-3.212-1.041-5.793-3.123-7.739c-2.077-1.952-4.872-2.923-8.403-2.923
			c-4.445,0-7.551,1.656-9.292,4.975c-0.913,1.738-1.425,4.028-1.541,6.853h6.352c0.073-1.866,0.316-3.224,0.742-4.08
			c0.713-1.482,2.064-2.226,4.056-2.226c1.449,0,2.569,0.469,3.35,1.403c0.779,0.935,1.169,2.101,1.169,3.504
			c0,1.726-0.683,3.316-2.046,4.771C259.033,134.171,257.083,135.718,254.07,137.868z"/>
		<path d="M283.504,152.265c4.232,0,7.204-1.482,8.909-4.445c1.705-2.968,2.557-7.188,2.557-12.678
			c0-5.486-0.852-9.718-2.557-12.702c-1.705-2.972-4.677-4.47-8.909-4.47c-4.231,0-7.203,1.492-8.908,4.47
			c-1.705,2.989-2.558,7.215-2.558,12.702c0,5.49,0.853,9.709,2.558,12.678S279.273,152.265,283.504,152.265z M279.663,126.247
			c0.621-1.928,1.906-2.893,3.849-2.893c1.936,0,3.215,0.965,3.817,2.893c0.603,1.927,0.907,4.89,0.907,8.896
			c0,3.824-0.311,6.741-0.907,8.769c-0.603,2.025-1.882,3.036-3.817,3.036c-1.937,0-3.222-1.011-3.849-3.036
			c-0.634-2.022-0.944-4.945-0.944-8.769C278.718,131.142,279.029,128.173,279.663,126.247z"/>
		<path d="M307.758,151.443h6.697v-33.241H309c0,0.292-0.086,0.737-0.256,1.327c-0.293,0.993-0.719,1.791-1.279,2.381
			c-0.815,0.874-1.888,1.456-3.196,1.742c-0.822,0.18-2.26,0.317-4.317,0.411v4.445h7.818v22.935H307.758z"/>
		<path d="M337.205,151.443h6.395v-7.152h3.763v-5.115h-3.763v-20.773h-7.332l-12.215,20.176v5.711h13.152V151.443z
			 M328.912,139.177l8.3-14.322v14.322H328.912z"/>
		<rect x="40.268" y="179.865" width="62.876" height="32.336"/>
		<rect x="121.326" y="179.865" width="62.876" height="32.336"/>
		<rect x="202.385" y="179.865" width="62.876" height="32.336"/>
		<rect x="283.444" y="179.865" width="62.877" height="32.336"/>
		<rect x="40.268" y="240.784" width="62.876" height="32.333"/>
		<rect x="121.326" y="240.784" width="62.876" height="32.333"/>
		<rect x="202.385" y="240.784" width="62.876" height="32.333"/>
		<rect x="283.444" y="240.784" width="62.877" height="32.333"/>
		<rect x="40.268" y="301.699" width="62.876" height="32.34"/>
		<rect x="121.326" y="301.699" width="62.876" height="32.34"/>
		<rect x="202.385" y="301.699" width="62.876" height="32.34"/>
		<rect x="283.444" y="301.699" width="62.877" height="32.34"/>
		<path d="M49.931,173.629c0.457,0.252,0.95,0.441,1.51,0.441H91.97c0.561,0,1.054-0.189,1.51-0.441
			c0.941-0.539,1.607-1.51,1.607-2.677c0-1.72-1.397-3.117-3.118-3.117H51.441c-1.72,0-3.118,1.397-3.118,3.117
			C48.323,172.119,48.984,173.09,49.931,173.629z"/>
		<path d="M51.441,228.112c-1.72,0-3.118,1.395-3.118,3.118c0,1.723,1.397,3.117,3.118,3.117H91.97c1.72,0,3.118-1.395,3.118-3.117
			c0-1.724-1.397-3.118-3.118-3.118H51.441z"/>
		<path d="M51.441,287.347c-1.72,0-3.118,1.395-3.118,3.117c0,1.724,1.397,3.118,3.118,3.118H91.97c1.72,0,3.118-1.395,3.118-3.118
			c0-1.723-1.397-3.117-3.118-3.117H51.441z"/>
		<path d="M130.99,173.629c0.457,0.252,0.95,0.441,1.51,0.441h40.529c0.56,0,1.053-0.189,1.51-0.441
			c0.94-0.539,1.607-1.51,1.607-2.677c0-1.72-1.397-3.117-3.118-3.117H132.5c-1.72,0-3.118,1.397-3.118,3.117
			C129.382,172.119,130.043,173.09,130.99,173.629z"/>
		<path d="M132.5,228.112c-1.72,0-3.118,1.395-3.118,3.118c0,1.723,1.397,3.117,3.118,3.117h40.529c1.72,0,3.118-1.395,3.118-3.117
			c0-1.724-1.397-3.118-3.118-3.118H132.5z"/>
		<path d="M132.5,287.347c-1.72,0-3.118,1.395-3.118,3.117c0,1.724,1.397,3.118,3.118,3.118h40.529c1.72,0,3.118-1.395,3.118-3.118
			c0-1.723-1.397-3.117-3.118-3.117H132.5z"/>
		<path d="M212.048,173.629c0.457,0.252,0.95,0.441,1.511,0.441h40.529c0.56,0,1.053-0.189,1.51-0.441
			c0.938-0.539,1.607-1.51,1.607-2.677c0-1.72-1.4-3.117-3.117-3.117h-40.529c-1.718,0-3.118,1.397-3.118,3.117
			C210.441,172.119,211.099,173.09,212.048,173.629z"/>
		<path d="M213.559,228.112c-1.718,0-3.118,1.395-3.118,3.118c0,1.723,1.4,3.117,3.118,3.117h40.529
			c1.717,0,3.117-1.395,3.117-3.117c0-1.724-1.4-3.118-3.117-3.118H213.559z"/>
		<path d="M213.559,287.347c-1.718,0-3.118,1.395-3.118,3.117c0,1.724,1.4,3.118,3.118,3.118h40.529
			c1.717,0,3.117-1.395,3.117-3.118c0-1.723-1.4-3.117-3.117-3.117H213.559z"/>
		<path d="M294.618,174.071h40.529c0.56,0,1.054-0.189,1.51-0.441c0.938-0.539,1.608-1.51,1.608-2.677
			c0-1.72-1.401-3.117-3.118-3.117h-40.529c-1.718,0-3.118,1.397-3.118,3.117c0,1.167,0.658,2.138,1.607,2.677
			C293.564,173.882,294.057,174.071,294.618,174.071z"/>
		<path d="M335.147,234.347c1.717,0,3.118-1.395,3.118-3.117c0-1.724-1.401-3.118-3.118-3.118h-40.529
			c-1.718,0-3.118,1.395-3.118,3.118c0,1.723,1.4,3.117,3.118,3.117H335.147z"/>
		<path d="M335.147,293.583c1.717,0,3.118-1.395,3.118-3.118c0-1.723-1.401-3.117-3.118-3.117h-40.529
			c-1.718,0-3.118,1.395-3.118,3.117c0,1.724,1.4,3.118,3.118,3.118H335.147z"/>
		<path d="M179.002,31.469c-1.909,2.426-3.093,5.444-3.093,8.774c0,0.965,0.1,1.912,0.286,2.832
			c1.318,6.516,7.066,11.429,13.975,11.429c7.143,0,13.006-5.27,14.041-12.129c0.104-0.697,0.214-1.403,0.214-2.131
			c0-3.878-1.56-7.389-4.074-9.958c-2.594-2.649-6.192-4.302-10.187-4.302C185.613,25.982,181.609,28.153,179.002,31.469z"/>
	</g>
</g>
</svg>