<?xml version="1.0" encoding="iso-8859-1"?>
<!-- Uploaded to: SVG Repo, www.svgrepo.com, Generator: SVG Repo Mixer Tools -->
<svg fill="#000000" height="800px" width="800px" version="1.1" id="Layer_1" xmlns="http://www.w3.org/2000/svg" xmlns:xlink="http://www.w3.org/1999/xlink" 
	 viewBox="0 0 503.607 503.607" xml:space="preserve">
<g>
	<g>
		<path d="M495.213,411.116h-33.574v-66.493c2.501-0.386,5.204-0.655,8.393-0.655c13.883,0,25.18-11.298,25.18-25.18v-16.82
			c0-13.874-11.281-25.147-25.18-25.147h-67.148v-55.414c2.375-2.191,4.86-3.341,8.393-3.341c13.883,0,25.18-11.298,25.18-25.18
			V176.1c0-13.891-11.298-25.18-25.18-25.18h-41.967v-43.352c7.202-2.207,13.329-7.143,17.148-14.336
			c5.07-9.535,5.145-20.824,0.134-30.267l-18.306-33.574c-2.946-5.397-11.793-5.397-14.739,0l-18.348,33.658
			c-4.969,9.359-4.893,20.648,0.176,30.183c3.819,7.193,9.946,12.129,17.148,14.328v43.361h-92.328v-43.352
			c7.202-2.207,13.329-7.143,17.148-14.336c5.07-9.535,5.145-20.824,0.134-30.267l-18.306-33.574
			c-2.946-5.397-11.793-5.397-14.739,0l-18.348,33.658c-4.969,9.359-4.893,20.648,0.176,30.183
			c3.819,7.193,9.946,12.129,17.148,14.328v43.361h-92.328v-43.352c7.202-2.207,13.329-7.143,17.148-14.336
			c5.07-9.535,5.145-20.824,0.134-30.267l-18.306-33.574c-2.946-5.397-11.793-5.397-14.739,0l-18.348,33.658
			c-4.969,9.359-4.893,20.648,0.176,30.183c3.819,7.193,9.946,12.129,17.148,14.328v43.361H92.328
			c-13.883,0-25.18,11.289-25.18,25.18v16.787c0,13.883,11.298,25.18,25.18,25.18c3.366,0,6.052,0.554,8.393,1.528v57.227H33.549
			c-13.874,0-25.155,11.272-25.155,25.147v16.82c0,13.883,11.298,25.18,25.18,25.18h8.393v67.148H8.393
			c-4.633,0-8.393,3.752-8.393,8.393v33.574c0,13.883,11.298,25.18,25.18,25.18h453.246c13.883,0,25.18-11.298,25.18-25.18v-33.574
			C503.607,414.868,499.846,411.116,495.213,411.116z M117.508,237.859c0.26,0.336,0.537,0.663,0.806,0.999
			c0.143,0.185,0.285,0.353,0.428,0.529c0.688,0.848,1.41,1.67,2.165,2.476c0.201,0.227,0.395,0.445,0.604,0.655
			c1.855,1.905,3.928,3.66,6.32,5.112c0.344,0.21,0.722,0.395,1.083,0.588c0.865,0.478,1.771,0.915,2.719,1.309
			c0.47,0.185,0.948,0.361,1.435,0.529c0.974,0.336,2.006,0.604,3.072,0.839c0.487,0.101,0.957,0.227,1.469,0.311
			c1.595,0.26,3.265,0.436,5.078,0.436c15.78,0,23.065-10.551,28.915-19.036c6.413-9.283,10.567-14.537,21.445-14.537
			c12.179,0,18.944,7.193,26.775,15.519c7.957,8.461,16.98,18.054,31.979,18.054c14.999,0,24.014-9.594,31.971-18.054
			c7.839-8.326,14.605-15.519,26.783-15.519c6.673,0,9.611,3.827,15.1,11.776c6.354,9.199,15.049,21.798,35.261,21.798
			c2.736,0,5.229-0.277,7.571-0.688c0.806-0.151,1.502-0.394,2.258-0.579c1.46-0.369,2.896-0.747,4.197-1.242
			c0.814-0.311,1.544-0.688,2.308-1.049c1.091-0.52,2.166-1.058,3.156-1.67c0.739-0.445,1.444-0.923,2.124-1.41
			c0.856-0.621,1.67-1.251,2.451-1.922c0.361-0.302,0.772-0.554,1.116-0.865v34.606h-268.59V237.859z M444.852,411.116H58.754
			v-66.258c0.176,0.042,0.361,0.076,0.546,0.117c1.855,0.386,3.727,0.848,5.573,1.435c0.076,0.017,0.151,0.05,0.235,0.076
			c1.813,0.588,3.609,1.267,5.363,2.006c0.235,0.092,0.478,0.193,0.722,0.302c1.721,0.747,3.374,1.57,4.977,2.451
			c0.294,0.151,0.588,0.319,0.873,0.478c1.578,0.906,3.089,1.838,4.491,2.829c0.176,0.126,0.336,0.26,0.512,0.378
			c1.351,0.974,2.602,1.989,3.743,3.022c0.101,0.092,0.227,0.193,0.327,0.294c1.141,1.058,2.115,2.149,2.963,3.231
			c0.159,0.21,0.327,0.403,0.47,0.613c0.789,1.074,1.427,2.157,1.889,3.223c0.076,0.176,0.126,0.353,0.193,0.537
			c0.411,1.116,0.697,2.224,0.697,3.299v8.393c0,12.943,12.238,25.18,25.18,25.18c12.943,0,25.18-12.238,25.18-25.18v-8.393
			c0-11.726,3.819-25.18,33.574-25.18c18.927,0,27.22,7.42,36.822,16.023c9.182,8.226,19.59,17.551,38.719,17.551
			s29.536-9.325,38.719-17.551c9.602-8.603,17.903-16.023,36.822-16.023c18.927,0,27.22,7.42,36.822,16.023
			c5.515,4.944,11.516,10.24,19.548,13.723c0.319,0.134,0.604,0.311,0.932,0.436c0.344,0.143,0.747,0.235,1.1,0.369
			c4.877,1.83,10.45,3.022,17.131,3.022h0.008h0.008c1.175,0,2.191-0.151,3.29-0.218c1.209-0.084,2.493-0.084,3.618-0.235
			c0.201-0.025,0.361-0.092,0.562-0.117c14.613-2.199,22.066-10.668,28.185-17.693c2.115-2.417,4.104-4.7,6.303-6.723V411.116z"/>
	</g>
</g>
</svg>