<?xml version="1.0" encoding="iso-8859-1"?>
<!-- Uploaded to: SVG Repo, www.svgrepo.com, Generator: SVG Repo Mixer Tools -->
<svg fill="#000000" height="800px" width="800px" version="1.1" id="Layer_1" xmlns="http://www.w3.org/2000/svg" xmlns:xlink="http://www.w3.org/1999/xlink" 
	 viewBox="0 0 512 512" xml:space="preserve">
<g>
	<g>
		<path d="M369.261,142.739C349.206,60.904,275.246,0,187.317,0C84.03,0,0,84.03,0,187.317c0,87.92,60.892,161.873,142.714,181.936
			C163.006,452.552,237.964,512,324.683,512C427.97,512,512,427.97,512,324.683C512,236.753,451.096,162.794,369.261,142.739z
			 M37.463,187.317c0-82.629,67.224-149.854,149.854-149.854c65.14,0,120.696,41.783,141.299,99.952
			c-1.309-0.028-2.619-0.05-3.934-0.05c-7.546,0-15,0.461-22.339,1.337c-18.996-44.778-63.403-76.264-115.026-76.264
			c-68.858,0-124.878,56.02-124.878,124.878s56.02,124.878,124.878,124.878c49.729,0,92.757-29.221,112.829-71.393
			c7.859-2.307,16.107-3.534,24.537-3.534c1.301,0,2.594,0.042,3.881,0.099c-20.645,58.092-76.162,99.804-141.247,99.804
			C104.688,337.171,37.463,269.946,37.463,187.317z M264.913,147.14c-54.884,18.477-99.018,61.763-117.805,117.756
			c-28.016-14.581-47.205-43.872-47.205-77.579c0-48.2,39.214-87.415,87.415-87.415C221.037,99.902,250.337,119.106,264.913,147.14z
			 M364.856,247.085c28.035,14.575,47.241,43.877,47.241,77.598c0,48.2-39.214,87.415-87.415,87.415
			c-33.341,0-62.899-18.459-77.674-47.218C302.336,346.232,346.184,302.402,364.856,247.085z M324.683,474.537
			c-64.338,0-120.586-40.885-141.363-99.954c1.33,0.029,2.661,0.051,3.997,0.051c7.563,0,15.018-0.463,22.348-1.339
			c8.577,20.177,22.508,38.103,40.123,51.322c21.745,16.318,47.642,24.943,74.894,24.943c68.858,0,124.878-56.02,124.878-124.878
			c0-43.503-22.364-81.874-56.195-104.239c-19.718-13.036-43.328-20.639-68.683-20.639c-48.203,0-92.239,27.958-112.855,71.404
			c-7.782,2.278-16.002,3.523-24.511,3.523c-1.324,0-2.636-0.041-3.946-0.1c20.82-58.987,77.029-99.802,141.312-99.802
			c24.741,0,48.096,6.032,68.683,16.694c48.172,24.948,81.171,75.27,81.171,133.16C474.537,407.312,407.312,474.537,324.683,474.537
			z"/>
	</g>
</g>
</svg>