<?xml version="1.0" encoding="iso-8859-1"?>
<!-- Uploaded to: SVG Repo, www.svgrepo.com, Generator: SVG Repo Mixer Tools -->
<svg fill="#000000" height="800px" width="800px" version="1.1" id="Layer_1" xmlns="http://www.w3.org/2000/svg" xmlns:xlink="http://www.w3.org/1999/xlink" 
	 viewBox="0 0 512 512" xml:space="preserve">
<g>
	<g>
		<path d="M224.619,0c-8.641,0-15.649,7.006-15.649,15.649v6.222c0,8.642,7.006,15.649,15.649,15.649
			c8.643,0,15.649-7.006,15.649-15.649v-6.222C240.268,7.006,233.262,0,224.619,0z"/>
	</g>
</g>
<g>
	<g>
		<path d="M287.379,0c-8.641,0-15.649,7.006-15.649,15.649v6.222c0,8.642,7.008,15.649,15.649,15.649
			c8.643,0,15.649-7.006,15.649-15.649v-6.222C303.028,7.006,296.022,0,287.379,0z"/>
	</g>
</g>
<g>
	<g>
		<path d="M72.632,339.953v85.302c0,8.642,7.005,15.649,15.649,15.649h152.07v39.799h-24.974c-8.643,0-15.649,7.006-15.649,15.649
			S206.734,512,215.377,512h81.247c8.641,0,15.649-7.006,15.649-15.649s-7.008-15.649-15.649-15.649h-24.975v-39.799h152.07
			c8.643,0,15.649-7.006,15.649-15.649v-85.302H72.632z"/>
	</g>
</g>
<g>
	<g>
		<path d="M386.187,207.926H125.812c-7.45,1.202-13.145,7.642-13.145,15.43v85.301H399.33v-85.301
			C399.33,215.567,393.635,209.127,386.187,207.926z"/>
	</g>
</g>
<g>
	<g>
		<path d="M342.562,106.756h-39.536V65.694c0-8.642-7.005-15.649-15.649-15.649c-8.641,0-15.649,7.006-15.649,15.649v41.061h-31.462
			V65.694c0-8.642-7.005-15.649-15.649-15.649c-8.641,0-15.649,7.006-15.649,15.649v41.061h-39.535
			c-8.641,0-15.649,7.006-15.649,15.649v54.224h204.425v-54.224C358.211,113.762,351.206,106.756,342.562,106.756z"/>
	</g>
</g>
</svg>