<?xml version="1.0" encoding="utf-8"?>
<!-- Uploaded to: SVG Repo, www.svgrepo.com, Generator: SVG Repo Mixer Tools -->
<!DOCTYPE svg PUBLIC "-//W3C//DTD SVG 1.1//EN" "http://www.w3.org/Graphics/SVG/1.1/DTD/svg11.dtd">
<svg fill="#000000" width="800px" height="800px" viewBox="0 0 1000 1000" version="1.1" xmlns="http://www.w3.org/2000/svg" xmlns:xlink="http://www.w3.org/1999/xlink"  enable-background="new 0 0 1000 1000" xml:space="preserve">

<g>
<g transform="translate(0.000000,511.000000) scale(0.100000,-0.100000)">
<path d="M2958.3,4970.1c-183.8-79.1-270.5-204.2-296-428.7c-15.3-125-10.2-153.1,48.5-242.4c122.5-186.3,375.2-250.1,515.5-130.2c94.4,81.7,114.8,81.7,219.5,10.2c140.4-97,313.9-97,454.3,2.6l99.5,66.4l107.2-68.9c160.8-107.2,319-91.9,513,45.9c33.2,23,56.1,17.9,112.3-25.5c150.6-120,357.3-120,505.3-5.1c79.1,63.8,84.2,63.8,163.3,0c148-114.8,354.7-114.8,505.3,5.1c56.1,43.4,79.1,48.5,112.3,25.5c191.4-137.8,352.2-153.1,510.4-48.5c122.5,81.7,117.4,81.7,199.1,17.9c160.8-125,375.2-112.3,510.4,35.7c104.6,114.8,125,196.5,89.3,367.5c-35.7,171-132.7,301.2-270.5,365c-99.5,45.9-204.2,48.5-2057,45.9C3313.1,5008.4,3034.9,5003.3,2958.3,4970.1z"/>
<path d="M2652.1,3352.1v-587H5000h2347.9v576.8c0,541-2.5,576.8-43.4,558.9c-237.3-99.5-364.9-112.3-548.7-48.5c-107.2,35.7-130.1,35.7-237.3,0c-148-51-278.2-51-423.6-2.6c-102.1,35.7-125.1,35.7-224.6,0c-61.2-20.4-158.2-38.3-216.9-38.3c-61.2,0-160.8,17.9-222,38.3c-102.1,35.7-125.1,35.7-224.6,0c-140.4-48.5-265.4-48.5-428.7,0c-114.8,33.2-140.4,33.2-237.3,0c-137.8-48.5-273.1-48.5-421.1,0c-102.1,35.7-127.6,35.7-229.7,0c-148-48.5-285.8-48.5-428.7,0c-102.1,33.2-125.1,33.2-204.2,0c-137.8-56.1-316.5-48.5-469.6,25.5l-135.3,61.2V3352.1z"/>
<path d="M1873.7,2464c-336.9-117.4-523.2-395.6-523.2-783.5c0-127.6,12.8-176.1,76.6-275.6c135.3-214.4,380.3-344.5,581.9-308.8c117.4,20.4,171,48.5,301.2,153.1l102.1,84.2l89.3-71.5c257.8-211.8,556.3-224.6,803.9-38.3c61.2,48.5,125,86.8,137.8,86.8c12.8,0,76.6-38.3,137.8-86.8c145.5-109.7,329.2-153.1,492.6-117.4c137.8,33.2,194,61.3,311.3,155.7l86.8,71.5l76.6-63.8c142.9-119.9,275.6-171,439-171c163.3,0,262.9,38.3,423.6,163.3l91.9,71.5l86.8-71.5c265.4-219.5,558.9-227.1,811.6-28.1l125,99.5l130.2-99.5c247.5-186.3,515.5-186.3,775.8,0c132.7,97,140.4,99.5,181.2,53.6c23-25.5,102.1-79.1,176.1-117.4c303.7-165.9,661-51,821.8,265.4c35.7,68.9,40.8,132.7,33.2,293.5c-17.9,342-153.1,564-423.6,696.7l-145.5,71.5l-3037,5.1C2205.5,2507.3,1993.7,2504.8,1873.7,2464z"/>
<path d="M1350.5-90.7V-1012H5000h3649.5v906c0,834.5-10.2,967.2-63.8,880.5c-7.6-12.8-89.3-48.5-181.2-76.6c-227.1-68.9-459.4-66.4-684,10.2l-176.1,61.3L7427,713.2c-171-79.1-599.7-76.6-773.3,2.6l-117.4,53.6l-176.1-63.8c-148-53.6-206.7-61.2-390.5-53.6c-148,7.7-255.2,28.1-336.9,63.8l-120,53.6l-173.5-61.3c-232.2-81.7-469.6-81.7-706.9,0l-176.1,61.3L4339,713.2c-171-79.1-599.7-76.6-773.3,2.6l-122.5,56.1l-120-56.1c-173.5-79.1-604.8-81.7-775.8-2.6l-114.8,53.6l-102.1-53.6c-84.2-43.4-142.9-53.6-367.5-53.6c-275.6,0-278.2,0-592.1,160.8C1358.2,825.5,1350.5,414.6,1350.5-90.7z"/>
<path d="M618.1-1315.7c-168.4-58.7-301.1-158.2-390.5-301.2c-84.2-130.1-148-362.4-109.7-387.9c15.3-7.7,51-66.4,84.2-127.6c84.2-168.5,265.4-347.1,413.4-410.9c250.1-107.2,589.5-45.9,916.2,168.5c63.8,40.8,68.9,40.8,234.8-74c94.4-63.8,214.4-130.1,265.4-142.9c265.4-74,553.8,2.5,877.9,232.2c35.7,23,68.9,10.2,188.9-66.3c380.3-252.7,732.5-257.8,1054-15.3c74,56.2,140.4,102.1,145.5,102.1c7.7,0,86.8-51,178.6-114.8c91.9-61.2,209.3-125,260.3-137.8c239.9-68.9,518.1-7.7,775.8,165.9c71.5,48.5,135.3,86.8,140.4,86.8c5.1,0,84.2-51,173.6-112.3c367.5-252.7,740.1-222,1151,97c17.9,12.8,89.3-20.4,196.5-94.4c329.2-224.6,699.3-227.1,1008.1-5.1c66.3,48.5,135.3,97,150.6,104.6c17.9,7.7,104.6-38.3,196.5-99.5c191.4-132.7,372.6-183.8,579.3-163.3c313.9,28.1,564,201.6,701.8,487.5c89.3,186.3,89.3,186.3,51,313.9c-76.6,257.7-293.5,461.9-551.2,515.5c-86.8,20.4-1462.4,28.1-4343.7,28.1C988.1-1269.7,743.1-1272.3,618.1-1315.7z"/>
<path d="M100-3742.7v-1046.4h4900h4900v1033.6v1031.1l-142.9-99.5c-370-257.8-946.8-293.5-1316.9-81.7c-61.2,35.7-76.6,35.7-216.9-25.5c-377.7-163.3-745.2-158.2-1117.8,20.4c-86.8,40.8-94.4,40.8-237.3-23c-375.2-160.8-742.7-155.7-1115.3,23c-86.8,40.8-94.4,40.8-242.5-23c-367.5-160.8-742.7-153.1-1110.2,23c-86.8,40.8-94.4,40.8-237.3-23c-375.2-160.8-742.7-155.7-1115.3,23c-86.8,40.8-94.4,40.8-245-25.5c-339.4-145.5-719.7-148-1031-5.1l-145.5,66.3l-171-81.7c-158.2-79.1-181.2-84.2-449.2-84.2c-247.6,2.6-301.1,10.2-446.6,71.5c-91.9,38.3-227.1,114.8-301.1,171c-74,56.2-140.4,102.1-145.5,102.1C105.1-2696.4,100-3165.9,100-3742.7z"/>
</g>
</g>
</svg>