<?xml version="1.0" encoding="iso-8859-1"?>
<!-- Uploaded to: SVG Repo, www.svgrepo.com, Generator: SVG Repo Mixer Tools -->
<!DOCTYPE svg PUBLIC "-//W3C//DTD SVG 1.1//EN" "http://www.w3.org/Graphics/SVG/1.1/DTD/svg11.dtd">
<svg fill="#000000" version="1.1" id="Capa_1" xmlns="http://www.w3.org/2000/svg" xmlns:xlink="http://www.w3.org/1999/xlink" 
	 width="800px" height="800px" viewBox="0 0 91.876 91.876"
	 xml:space="preserve">
<g>
	<path d="M45.938,0C20.567,0,0,20.567,0,45.938c0,25.369,20.564,45.938,45.938,45.938c25.369,0,45.938-20.567,45.938-45.938
		C91.876,20.566,71.309,0,45.938,0z M45.938,77.617c-17.497,0-31.682-14.186-31.682-31.681c0-17.497,14.183-31.681,31.682-31.681
		c17.496,0,31.68,14.185,31.68,31.681C77.618,63.432,63.436,77.617,45.938,77.617z M22.111,37.476
		c-0.933-0.934,1.543-4.922,5.531-8.91c3.987-3.986,7.978-6.464,8.91-5.53c0.932,0.934-1.544,4.922-5.531,8.909
		C27.034,35.932,23.044,38.409,22.111,37.476z M62.702,28.564c3.985,3.988,6.463,7.978,5.53,8.909
		c-0.934,0.931-4.922-1.543-8.909-5.531c-3.988-3.987-6.466-7.978-5.531-8.908C54.725,22.101,58.714,24.578,62.702,28.564z
		 M68.232,53.105c0.933,0.936-1.545,4.923-5.53,8.91c-3.988,3.985-7.978,6.463-8.91,5.528c-0.935-0.933,1.543-4.922,5.531-8.907
		C63.312,54.648,67.3,52.173,68.232,53.105z M31.02,58.637c3.988,3.986,6.464,7.977,5.531,8.908
		c-0.934,0.934-4.922-1.545-8.909-5.531c-3.988-3.986-6.464-7.978-5.531-8.908C23.044,52.171,27.034,54.646,31.02,58.637z
		 M55.706,45.936c0,5.396-4.373,9.771-9.768,9.771c-5.396,0-9.77-4.375-9.77-9.771s4.375-9.77,9.77-9.77
		S55.706,40.542,55.706,45.936z"/>
</g>
</svg>